<?xml version="1.0" encoding="utf-8"?>
<!-- Generator: Adobe Illustrator 26.2.1, SVG Export Plug-In . SVG Version: 6.00 Build 0)  -->
<svg version="1.1" id="a" xmlns="http://www.w3.org/2000/svg" xmlns:xlink="http://www.w3.org/1999/xlink" x="0px" y="0px"
	 viewBox="0 0 40 40" style="enable-background:new 0 0 40 40;" xml:space="preserve">
<style type="text/css">
	.st0{fill:#ED1C24;}
</style>
<path class="st0" d="M2.1,27.7C-0.3,31.9,2.7,37,7.5,37h25c4.8,0,7.8-5.2,5.4-9.3L25.4,6.1C23,1.9,17,1.9,14.6,6.1L2.1,27.7
	 M18,30.9c-0.6-0.4-0.9-1.1-0.9-2.1c0-1,0.3-1.7,0.9-2.1c0.6-0.4,1.3-0.6,2.1-0.6s1.5,0.2,2.1,0.6c0.6,0.4,0.9,1.1,0.9,2.1
	c0,1-0.3,1.7-0.9,2.1c-0.6,0.5-1.3,0.7-2.1,0.7S18.5,31.3,18,30.9 M16.9,10.3h6.2l-0.7,13.5h-4.7L16.9,10.3z"/>
</svg>
