<?xml version="1.0" encoding="utf-8"?>
<!-- Generator: Adobe Illustrator 27.3.1, SVG Export Plug-In . SVG Version: 6.00 Build 0)  -->
<svg version="1.1" id="a" xmlns="http://www.w3.org/2000/svg" xmlns:xlink="http://www.w3.org/1999/xlink" x="0px" y="0px"
	 viewBox="0 0 40 40" style="enable-background:new 0 0 40 40;" xml:space="preserve">
<style type="text/css">
	.st0{fill:#047F92;}
</style>
<path class="st0" d="M27.8,7.6H12.2c-2.5,0-4.6,2.1-4.6,4.6v15.7c0,2.5,2.1,4.6,4.6,4.6h15.7c2.5,0,4.6-2.1,4.6-4.6V12.2
	C32.4,9.6,30.4,7.6,27.8,7.6z M24.5,15.5v3.7h-3.7v-3.7H24.5z M19.2,15.5v3.7h-3.8v-3.7H19.2z M13.8,19.1H10v-3.7h3.7V19.1z
	 M13.8,20.8v3.8H10v-3.8H13.8z M15.4,20.8h3.8v3.8h-3.8V20.8z M19.2,26.2V30h-3.8v-3.8H19.2z M20.8,26.2h3.7V30h-3.7V26.2z
	 M20.8,24.5v-3.8h3.7v3.8H20.8z M26.1,20.8H30v3.8h-3.8V20.8z M26.1,19.1v-3.7H30v3.7H26.1z M10,27.8v-1.7h3.7V30h-1.6
	C11,30,10,29,10,27.8z M27.8,30h-1.7v-3.8H30v1.7C30,29,29,30,27.8,30z"/>
</svg>
