<?xml version="1.0" encoding="utf-8"?>
<!-- Generator: Adobe Illustrator 26.2.1, SVG Export Plug-In . SVG Version: 6.00 Build 0)  -->
<svg version="1.1" id="Layer_1" xmlns="http://www.w3.org/2000/svg" xmlns:xlink="http://www.w3.org/1999/xlink" x="0px" y="0px"
	 viewBox="0 0 32 32" style="enable-background:new 0 0 32 32;" xml:space="preserve">
<style type="text/css">
	.st0{fill:#ED1C24;}
	.st1{fill:#FFFFFF;}
</style>
<g>
	<path class="st0" d="M24,16L24,16c0,4.4-3.6,8-8,8h0c-4.4,0-8-3.6-8-8v0c0-4.4,3.6-8,8-8h0C20.4,8,24,11.6,24,16z"/>
	<path class="st1" d="M17.5,16l1.4-1.4c0.4-0.4,0.4-1,0-1.4c-0.4-0.4-1-0.4-1.4,0L16,14.6l-1.4-1.4c-0.4-0.4-1-0.4-1.4,0
		c-0.4,0.4-0.4,1,0,1.4l1.4,1.4l-1.4,1.4c-0.4,0.4-0.4,1,0,1.4c0.4,0.4,1,0.4,1.4,0l1.4-1.4l1.4,1.4c0.4,0.4,1,0.4,1.4,0
		c0.4-0.4,0.4-1,0-1.4L17.5,16z"/>
</g>
</svg>
