<?xml version="1.0" encoding="utf-8"?>
<!-- Generator: Adobe Illustrator 26.2.1, SVG Export Plug-In . SVG Version: 6.00 Build 0)  -->
<svg version="1.1" id="a" xmlns="http://www.w3.org/2000/svg" xmlns:xlink="http://www.w3.org/1999/xlink" x="0px" y="0px"
	 viewBox="0 0 40 40" style="enable-background:new 0 0 40 40;" xml:space="preserve">
<style type="text/css">
	.st0{fill:#999999;}
</style>
<path class="st0" d="M29.7,18.4c-0.8-0.8-2-1.9-3.3-2.9l1.3-1.3c0.5-0.5,0.5-1.4,0-1.9c-0.5-0.5-1.3-0.5-1.9,0l-1.8,1.8
	c-1.2-0.4-2.7-1-4-1c-4.1,0-7.8,3.1-9.7,5.1c-0.9,1-0.9,2.4,0,3.4c0.8,0.8,2.1,1.9,3.4,2.9l-0.1,0.1l-1.4,1.4
	c-0.5,0.5-0.5,1.3,0,1.9c0.2,0.2,0.6,0.4,1,0.4s0.7-0.1,1-0.4l1.8-1.8c1.2,0.5,2.7,1,4,1c4.1,0,7.8-3.1,9.7-5.1
	C30.6,20.8,30.6,19.3,29.7,18.4z M11.8,20.2c-0.2-0.2-0.2-0.5,0-0.6c1.6-1.6,4.7-4.5,8.2-4.5c0.8,0,1.7,0.2,2.4,0.5l0,0L22,16
	c-0.6-0.4-1.3-0.5-2-0.5c-2.5,0.1-4.5,2.1-4.5,4.5c0,0.7,0.1,1.4,0.5,2l-1,1C13.8,22.2,12.6,21.1,11.8,20.2z M22.3,19.6
	c0.2,0.1,0.2,0.2,0.2,0.5c0,1.3-1.1,2.4-2.4,2.4c-0.1,0-0.1,0-0.5-0.1L22.3,19.6z M17.7,20.4c0-0.1-0.1-0.2-0.1-0.5
	c0-1.3,1.1-2.4,2.4-2.4c0.2,0,0.2,0,0.5,0.1l0,0L17.7,20.4z M28.2,20.4c-1.6,1.7-4.7,4.5-8.2,4.5c-0.8,0-1.7-0.1-2.5-0.5L18,24h0.1
	c0.6,0.4,1.2,0.4,1.9,0.4c2.4,0,4.4-1.9,4.4-4.4c0-0.6-0.1-1.3-0.4-1.9l1-1.1c1.3,0.9,2.5,2,3.3,2.8C28.3,19.9,28.3,20.2,28.2,20.4z
	"/>
</svg>
