<?xml version="1.0" encoding="utf-8"?>
<!-- Generator: Adobe Illustrator 26.2.1, SVG Export Plug-In . SVG Version: 6.00 Build 0)  -->
<svg version="1.1" id="a" xmlns="http://www.w3.org/2000/svg" xmlns:xlink="http://www.w3.org/1999/xlink" x="0px" y="0px"
	 viewBox="0 0 40 40" style="enable-background:new 0 0 40 40;" xml:space="preserve">
<style type="text/css">
	.st0{fill:#047F92;}
</style>
<g>
	<path class="st0" d="M29.7,18.3c-0.8-0.8-2-1.9-3.3-2.8C25.7,15,24.7,14.4,24,14l0,0c-0.1,0-0.2-0.1-0.2-0.1s0,0-0.1,0l0,0
		c-1.1-0.4-2.4-0.8-3.7-0.8c-4.1,0-7.8,3.1-9.7,5.1c-0.9,1-0.9,2.4,0,3.4c0.7,0.8,2.1,2,3.3,2.9l0,0c0.1,0,0.1,0.1,0.1,0.1
		c0,0,0.1,0,0.1,0.1l0,0c0.5,0.4,1.1,0.7,1.7,1l0,0h0.1c0.1,0.1,0.2,0.1,0.4,0.1l0,0c1.2,0.5,2.8,1.1,4,1.1c4.1,0,7.8-3.1,9.7-5.1
		C30.6,20.8,30.6,19.2,29.7,18.3z M28.2,20.4c-1.6,1.6-4.7,4.5-8.2,4.5c-0.7,0-1.4-0.1-2-0.4c-0.9-0.4-2.2-1-2.9-1.5l0,0
		c-1.3-0.8-2.5-2-3.3-2.8c-0.2-0.1-0.2-0.4,0-0.6c1.6-1.7,4.7-4.5,8.2-4.5c0.8,0,1.3,0.1,2.1,0.4l0,0c0.8,0.4,2.1,1,2.9,1.5
		c1.3,0.9,2.5,2,3.3,2.8C28.3,19.9,28.3,20.1,28.2,20.4z"/>
	<path class="st0" d="M22.1,16c0.1,0,0.2,0.1,0.2,0.1c0,0,0.1,0,0.1,0.1L22.1,16z"/>
	<path class="st0" d="M22.3,16.2c-0.6-0.4-1.5-0.7-2.2-0.7c-2.5,0.1-4.5,2.1-4.5,4.5c0,0.7,0.1,1.3,0.5,2c0.5,0.8,1.1,1.6,1.9,1.9
		l0,0c0.6,0.4,1.2,0.5,1.9,0.5c2.4,0,4.4-2,4.4-4.4c0-0.7-0.1-1.5-0.4-2.1C23.5,17.2,22.9,16.6,22.3,16.2z M20,22.4
		c-0.2,0-0.4,0-0.5-0.1c-1-0.2-1.6-1.1-1.7-1.9c-0.1-0.2-0.1-0.5-0.1-0.6c0-1.3,1.1-2.4,2.4-2.4c0.2,0,0.2,0,0.5,0.1l0,0
		c1,0.2,1.7,1,1.9,1.9c0.1,0.4,0.1,0.4,0.1,0.5C22.4,21.3,21.3,22.4,20,22.4z"/>
</g>
</svg>
