<?xml version="1.0" encoding="utf-8"?>
<!-- Generator: Adobe Illustrator 26.3.1, SVG Export Plug-In . SVG Version: 6.00 Build 0)  -->
<svg version="1.1" id="Layer_1" xmlns="http://www.w3.org/2000/svg" xmlns:xlink="http://www.w3.org/1999/xlink" x="0px" y="0px"
	 viewBox="0 0 34.8 17" style="enable-background:new 0 0 34.8 17;" xml:space="preserve">
<style type="text/css">
	.st0{fill:#FF0000;}
	.st1{fill:#FFFFFF;}
</style>
<g>
	<path class="st0" d="M34.8,9h-1V8h1V9z M31.8,9h-1V8h1V9z M28.8,9h-1V8h1V9z"/>
	<path class="st0" d="M7,9H6V8h1V9z M4,9H3V8h1V9z M1,9H0V8h1V9z"/>
	<path class="st0" d="M24.7,3.7H10c-1.7,0-3.1,1.4-3,3.1v3.5c0,1.6,1.3,3,3,3h14.7c1.7,0,3.1-1.4,3-3.1V6.7
		C27.7,5.1,26.4,3.7,24.7,3.7z"/>
	<g>
		<path class="st1" d="M10.9,8.8l-0.6,1.9H9.5l2.1-6.1h0.9l2.1,6.1h-0.9l-0.6-1.9H10.9z M12.9,8.2l-0.6-1.8C12.2,6,12.1,5.7,12,5.3
			l0,0c-0.1,0.4-0.2,0.7-0.3,1.1l-0.6,1.8H12.9z"/>
		<path class="st1" d="M15.6,6.3l0.9,2.5c0.1,0.4,0.3,0.8,0.4,1.1l0,0c0.1-0.4,0.2-0.7,0.4-1.1l0.9-2.5H19l-1.7,4.4h-0.9l-1.7-4.4
			H15.6z"/>
		<path class="st1" d="M23.3,10.1c0,1-0.2,1.6-0.6,2s-1.1,0.5-1.6,0.5s-1.1-0.1-1.5-0.4l0.2-0.6c0.3,0.2,0.7,0.4,1.3,0.4
			c0.8,0,1.4-0.4,1.4-1.5V10l0,0c-0.2,0.4-0.7,0.7-1.4,0.7c-1.1,0-1.9-0.9-1.9-2.1c0-1.5,1-2.3,2-2.3c0.8,0,1.2,0.4,1.4,0.8l0,0V6.4
			h0.7c0,0.3,0,0.7,0,1.2C23.3,7.6,23.3,10.1,23.3,10.1z M22.5,8.1c0-0.1,0-0.3,0-0.4c-0.1-0.5-0.5-0.9-1.1-0.9
			c-0.8,0-1.3,0.6-1.3,1.7c0,0.9,0.4,1.6,1.3,1.6c0.5,0,0.9-0.3,1.1-0.8c0-0.1,0-0.3,0-0.4V8.1z"/>
		<path class="st1" d="M24.3,10.3c0-0.3,0.2-0.6,0.5-0.6s0.5,0.2,0.5,0.6c0,0.3-0.2,0.6-0.6,0.6C24.5,10.8,24.3,10.6,24.3,10.3z"/>
	</g>
</g>
</svg>
