<?xml version="1.0" encoding="utf-8"?>
<!-- Generator: Adobe Illustrator 26.3.1, SVG Export Plug-In . SVG Version: 6.00 Build 0)  -->
<svg version="1.1" id="Layer_1" xmlns="http://www.w3.org/2000/svg" xmlns:xlink="http://www.w3.org/1999/xlink" x="0px" y="0px"
	 viewBox="0 0 68 17" style="enable-background:new 0 0 68 17;" xml:space="preserve">
<style type="text/css">
	.st0{fill:#FFB700;}
</style>
<g>
	<rect y="8" class="st0" width="1" height="1"/>
	<rect x="6.2" y="8" class="st0" width="1" height="1"/>
	<rect x="3.2" y="8" class="st0" width="1" height="1"/>
	<rect x="67" y="8" class="st0" width="1" height="1"/>
	<rect x="60.8" y="8" class="st0" width="1" height="1"/>
	<rect x="63.8" y="8" class="st0" width="1" height="1"/>
	<path class="st0" d="M56.7,3.7H37h-6H11.3c-1.7,0-3,1.4-3,3v3.5c-0.1,1.7,1.3,3.1,3,3.1H31h6h19.7c1.7,0,3.1-1.4,3-3.1V6.7
		C59.7,5.1,58.4,3.7,56.7,3.7z"/>
</g>
<g>
	<path d="M11.3,5.3c0.4-0.1,1-0.1,1.6-0.1c0.9,0,1.4,0.1,1.8,0.5c0.4,0.3,0.6,0.7,0.6,1.2c0,0.7-0.4,1.2-1.1,1.5v0
		c0.6,0.1,1.4,0.7,1.4,1.7c0,0.6-0.2,1-0.6,1.3c-0.5,0.4-1.2,0.6-2.3,0.6c-0.6,0-1.1,0-1.3-0.1V5.3z M12.2,8H13
		c0.9,0,1.4-0.5,1.4-1.1c0-0.8-0.6-1.1-1.5-1.1c-0.4,0-0.6,0-0.8,0.1V8z M12.2,11.2c0.2,0,0.4,0,0.7,0c0.9,0,1.7-0.3,1.7-1.3
		c0-0.9-0.8-1.3-1.7-1.3h-0.7V11.2z"/>
	<path d="M17.2,9.6c0,1.2,0.8,1.7,1.7,1.7c0.6,0,1-0.1,1.3-0.2l0.2,0.6c-0.3,0.1-0.8,0.3-1.6,0.3c-1.5,0-2.4-1-2.4-2.4
		c0-1.5,0.9-2.6,2.3-2.6c1.6,0,2,1.4,2,2.3c0,0.2,0,0.3,0,0.4H17.2z M19.8,9c0-0.5-0.2-1.4-1.2-1.4c-0.9,0-1.3,0.8-1.3,1.4H19.8z"/>
	<path d="M21.7,8.4c0-0.5,0-0.9,0-1.3h0.8l0,0.8h0C22.8,7.4,23.4,7,24.2,7c0.7,0,1.7,0.4,1.7,2.1v2.9H25V9.1c0-0.8-0.3-1.4-1.1-1.4
		c-0.6,0-1,0.4-1.2,0.9c0,0.1-0.1,0.3-0.1,0.4v2.9h-0.9V8.4z"/>
	<path d="M30.7,11.7C30.5,11.8,30,12,29.4,12c-1.5,0-2.4-1-2.4-2.5c0-1.5,1-2.6,2.6-2.6c0.5,0,1,0.1,1.2,0.3l-0.2,0.7
		c-0.2-0.1-0.5-0.2-1-0.2c-1.1,0-1.7,0.8-1.7,1.8c0,1.1,0.7,1.8,1.7,1.8c0.5,0,0.8-0.1,1.1-0.2L30.7,11.7z"/>
	<path d="M31.8,4.8h0.9v3h0c0.1-0.2,0.4-0.5,0.6-0.6C33.6,7.1,33.9,7,34.2,7c0.6,0,1.7,0.4,1.7,2.1v2.9H35V9.1
		c0-0.8-0.3-1.4-1.1-1.4c-0.6,0-1,0.4-1.2,0.9c0,0.1-0.1,0.3-0.1,0.4v2.9h-0.9V4.8z"/>
	<path d="M37.3,8.4c0-0.5,0-0.9,0-1.3h0.8l0,0.8h0C38.4,7.4,38.8,7,39.7,7c0.6,0,1.1,0.4,1.4,1h0c0.2-0.3,0.3-0.5,0.5-0.6
		C41.9,7.1,42.2,7,42.6,7c0.6,0,1.6,0.4,1.6,2.1v2.8h-0.9V9.2c0-0.9-0.3-1.5-1-1.5c-0.5,0-0.9,0.4-1,0.8c0,0.1-0.1,0.3-0.1,0.4v3
		h-0.9V9c0-0.8-0.3-1.3-1-1.3c-0.5,0-0.9,0.4-1.1,0.9c0,0.1-0.1,0.3-0.1,0.4v2.9h-0.9V8.4z"/>
	<path d="M49.1,10.7c0,0.4,0,0.8,0.1,1.2h-0.8l-0.1-0.6h0C48,11.7,47.5,12,46.8,12c-1,0-1.5-0.7-1.5-1.4c0-1.2,1-1.8,2.9-1.8V8.7
		c0-0.4-0.1-1.1-1.1-1.1c-0.5,0-0.9,0.1-1.3,0.4l-0.2-0.6C46,7.1,46.6,7,47.2,7c1.5,0,1.8,1,1.8,2V10.7z M48.2,9.4c-1,0-2,0.2-2,1.1
		c0,0.6,0.4,0.8,0.8,0.8c0.6,0,1-0.4,1.2-0.8c0-0.1,0-0.2,0-0.3V9.4z"/>
	<path d="M50.5,8.6c0-0.6,0-1.1,0-1.5h0.8l0,1h0C51.5,7.4,52,7,52.6,7c0.1,0,0.2,0,0.2,0v0.8c-0.1,0-0.2,0-0.3,0
		c-0.6,0-1.1,0.5-1.2,1.1c0,0.1,0,0.3,0,0.4v2.6h-0.9V8.6z"/>
	<path d="M54.7,9.3L54.7,9.3c0.1-0.2,0.3-0.4,0.4-0.5l1.4-1.7h1l-1.9,2l2.1,2.8h-1.1l-1.7-2.3l-0.4,0.5v1.8h-0.9V4.8h0.9V9.3z"/>
</g>
</svg>
