<?xml version="1.0" encoding="utf-8"?>
<!-- Generator: Adobe Illustrator 26.3.1, SVG Export Plug-In . SVG Version: 6.00 Build 0)  -->
<svg version="1.1" id="Layer_1" xmlns="http://www.w3.org/2000/svg" xmlns:xlink="http://www.w3.org/1999/xlink" x="0px" y="0px"
	 viewBox="0 0 34.8 17" style="enable-background:new 0 0 34.8 17;" xml:space="preserve">
<style type="text/css">
	.st0{fill:#C1272D;}
	.st1{fill:#07C3E0;}
</style>
<g>
	<path class="st0" d="M23,7.7c-0.4-2.7-2.7-4.9-5.6-4.9S12.3,5,11.9,7.7c0,0.3-0.1,0.5-0.1,0.8c0,0.3,0,0.5,0.1,0.8
		c0.4,2.7,2.7,4.9,5.6,4.9S22.6,12,23,9.3c0-0.3,0.1-0.5,0.1-0.8C23.1,8.2,23.1,8,23,7.7z"/>
	<path class="st1" d="M24.7,7.7c-0.4-3.6-3.5-6.5-7.2-6.5s-6.8,2.8-7.2,6.5H5.9v1.6h4.3c0.4,3.6,3.5,6.5,7.2,6.5s6.8-2.8,7.2-6.5
		h4.2V7.7H24.7z M23.1,8.5c0,0.3,0,0.5-0.1,0.8c-0.4,2.7-2.7,4.9-5.6,4.9s-5.2-2.1-5.6-4.9c0-0.3-0.1-0.5-0.1-0.8
		c0-0.3,0-0.5,0.1-0.8c0.4-2.7,2.7-4.9,5.6-4.9S22.6,5,23,7.7C23.1,8,23.1,8.2,23.1,8.5z"/>
</g>
</svg>
