<?xml version="1.0" encoding="utf-8"?>
<!-- Generator: Adobe Illustrator 26.3.1, SVG Export Plug-In . SVG Version: 6.00 Build 0)  -->
<svg version="1.1" id="Layer_1" xmlns="http://www.w3.org/2000/svg" xmlns:xlink="http://www.w3.org/1999/xlink" x="0px" y="0px"
	 viewBox="0 0 34.8 17" style="enable-background:new 0 0 34.8 17;" xml:space="preserve">
<style type="text/css">
	.st0{fill:#F15A24;}
	.st1{fill:#FFFFFF;}
</style>
<g>
	<path class="st0" d="M13,9h-1V8h1V9z M10,9H9V8h1V9z M16,9h-1V8h1V9z M7,9H6V8h1V9z"/>
	<path class="st0" d="M4,9H3V8h1V9z M1,9H0V8h1V9z"/>
	<path class="st0" d="M31.9,3.7H19.9c-1.7,0-3.1,1.4-3,3.1v3.5c0,1.6,1.3,3,3,3h11.9c1.7,0,3.1-1.4,3-3.1V6.7
		C34.9,5.1,33.6,3.7,31.9,3.7z"/>
	<g>
		<path class="st1" d="M21.7,5.2V8H25V5.2h0.9v6.7H25V8.8h-3.3v3.2h-0.9V5.2H21.7z"/>
		<path class="st1" d="M27.4,5.3c0.4-0.1,1.1-0.1,1.7-0.1c0.9,0,1.5,0.2,1.9,0.5C31.3,6,31.5,6.5,31.5,7c0,0.9-0.6,1.5-1.3,1.7v0
			c0.5,0.2,0.8,0.7,1,1.4c0.2,0.9,0.4,1.6,0.5,1.8h-0.9c-0.1-0.2-0.3-0.8-0.4-1.6C30.2,9.4,29.8,9,29.1,9h-0.8v2.9h-0.9V5.3z
			 M28.2,8.4h0.9c0.9,0,1.5-0.5,1.5-1.3c0-0.9-0.6-1.2-1.5-1.2c-0.4,0-0.7,0-0.9,0.1V8.4z"/>
	</g>
</g>
</svg>
