<?xml version="1.0" encoding="UTF-8"?><svg id="a" xmlns="http://www.w3.org/2000/svg" viewBox="0 0 34.81 17"><defs><style>.b{fill:#c15357;}.c{fill:#56a07e;}</style></defs><path class="c" d="M13.5,0H3.5C1.57,0,0,1.57,0,3.5v13.5H17V3.5c0-1.93-1.57-3.5-3.5-3.5Zm2.5,8.02l-7.98,7.98h-2.07L16,5.95v2.07Zm0,3.48l-4.5,4.5h-2.07l6.57-6.57v2.07Zm0,3.48l-1.02,1.02h-2.07l3.09-3.09v2.07Zm-11.47,1.02H2.47L15.84,2.63c.1,.27,.16,.56,.16,.87v1.03L4.53,16Zm-3.53,0v-2.01L13.94,1.04c.53,.09,.99,.35,1.35,.72L1.05,16h-.05Zm0-5.5L10.5,1h2.07L1,12.57v-2.07Zm0-3.48L7.02,1h2.07L1,9.09v-2.07Zm0-3.48L3.54,1h2.07L1,5.61V3.54Z"/><path class="b" d="M17.81,0V13.5c0,1.93,1.57,3.5,3.5,3.5h10c1.93,0,3.5-1.57,3.5-3.5V0H17.81Zm16,4.13l-11.87,11.87h-.63c-.42,0-.8-.11-1.15-.29L33.81,2.06v2.07Zm0,3.48l-8.39,8.39h-2.07l10.46-10.46v2.07Zm0,3.48l-4.91,4.91h-2.07l6.97-6.97v2.07Zm0,2.41c0,1.38-1.12,2.5-2.5,2.5h-.99l3.49-3.49v.99Zm-15-3.4L27.91,1h2.07l-11.17,11.17v-2.07Zm0-3.48L24.43,1h2.07l-7.69,7.69v-2.07Zm0-3.48l2.14-2.14h2.07l-4.2,4.2V3.14Zm0-2.14h.72l-.72,.72v-.72Zm12.58,0h2.07l-14.07,14.07c-.34-.41-.55-.93-.57-1.5L31.39,1Z"/></svg>