<?xml version="1.0" encoding="utf-8"?>
<!-- Generator: Adobe Illustrator 26.2.1, SVG Export Plug-In . SVG Version: 6.00 Build 0)  -->
<svg version="1.1" id="Layer_1" xmlns="http://www.w3.org/2000/svg" xmlns:xlink="http://www.w3.org/1999/xlink" x="0px" y="0px"
	 viewBox="0 0 34.8 17" style="enable-background:new 0 0 34.8 17;" xml:space="preserve">
<style type="text/css">
	.st0{fill:#CCCCCC;}
</style>
<path class="st0" d="M22.4,0h-10c-1.9,0-3.5,1.6-3.5,3.5V17h17V3.5C25.9,1.6,24.3,0,22.4,0z M24.9,8l-8,8h-2.1L24.9,5.9V8z
	 M24.9,11.5L20.4,16h-2.1l6.6-6.6V11.5z M24.9,15l-1,1h-2.1l3.1-3.1V15z M13.4,16h-2.1L24.7,2.6c0.1,0.3,0.2,0.6,0.2,0.9v1L13.4,16z
	 M9.9,16v-2L22.8,1c0.5,0.1,1,0.3,1.3,0.7L9.9,16L9.9,16z M9.9,10.5L19.4,1h2.1L9.9,12.6V10.5z M9.9,7l6-6H18L9.9,9.1V7z M9.9,3.5
	L12.4,1h2.1L9.9,5.6V3.5z"/>
</svg>
