<?xml version="1.0" encoding="utf-8"?>
<!-- Generator: Adobe Illustrator 26.3.1, SVG Export Plug-In . SVG Version: 6.00 Build 0)  -->
<svg version="1.1" id="Layer_1" xmlns="http://www.w3.org/2000/svg" xmlns:xlink="http://www.w3.org/1999/xlink" x="0px" y="0px"
	 viewBox="0 0 34.8 17" style="enable-background:new 0 0 34.8 17;" xml:space="preserve">
<style type="text/css">
	.st0{fill:#00FF00;}
	.st1{fill:#00333B;}
</style>
<g>
	<path class="st0" d="M34.8,9h-1V8h1V9z M31.8,9h-1V8h1V9z M28.8,9h-1V8h1V9z M25.8,9h-1V8h1V9z M22.8,9h-1V8h1V9z"/>
	<path class="st0" d="M16.9,13.3H0l0-9.6h16.9c1.7,0,3,1.4,3,3v3.5C20,11.9,18.6,13.3,16.9,13.3z"/>
	<g>
		<path class="st1" d="M3.4,8.8l-0.6,1.9H2l2.1-6.1H5l2.1,6.1H6.2L5.6,8.8H3.4z M5.4,8.2L4.8,6.4C4.7,6,4.6,5.7,4.5,5.3h0
			C4.4,5.7,4.3,6,4.2,6.4L3.6,8.2H5.4z"/>
		<path class="st1" d="M8.1,6.3L9,8.8c0.1,0.4,0.3,0.8,0.4,1.1h0c0.1-0.4,0.2-0.7,0.4-1.1l0.9-2.5h0.8l-1.7,4.4H8.9L7.2,6.3H8.1z"/>
		<path class="st1" d="M15.8,10.1c0,1-0.2,1.6-0.6,2c-0.4,0.4-1.1,0.5-1.6,0.5c-0.5,0-1.1-0.1-1.5-0.4l0.2-0.6
			c0.3,0.2,0.7,0.4,1.3,0.4c0.8,0,1.4-0.4,1.4-1.5V10h0c-0.2,0.4-0.7,0.7-1.4,0.7c-1.1,0-1.9-0.9-1.9-2.1c0-1.5,1-2.3,2-2.3
			c0.8,0,1.2,0.4,1.4,0.8h0l0-0.7h0.7c0,0.3,0,0.7,0,1.2V10.1z M15,8.1c0-0.1,0-0.3,0-0.4c-0.1-0.5-0.5-0.9-1.1-0.9
			c-0.8,0-1.3,0.6-1.3,1.7c0,0.9,0.4,1.6,1.3,1.6c0.5,0,0.9-0.3,1.1-0.8C15,9.2,15,9,15,8.9V8.1z"/>
		<path class="st1" d="M16.8,10.3c0-0.3,0.2-0.6,0.5-0.6c0.3,0,0.5,0.2,0.5,0.6c0,0.3-0.2,0.6-0.6,0.6C17,10.8,16.8,10.6,16.8,10.3z
			"/>
	</g>
</g>
</svg>
