<?xml version="1.0" encoding="utf-8"?>
<!-- Generator: Adobe Illustrator 26.2.1, SVG Export Plug-In . SVG Version: 6.00 Build 0)  -->
<svg version="1.1" id="Layer_1" xmlns="http://www.w3.org/2000/svg" xmlns:xlink="http://www.w3.org/1999/xlink" x="0px" y="0px"
	 viewBox="0 0 108.6 24" style="enable-background:new 0 0 108.6 24;" xml:space="preserve">
<style type="text/css">
	.st0{fill:#FFFFFF;}
</style>
<g>
	<g>
		<path class="st0" d="M19.3,0H4.9L0,4.6v13.5C0,21.3,2.7,24,5.9,24h19.3V5.9C25.2,2.7,22.6,0,19.3,0z M24.4,23.1H5.9
			c-2.8,0-5-2.3-5-5V5l4.3-4.1h14.1c2.8,0,5,2.3,5,5V23.1z"/>
		<path class="st0" d="M16.5,8.2l-6.7,5.9l5.6-2.1v5.5c0,1.4,1.1,2.5,2.5,2.5H20V9.8C20,8,17.8,7,16.5,8.2z"/>
		<path class="st0" d="M9.8,13.1V5c0-0.6-0.5-1.1-1.1-1.1c-0.6,0-1.1,0.2-1.5,0.6l-2,1.8v11.3c0,1.4,1.1,2.5,2.5,2.5h2.1v-5
			l-3.2,1.1L9.8,13.1z"/>
	</g>
	<path class="st0" d="M36.3,8.8l-3.7,2.5V6.1c0-0.6-0.5-1.1-1.1-1.1h0c-0.6,0-1.1,0.5-1.1,1.1v6.8v2.7v1.6c0,0.6,0.5,1.1,1.1,1.1h0
		c0.6,0,1.1-0.5,1.1-1.1V14l3.7-2.5v5.7c0,0.6,0.5,1.1,1.1,1.1h0c0.6,0,1.1-0.5,1.1-1.1V10V9.8c0-1.1-1.2-1.7-2.1-1.1L36.3,8.8z"/>
	<path class="st0" d="M72.6,9.2H71V7.3c0-0.6-0.5-1.1-1.1-1.1c-0.6,0-1.1,0.5-1.1,1.1v1.9h-1.6c-0.6,0-1,0.5-1,1c0,0.6,0.5,1,1,1
		h1.6v5.9c0,0.6,0.5,1.1,1.1,1.1c0.6,0,1.1-0.5,1.1-1.1v-5.9h1.6c0.6,0,1-0.5,1-1C73.6,9.7,73.1,9.2,72.6,9.2z"/>
	<path class="st0" d="M65,13.3L65,13.3c0,0.6-0.5,1-1,1h-3.2c-0.6,0-1-0.5-1-1v0c0-0.6,0.5-1,1-1h3.2C64.5,12.2,65,12.7,65,13.3z"/>
	<path class="st0" d="M44.7,8.8c-2.6,0-4.6,2.2-4.6,4.8s2.1,4.8,4.6,4.8s4.6-2.2,4.6-4.8S47.2,8.8,44.7,8.8z M44.7,16.4
		c-1.4,0-2.6-1.2-2.6-2.7s1.2-2.7,2.6-2.7s2.6,1.2,2.6,2.7S46.1,16.4,44.7,16.4z"/>
	<path class="st0" d="M96.6,6.8v3c-0.6-0.4-1.4-0.6-2.1-0.6c-2.4,0-4.4,2.1-4.4,4.7c0,2.6,2,4.7,4.4,4.7c0.8,0,1.4-0.2,2.1-1
		c0,0,0.4,0.7,1.3,0.7c0.5,0,1-0.4,1-1V6.8c0-0.6-0.5-1.1-1.1-1.1l0,0C97.1,5.7,96.6,6.2,96.6,6.8z M94.6,16.4
		c-1.5,0-2.7-1.2-2.7-2.6c0-1.4,1.2-2.6,2.7-2.6c0.8,0,1.5,0.3,2,0.9v3.4C96.1,16.1,95.4,16.4,94.6,16.4z"/>
	<path class="st0" d="M107.6,14.7c0.5,0,1-0.4,1-1c0,0,0,0,0,0c0-2.7-2.1-4.5-4.2-4.5c-2.1,0-4.3,1.8-4.3,4.5s2.1,4.8,4.6,4.8
		c1,0,2-0.2,3.1-1.1c0.4-0.3,0.4-0.9,0.1-1.2l0,0c-0.3-0.4-0.8-0.4-1.3-0.3c-0.7,0.3-1.4,0.5-2,0.5c-1.1,0-2.1-0.7-2.4-1.8h3.3
		H107.6z M102.2,13c0.3-1.2,1.2-2,2.2-2c1,0,1.8,0.9,2.1,2H102.2z"/>
	<path class="st0" d="M55.5,16.4c-1.4,0-2.6-1.2-2.6-2.7s1.2-2.7,2.6-2.7c0.6,0,1.1,0.2,1.6,0.6c0.4,0.3,0.9,0.3,1.3,0.1v0
		c0.5-0.4,0.6-1.2,0.1-1.6c-0.8-0.7-1.8-1.1-2.9-1.1c-2.6,0-4.6,2.2-4.6,4.8s2.1,4.8,4.6,4.8c1.1,0,2.1-0.4,2.9-1.1
		c0.5-0.4,0.5-1.2-0.1-1.6v0c-0.4-0.3-0.9-0.3-1.3,0.1C56.7,16.2,56.1,16.4,55.5,16.4z"/>
	<path class="st0" d="M86.6,9.4c-0.4-0.2-0.9-0.3-1.4-0.3c-1.6,0-2.5,0.3-3.2,0.8c-0.5,0.3-0.5,0.8-0.3,1.2l0.1,0.2
		c0.1,0.2,0.7,0.5,1.3,0.2c0.5-0.2,0.9-0.2,1.6-0.2c1.5,0,1.8,0.6,1.8,1.5v0v0c0,0-1.4,0-2.7,0c-1.3,0-2.7,1.2-2.7,2.7
		s1.1,2.9,3,2.9c1.1,0,1.9-0.5,2.4-0.8c0,0,0.4,0.7,1.2,0.7c0.6,0,1.1-0.5,1.1-1.1v-4.5C88.8,11.6,88.1,10.1,86.6,9.4z M86.6,15.8
		c0,0-0.6,0.8-2,0.8s-1.6-0.5-1.6-1c0-0.5,0.4-1.1,1.8-1.1c0.8,0,1.5,0,1.9,0v0.7V15.8z"/>
	<path class="st0" d="M78.7,9.4c-0.7,0.1-1.3,0.6-1.6,0.9v0c0-0.6-0.5-1-1-1h-0.2c-0.6,0-1,0.5-1,1v7c0,0.6,0.5,1,1,1H76
		c0.6,0,1-0.5,1-1v-5.1c0.3-0.3,0.9-0.9,1.4-0.9c0.8,0,1.6-0.1,1.6-0.9C80.2,9.6,79.6,9.3,78.7,9.4z"/>
</g>
</svg>
