<?xml version="1.0" encoding="UTF-8"?><svg xmlns="http://www.w3.org/2000/svg" viewBox="0 0 32 32"><defs><style>.c{fill:none;}.d{fill:#00ac4a;}.e{fill:#fb0;}.f{fill:#ff2929;}.g{fill:#2c85ff;}</style></defs><g id="a"/><g id="b"><g><rect class="c" width="32" height="32"/><g><path class="e" d="M10.19,16.11c0-.77,.14-1.5,.39-2.18l-3.28-2.58c-.76,1.43-1.19,3.06-1.19,4.76,0,1.59,.38,3.1,1.05,4.43l3.33-2.53c-.19-.59-.29-1.23-.29-1.89Z"/><path class="f" d="M16.29,9.84c1.5,0,2.83,.58,3.83,1.54l2.72-2.77c-1.69-1.66-3.83-2.62-6.83-2.62-3.76,0-7.02,2.2-8.7,5.35l3.28,2.58c.88-2.39,3.13-4.09,5.71-4.09Z"/><path class="d" d="M16.29,22.27c-2.67,0-5-1.76-5.8-4.26l-3.33,2.53c1.62,3.24,4.97,5.46,8.84,5.46,2.56,0,4.9-.98,6.66-2.58l-2.94-2.31c-.94,.73-2.12,1.15-3.43,1.15Z"/><path class="g" d="M25.7,14.06h-9.51v3.8h5.64c-.35,1.34-1.09,2.47-2.11,3.25l2.94,2.31c1.58-1.44,2.69-3.37,3.08-5.56,.1-.57,.15-1.15,.15-1.75,0-.7-.07-1.39-.19-2.05Z"/></g></g></g></svg>