<?xml version="1.0" encoding="utf-8"?>
<!-- Generator: Adobe Illustrator 26.2.1, SVG Export Plug-In . SVG Version: 6.00 Build 0)  -->
<svg version="1.1" id="Layer_1" xmlns="http://www.w3.org/2000/svg" xmlns:xlink="http://www.w3.org/1999/xlink" x="0px" y="0px"
	 viewBox="0 0 32 32" style="enable-background:new 0 0 32 32;" xml:space="preserve">
<style type="text/css">
	.st0{fill:#047F92;}
</style>
<g>
	<path class="st0" d="M22.1,19.4c2.7-2.7,2.7-7.2,0-9.9s-7.2-2.7-9.9,0c-2.2,2.2-2.6,5.6-1.2,8.3l-3.4,3.4c-0.8,0.8-0.8,2,0,2.8
		c0.8,0.8,2,0.8,2.8,0l3.4-3.4C16.5,22,19.9,21.7,22.1,19.4z M13.6,18c-2-2-2-5.1,0-7.1s5.1-2,7.1,0c2,2,2,5.1,0,7.1
		S15.6,20,13.6,18z"/>
</g>
</svg>
