<?xml version="1.0" encoding="utf-8"?>
<!-- Generator: Adobe Illustrator 26.2.1, SVG Export Plug-In . SVG Version: 6.00 Build 0)  -->
<svg version="1.1" id="a" xmlns="http://www.w3.org/2000/svg" xmlns:xlink="http://www.w3.org/1999/xlink" x="0px" y="0px"
	 viewBox="0 0 40 40" style="enable-background:new 0 0 40 40;" xml:space="preserve">
<style type="text/css">
	.st0{fill:#FFFFFF;}
</style>
<path class="st0" d="M31,8.9H9c-2,0-3.7,1.6-3.7,3.7v14.8c0,2,1.6,3.7,3.7,3.7H31c2,0,3.7-1.6,3.7-3.7V12.6C34.6,10.6,33,8.9,31,8.9
	z M33,20h-8.9c-0.6,0-1.2,0.3-1.3,0.9c-0.4,1.1-1.4,1.9-2.7,1.9s-2.3-0.8-2.7-1.9c-0.2-0.5-0.7-0.9-1.3-0.9H7.2v-1.7
	c0-1.3,1-2.3,2.3-2.3h21.2c1.3,0,2.3,1,2.3,2.3L33,20L33,20z M33,14.5H7.2v-1.7c0-1.3,1-2.3,2.3-2.3h21.2c1.3,0,2.3,1,2.3,2.3
	L33,14.5L33,14.5z"/>
</svg>
