<?xml version="1.0" encoding="utf-8"?>
<!-- Generator: Adobe Illustrator 26.2.1, SVG Export Plug-In . SVG Version: 6.00 Build 0)  -->
<svg version="1.1" id="a" xmlns="http://www.w3.org/2000/svg" xmlns:xlink="http://www.w3.org/1999/xlink" x="0px" y="0px"
	 viewBox="0 0 40 40" style="enable-background:new 0 0 40 40;" xml:space="preserve">
<style type="text/css">
	.st0{fill:none;}
	.st1{fill:#047F92;}
</style>
<g>
	<rect x="0" transform="matrix(6.123234e-17 -1 1 6.123234e-17 0 40)" class="st0" width="40" height="40"/>
	<g>
		<path class="st1" d="M20,12.5c-4.1,0-7.5,3.4-7.5,7.5c0,4.1,3.4,7.5,7.5,7.5s7.5-3.4,7.5-7.5C27.5,15.9,24.1,12.5,20,12.5z
			 M24.4,18.5l-4.7,4.7c-0.3,0.3-0.6,0.4-1,0.4c-0.4,0-0.7-0.1-0.9-0.4L15.6,21c-0.5-0.5-0.5-1.4,0-1.9c0.5-0.5,1.4-0.5,1.9,0
			l1.4,1.4l3.8-3.8c0.5-0.5,1.4-0.5,1.9,0C24.9,17.2,24.9,18,24.4,18.5z"/>
	</g>
</g>
</svg>
