<?xml version="1.0" encoding="utf-8"?>
<!-- Generator: Adobe Illustrator 27.0.1, SVG Export Plug-In . SVG Version: 6.00 Build 0)  -->
<svg version="1.1" id="a" xmlns="http://www.w3.org/2000/svg" xmlns:xlink="http://www.w3.org/1999/xlink" x="0px" y="0px"
	 viewBox="0 0 40 40" style="enable-background:new 0 0 40 40;" xml:space="preserve">
<style type="text/css">
	.st0{fill:#FFFFFF;}
</style>
<g>
	<path class="st0" d="M4,20c0-8.8,7.2-16,16-16s16,7.2,16,16s-7.2,16-16,16S4,28.8,4,20z M6.9,20c0,7.2,5.9,13.1,13.1,13.1
		S33.1,27.2,33.1,20S27.2,6.9,20,6.9S6.9,12.8,6.9,20z"/>
	<g>
		<path class="st0" d="M24.9,19.1c0,0,1.7-0.8,1.7-3s-2.4-3.6-4.4-3.6c-0.1,0-0.3,0-0.6,0V9.2h-1.9v3.3c-0.5,0-1,0-1.6,0V9.2h-1.9
			v3.3c-2,0-3.8,0-3.8,0v2.3h1.4c0.5,0,1,0.4,1,1V24c0,0.5-0.4,1-1,1h-1.4v2.6c0,0,1.6,0,3.8,0v3.2H18v-3.2c0.5,0,1,0,1.6,0v3.2h1.9
			v-3.2h0.1c4.5,0,6-2.1,6-4.7C27.7,19.9,24.9,19.1,24.9,19.1z M18,14.7c0,0,1.2,0,2.3,0c1.5,0,2.5,0.9,2.5,1.9s-0.9,2-2.3,2
			c-0.5,0-1.8,0-2.5,0.1V14.7z M21,25c-1.3,0-2.9,0-2.9,0v-4.3c0.8,0,2.1,0,3,0c1.3,0,2.6,0.9,2.6,2.1C23.7,24,22.7,25,21,25z"/>
	</g>
</g>
</svg>
