<?xml version="1.0" encoding="utf-8"?>
<!-- Generator: Adobe Illustrator 26.2.1, SVG Export Plug-In . SVG Version: 6.00 Build 0)  -->
<svg version="1.1" id="a" xmlns="http://www.w3.org/2000/svg" xmlns:xlink="http://www.w3.org/1999/xlink" x="0px" y="0px"
	 viewBox="0 0 40 40" style="enable-background:new 0 0 40 40;" xml:space="preserve">
<style type="text/css">
	.st0{fill:#FFFFFF;}
</style>
<path class="st0" d="M30.2,10.3H9.8c-2,0-3.6,1.6-3.6,3.6v12.2c0,2,1.6,3.6,3.6,3.6h20.5c2,0,3.6-1.6,3.6-3.6V13.9
	C33.8,11.9,32.2,10.3,30.2,10.3z M25.3,18.6l6.4-5.3c0,0.1,0.1,0.3,0.1,0.5V26l0,0L25.3,18.6z M30,12.3l-8.3,6.8
	c-1,0.8-2.4,0.8-3.5,0l-8.6-6.8c0,0,0,0,0.1,0H30z M8.2,26.2C8.2,26.2,8.2,26.1,8.2,26.2V13.9c0-0.1,0-0.2,0.1-0.3l6.6,5.1L8.2,26.2
	z M9.8,27.7c-0.1,0-0.2,0-0.2,0l6.8-7.8l0.8,0.6c0.8,0.7,1.8,1,2.9,1s2.1-0.3,3-0.9l0.8-0.7l6.8,7.7c-0.1,0-0.2,0.1-0.3,0.1
	C30.2,27.7,9.8,27.7,9.8,27.7z"/>
</svg>
