<?xml version="1.0" encoding="utf-8"?>
<!-- Generator: Adobe Illustrator 26.2.0, SVG Export Plug-In . SVG Version: 6.00 Build 0)  -->
<svg version="1.1" id="a" xmlns="http://www.w3.org/2000/svg" xmlns:xlink="http://www.w3.org/1999/xlink" x="0px" y="0px"
	 viewBox="0 0 16 16" style="enable-background:new 0 0 16 16;" xml:space="preserve">
<style type="text/css">
	.st0{fill:#FFFFFF;}
</style>
<path class="st0" d="M12.2,0.4H3.1L0,3.3v8.5c0,2.1,1.7,3.8,3.8,3.8H16V4.1C16,2.1,14.3,0.4,12.2,0.4z M15.4,15.1H3.8
	c-1.8,0-3.2-1.4-3.2-3.2V3.6l2.8-2.6h8.9c1.8,0,3.2,1.4,3.2,3.2C15.4,4.1,15.4,15.1,15.4,15.1z"/>
<path class="st0" d="M10.4,5.6L6.2,9.3L9.8,8v3.5c0,0.9,0.7,1.6,1.6,1.6h1.3V6.6C12.7,5.4,11.3,4.8,10.4,5.6z"/>
<path class="st0" d="M6.2,8.7V3.6c0-0.4-0.3-0.7-0.7-0.7c-0.4,0-0.7,0.1-1,0.4L3.3,4.4v7.1c0,0.9,0.7,1.6,1.6,1.6h1.3V9.9l-2,0.7
	L6.2,8.7L6.2,8.7z"/>
</svg>
