<?xml version="1.0" encoding="utf-8"?>
<!-- Generator: Adobe Illustrator 27.0.1, SVG Export Plug-In . SVG Version: 6.00 Build 0)  -->
<svg version="1.1" id="a" xmlns="http://www.w3.org/2000/svg" xmlns:xlink="http://www.w3.org/1999/xlink" x="0px" y="0px"
	 viewBox="0 0 40 40" style="enable-background:new 0 0 40 40;" xml:space="preserve">
<style type="text/css">
	.st0{fill:#FFFFFF;}
</style>
<g>
	<path class="st0" d="M24.6,21.1c-0.3-0.5-0.7-1-1.2-1.4s-1.2-0.7-1.9-1.1c-0.7-0.3-1.2-0.6-1.6-0.8c-0.4-0.2-0.7-0.4-0.9-0.7
		c-0.2-0.2-0.3-0.5-0.3-0.8c0-0.4,0.1-0.7,0.4-0.9s0.7-0.4,1.3-0.4c0.5,0,1.1,0.1,1.7,0.2c0.6,0.2,1.2,0.4,1.9,0.7l1.1-2.8
		c-0.7-0.3-1.4-0.6-2.2-0.7c-0.6-0.2-1.2-0.2-1.9-0.3V9.2h-1.9v3.2c-1,0.2-1.8,0.5-2.5,1c-1,0.7-1.4,1.8-1.4,3.2
		c0,0.9,0.2,1.6,0.5,2.2c0.3,0.6,0.8,1,1.3,1.4s1.1,0.7,1.7,0.9c0.9,0.4,1.6,0.8,2.1,1.1c0.5,0.3,0.7,0.7,0.7,1.2
		c0,0.4-0.1,0.7-0.4,1c-0.3,0.2-0.8,0.4-1.5,0.4s-1.5-0.1-2.3-0.4c-0.8-0.2-1.6-0.5-2.3-0.9v3.2c0.7,0.3,1.3,0.5,2,0.7
		c0.6,0.1,1.3,0.2,2.1,0.2v3.2H21v-3.4c0.6-0.1,1.1-0.3,1.5-0.5c0.8-0.4,1.5-0.9,1.9-1.6S25,23.8,25,23C25,22.3,24.9,21.6,24.6,21.1
		z"/>
	<path class="st0" d="M20,36c-8.8,0-16-7.2-16-16S11.2,4,20,4s16,7.2,16,16S28.8,36,20,36z M20,6.9C12.8,6.9,6.9,12.8,6.9,20
		S12.8,33.1,20,33.1S33.1,27.2,33.1,20S27.2,6.9,20,6.9z"/>
</g>
</svg>
