<?xml version="1.0" encoding="utf-8"?>
<!-- Generator: Adobe Illustrator 26.3.1, SVG Export Plug-In . SVG Version: 6.00 Build 0)  -->
<svg version="1.1" id="a" xmlns="http://www.w3.org/2000/svg" xmlns:xlink="http://www.w3.org/1999/xlink" x="0px" y="0px"
	 viewBox="0 0 40 40" style="enable-background:new 0 0 40 40;" xml:space="preserve">
<style type="text/css">
	.st0{fill:#06AFC9;}
</style>
<path class="st0" d="M20,6.5c-7.4,0-13.5,6-13.5,13.5s6,13.5,13.5,13.5s13.5-6,13.5-13.5S27.4,6.5,20,6.5z M28.6,15.1H26
	c-0.3-1.4-0.7-2.7-1.2-3.8C26.4,12.2,27.7,13.5,28.6,15.1z M30,20c0,1-0.2,2-0.5,2.9h-3.1c0.1-0.9,0.2-1.9,0.2-2.9s-0.1-2-0.2-2.9
	h3.1C29.8,18,30,19,30,20z M10,20c0-1,0.2-2,0.5-2.9h3.1c-0.1,0.9-0.2,1.9-0.2,2.9s0.1,2,0.2,2.9h-3.1C10.2,22,10,21,10,20z
	 M15.5,20c0-1,0.1-2,0.2-2.9H19v5.8h-3.3C15.5,22,15.5,21.1,15.5,20z M21,10.2c0.2,0,0.5,0,0.7,0.1c0.9,1,1.7,2.7,2.3,4.9h-3
	L21,10.2L21,10.2z M19,10.2v5h-3c0.5-2.2,1.3-3.9,2.3-4.9C18.5,10.2,18.8,10.2,19,10.2z M19,24.9v5c-0.2,0-0.5,0-0.7-0.1
	c-0.9-1-1.7-2.7-2.3-4.9H19z M21,29.9v-5h3c-0.5,2.2-1.3,3.9-2.3,4.9C21.5,29.9,21.2,29.9,21,29.9z M21,22.9v-5.8h3.3
	c0.1,0.9,0.2,1.9,0.2,2.9s-0.1,2-0.2,2.9L21,22.9L21,22.9z M15.2,11.3c-0.5,1.1-0.9,2.4-1.2,3.8h-2.6C12.3,13.5,13.6,12.2,15.2,11.3
	z M11.4,24.9H14c0.3,1.4,0.7,2.7,1.2,3.8C13.6,27.8,12.3,26.5,11.4,24.9z M24.8,28.7c0.5-1.1,0.9-2.4,1.2-3.8h2.6
	C27.7,26.5,26.4,27.8,24.8,28.7z"/>
</svg>
