<?xml version="1.0" encoding="UTF-8"?><svg id="Layer_1" xmlns="http://www.w3.org/2000/svg" viewBox="0 0 150 150"><defs><style>.cls-1{fill:none;}.cls-2{fill:#de2318;}</style></defs><rect class="cls-1" x="0" y="0" width="150" height="150" rx="75" ry="75"/><g><polygon points="36.66 53.7 36.66 69.98 19.25 69.98 19.25 53.7 9.97 53.7 9.97 96.3 19.25 96.3 19.25 77.93 36.66 77.93 36.66 96.3 45.94 96.3 45.94 53.7 36.66 53.7"/><polygon points="82.31 61.66 82.31 53.7 62.03 53.7 57.39 53.7 52.76 53.7 52.76 96.3 62.03 96.3 62.03 78.98 79.74 78.98 79.74 71.8 62.03 71.8 62.03 61.66 82.31 61.66"/><polygon class="cls-2" points="130.75 62.72 117.79 75.31 95.54 53.7 95.54 66.2 111.39 81.6 117.79 87.81 124.18 81.6 130.75 75.21 130.75 96.3 140.03 96.3 140.03 66.2 140.03 53.7 130.75 62.72"/><polygon points="117.75 81.53 89.1 53.7 89.1 66.2 89.1 96.3 98.38 96.3 98.38 75.21 117.75 94.03 117.75 81.53"/></g></svg>