<?xml version="1.0" encoding="UTF-8"?><svg id="Layer_1" xmlns="http://www.w3.org/2000/svg" viewBox="0 0 150 150"><defs><style>.cls-1{fill:none;}</style></defs><rect class="cls-1" x="0" y="0" width="150" height="150" rx="75" ry="75"/><g><polygon points="75.82 91.8 62.93 74.8 74.87 59.04 62.78 59.04 52.55 72.54 52.55 59.04 41.44 59.04 41.44 91.8 52.55 91.8 52.55 77.06 63.73 91.8 75.82 91.8"/><polygon points="106.67 67.27 106.67 59.04 89.06 59.04 80.26 59.04 77.95 59.04 77.95 91.8 89.06 91.8 89.06 80.4 103.7 80.4 103.7 72.67 89.06 72.67 89.06 67.27 106.67 67.27"/><path d="M37.68,72.89H20.75v6.35h6.67c-1.4,2.13-3.78,3.53-6.47,3.53-4.31,0-7.81-3.58-7.81-8s3.5-8,7.81-8c2.37,0,4.5,1.09,5.93,2.81h10.1c-2.2-6.86-8.63-11.83-16.22-11.83-9.41,0-17.03,7.62-17.03,17.03s7.62,17.03,17.03,17.03c3.61,0,6.96-1.13,9.72-3.05v3.05h7.31v-17.03c0-.63-.04-1.26-.11-1.88Z"/><g><path d="M146.28,47.22s-9.22,12.12-20.02,27.46c-10.81,15.34-19.11,28.1-19.11,28.1,0,0,9.22-12.12,20.02-27.46,10.81-15.34,19.11-28.1,19.11-28.1Z"/><path d="M139.91,50.62s-7.58,9.74-16.33,22.18c-8.76,12.43-15.38,22.85-15.38,22.85,0,0,7.58-9.74,16.33-22.18,8.76-12.43,15.38-22.85,15.38-22.85Z"/><path d="M113.51,99.39s7.58-9.74,16.33-22.18c8.76-12.43,15.38-22.85,15.38-22.85,0,0-7.58,9.74-16.33,22.18-8.76,12.43-15.38,22.85-15.38,22.85Z"/><polygon points="125.63 65.66 120.82 59.04 109.27 59.04 119.83 73.57 125.63 65.66"/><polygon points="128.07 84.91 133.08 91.8 144.63 91.8 133.87 77 128.07 84.91"/></g></g></svg>