<?xml version="1.0" encoding="UTF-8"?><svg id="Layer_1" xmlns="http://www.w3.org/2000/svg" viewBox="0 0 150 150"><defs><style>.cls-1{fill:none;}.cls-2{fill:#f4393a;}</style></defs><path class="cls-2" d="M106.98,51.23c-17.52-23.57-46.04-32.04-63.71-18.91-17.66,13.13-17.78,42.88-.25,66.45,17.52,23.57,46.04,32.04,63.7,18.91,17.66-13.13,17.78-42.88,.25-66.45Zm-64.68,5.02h13.59l13.76,23.84-6.79,11.77-20.56-35.61Zm30.14,52.33l-6.79-11.77,13.76-23.84h13.59s-20.56,35.61-20.56,35.61Zm23.36-40.56h-27.53s-6.8-11.77-6.8-11.77h41.12s-6.79,11.77-6.79,11.77Z"/><rect class="cls-1" x="0" y="0" width="150" height="150" rx="75" ry="75"/></svg>