<?xml version="1.0" encoding="UTF-8"?><svg id="Layer_1" xmlns="http://www.w3.org/2000/svg" viewBox="0 0 150 150"><defs><style>.cls-1{fill:none;}.cls-2{fill:#f9d24d;}.cls-3{fill:#00bbf1;}.cls-4{fill:#00b267;}</style></defs><rect class="cls-1" x="0" y="0" width="150" height="150" rx="75" ry="75"/><g><path class="cls-2" d="M74.93,123.46c-1.74,0-3.4-.69-4.63-1.92L28.84,80.08c-2.56-2.56-2.56-6.7,0-9.25,2.56-2.56,6.7-2.56,9.25,0l36.83,36.83,25.89-25.89c2.56-2.56,6.7-2.56,9.25,0,2.56,2.56,2.56,6.7,0,9.25l-30.52,30.52c-1.23,1.23-2.89,1.92-4.63,1.92Z"/><path class="cls-3" d="M121.16,39.71c2.56-2.56,2.56-6.7,0-9.25-2.56-2.56-6.7-2.56-9.25,0l-16.28,16.28,9.25,9.25,16.28-16.28Z"/><g><path class="cls-4" d="M121.02,72.14l-16.14-16.14-9.25,9.25,16.14,16.14c1.28,1.28,2.95,1.92,4.63,1.92s3.35-.64,4.63-1.92c2.56-2.56,2.56-6.7,0-9.25Z"/><path class="cls-4" d="M79.56,30.68c-1.23-1.23-2.89-1.92-4.63-1.92s-3.4,.69-4.63,1.92l-30.52,30.52c-2.56,2.56-2.56,6.7,0,9.25,2.56,2.56,6.7,2.56,9.25,0l25.89-25.89,11.43,11.43,9.25-9.25-16.06-16.06Z"/><path class="cls-4" d="M70.08,72.28c-2.56,2.56-2.56,6.7,0,9.25,1.28,1.28,2.95,1.92,4.63,1.92s3.35-.64,4.63-1.92l16.28-16.28-9.25-9.25-16.28,16.28Z"/><rect class="cls-4" x="89.08" y="49.45" width="13.09" height="13.09" transform="translate(-11.59 84.01) rotate(-45)"/></g></g></svg>