<?xml version="1.0" encoding="utf-8"?>
<!-- Generator: Adobe Illustrator 27.9.0, SVG Export Plug-In . SVG Version: 6.00 Build 0)  -->
<svg version="1.1" id="Layer_1" xmlns="http://www.w3.org/2000/svg" xmlns:xlink="http://www.w3.org/1999/xlink" x="0px" y="0px"
	 viewBox="0 0 150 150" style="enable-background:new 0 0 150 150;" xml:space="preserve">
<style type="text/css">
	.st0{fill:none;}
	.st1{fill:#FF2906;}
	.st2{fill:url(#SVGID_1_);}
</style>
<path class="st0" d="M75,0L75,0c41.4,0,75,33.6,75,75l0,0c0,41.4-33.6,75-75,75l0,0c-41.4,0-75-33.6-75-75l0,0C0,33.6,33.6,0,75,0z"
	/>
<g>
	<g>
		<path d="M9.4,58.9v6.4h5.3V68H9.4v11.5c0,2.5,0.7,3.9,2.8,3.9c1,0,1.6-0.1,2.1-0.3l0.2,2.8c-0.7,0.3-1.8,0.5-3.3,0.5
			c-1.7,0-3.1-0.6-4-1.5c-1-1.1-1.4-2.9-1.4-5.3V68H2.7v-2.8h3.1V60L9.4,58.9z"/>
		<path d="M19.4,76.3c0.1,5.1,3.3,7.3,7,7.3c2.7,0,4.7-1.2,6-2.3v3.1c-1.4,1.1-3.6,2.2-6.5,2.2c-6.3,0-10.1-4.3-10.1-10.6
			s3.6-11.2,9.6-11.2c6.7,0,8.5,6,8.5,9.8c0,0.8,0,1.3-0.1,1.8H19.4z M30.3,73.5c0-2.4-1-6.1-5.2-6.1c-3.8,0-5.4,3.5-5.7,6.1H30.3z"
			/>
		<path d="M71.9,85.8h-3.3V83c-1.1,1.6-3.5,3.5-6.5,3.5c-4.2,0-6.3-3-6.3-6c0-5.7,4.9-7.4,12.7-7.7v-0.4c0-1.7-0.1-4.8-4.3-4.8
			c-2,0-4,0.5-6.4,2.3v-3.3c2.1-1.2,4-1.7,6.6-1.7c6.3,0,7.4,3,7.4,8.5V85.8z M68.5,75.4c-4.2,0.4-9.2,0.6-9.2,4.7
			c0,2.5,1.8,3.6,3.7,3.6c2.7,0,5.5-3.3,5.5-4.7V75.4z"/>
		<path d="M75,81.6c2,1.4,3.8,2,5.8,2c2.9,0,4.5-1.3,4.5-3.1c0-1.8-1.4-2.8-4.3-3.8c-4-1.4-5.9-3.4-5.9-5.9c0-3.4,2.9-6.1,7.7-6.1
			c2.2,0,4.2,0.6,5.4,1.3V69c-0.9-0.5-3.4-1.6-5.5-1.6c-2.4,0-4,1.3-4,2.9c0,1.7,1.6,2.5,4.5,3.6c3.8,1.3,5.8,3.2,5.8,6.3
			c0,3.7-3.1,6.3-8.2,6.3c-2.4,0-4.2-0.6-5.7-1.5V81.6z"/>
	</g>
	<g>
		<path class="st1" d="M49.2,79.5c3.4-1.7,4.7-4.6,4.7-7.3c0-3.2-3-7.7-8.6-7.7c-5.4,0-9.2,3.2-9.2,8.2c0,2.7,1.2,4.7,4.6,6.7
			c1.1,0.6,2.3,1.2,5,1.8c3,0.3,5.4,3,5.4,6.2c0,3.5-2.7,6.3-6,6.3c-3.2,0-5.8-2.5-6-5.8h-4.3c0,0.2,0,0.3,0,0.5
			c0,4.6,3.8,8.4,10.2,8.4c5.8,0,10.4-3.6,10.4-9.1C55.3,84,53,81,49.2,79.5z M45.1,78c-2.7,0-5-2.3-5-5.1c0-2.8,2.2-5.1,5-5.1
			c2.7,0,5,2.3,5,5.1C50.1,75.7,47.9,78,45.1,78z"/>
		<linearGradient id="SVGID_1_" gradientUnits="userSpaceOnUse" x1="41.3971" y1="81.3112" x2="39.3186" y2="85.6415">
			<stop  offset="0" style="stop-color:#8D1302"/>
			<stop  offset="1" style="stop-color:#FF2906"/>
		</linearGradient>
		<path class="st2" d="M39.1,87.5c0-3.5,2.7-6.3,6-6.3c0.2,0,0.4,0,0.7,0c-2.7-0.6-3.9-1.3-5-1.8c-3.6,1.6-5.8,4.8-6,8.5h4.3
			C39.1,87.8,39.1,87.6,39.1,87.5z"/>
	</g>
	<g>
		<path d="M91.8,53.2v1.3c1.6,0.1,2.4,0.5,2.8,1c0.5,0.5,0.4,1.7,0.4,3.4v20.6c0,2.1,0.1,3.4-0.3,4c-0.4,0.5-1.2,0.9-2.9,1.1v1.3
			h4.4V53.2H91.8z"/>
		<path d="M96.8,53.2v32.7h7.7v-1.3c-1.7-0.1-3.1-0.5-3.6-1c-0.5-0.5-0.7-1.7-0.7-3.5v-8.8h5.3c1.9,0,3,0.3,3.6,0.9
			c0.5,0.6,0.9,1.1,1.3,3h1v-9.6h-1c-0.3,1.9-0.7,2.2-1.2,2.8c-0.5,0.6-1.7,0.9-3.6,0.9h-5.3V56.7c0-0.7,0.1-1.1,0.2-1.3
			c0.2-0.2,0.5-0.3,1.1-0.3h6c2.4,0,3.5,0.5,4.5,1.6c0.7,0.7,1.4,2.2,1.7,4.4h1.6l-0.2-7.9H96.8z"/>
		<path d="M117.5,53.2v1.4c1.4,0.1,2.8,0.6,3.6,1.4c0.9,0.8,1.9,2.4,4,5.9l4.9,7.9l-6.9,9.4c-1.8,2.5-2.7,3.4-3.3,4
			c-0.6,0.6-1.9,1.1-3.1,1.3v1.3h8.9v-1.2c-0.5,0-0.8,0-1.3-0.2c-0.7-0.4-0.9-0.6-0.9-1.3c0-0.4,0.4-1,0.8-1.8
			c0.3-0.5,0.8-1.3,1.6-2.4l5.2-7.3c3,4.9,4.8,7.9,5.5,9.1c0.7,1.2,0.9,1.7,0.9,2.2c0,0.6-0.3,1.2-0.8,1.4c-0.5,0.2-0.9,0.3-1.7,0.3
			v1.2h8L123,53.2H117.5z"/>
		<path d="M147.3,84.6c-1.2-0.2-2.5-0.8-3.1-1.2c-0.6-0.4-0.9-0.6-1.8-2.1l-8-13.2l6-9.4c1.5-2.1,2.3-3.1,3.4-3.7
			c0.7-0.4,1.3-0.5,2.5-0.6v-1.3h-8.9v1.3c1,0,1.4,0,1.7,0.3c0.4,0.3,0.5,0.4,0.5,1.2c0,0.3-0.1,0.5-0.2,0.9
			c-0.3,0.6-0.8,1.4-1.5,2.4l-4.8,6.7l-4.6-7.4c-0.5-0.8-1.1-2-1.1-2.2c0-0.7,0.2-1.1,0.6-1.6c0.4-0.4,0.9-0.5,1.6-0.6v-0.9h-5.9
			l20.1,32.7h3.5V84.6z"/>
	</g>
</g>
</svg>
