<?xml version="1.0" encoding="UTF-8"?><svg id="Layer_1" xmlns="http://www.w3.org/2000/svg" viewBox="0 0 150 150"><defs><style>.cls-1{fill:none;}.cls-2{fill:#ff5b60;}</style></defs><rect class="cls-1" x="0" y="0" width="150" height="150" rx="75" ry="75"/><g><path class="cls-2" d="M60.45,58.89h-7.38c-1.05,0-1.9,.85-1.9,1.9v1.8c-3.56-2.69-7.95-4.27-12.71-4.27-13.44,0-21.46,9.84-21.46,21.98s8.91,21.98,21.46,21.98c4.76,0,9.15-1.59,12.71-4.27v1.25c0,1.05,.85,1.9,1.9,1.9h7.38c1.05,0,1.9-.85,1.9-1.9V60.79c0-1.05-.85-1.9-1.9-1.9Zm-20.32,33.38c-7.21,0-12.33-5.36-12.33-11.97s4.6-11.97,12.33-11.97c4.84,0,9.02,2.71,11.04,6.65v10.65c-2.02,3.94-6.2,6.65-11.04,6.65Z"/><rect class="cls-2" x="116.83" y="58.89" width="11.18" height="42.25" rx="1.54" ry="1.54"/><path class="cls-2" d="M79.28,75.55l6.93-8.82-5.31-6.76c-.54-.68-1.36-1.08-2.23-1.08h-10.52c-.79,0-1.24,.91-.75,1.54l11.88,15.12Z"/><path class="cls-2" d="M111.29,58.89h-10.52c-.87,0-1.69,.4-2.23,1.08l-8.82,11.23-6.93,8.82-15.39,19.59c-.49,.62-.05,1.54,.75,1.54h10.52c.87,0,1.69-.4,2.23-1.08l8.82-11.23,8.82,11.23c.54,.68,1.36,1.08,2.23,1.08h10.52c.79,0,1.24-.91,.75-1.54l-15.39-19.59,15.39-19.59c.49-.62,.05-1.54-.75-1.54Z"/><path class="cls-2" d="M126.66,42.73h-1.12c-.69,0-1.34,.32-1.77,.86l-6.74,8.57c-.14,.18-.22,.4-.22,.63v.11c0,.56,.45,1.01,1.01,1.01h8.83c.74,0,1.34-.6,1.34-1.34v-8.49c0-.74-.6-1.34-1.34-1.34Z"/></g></svg>