<?xml version="1.0" encoding="UTF-8"?><svg id="Layer_1" xmlns="http://www.w3.org/2000/svg" viewBox="0 0 150 150"><defs><style>.cls-1{fill:none;}.cls-2{fill:#00c8fd;}.cls-3{fill:#19385b;}</style></defs><rect class="cls-1" x="0" y="0" width="150" height="150" rx="75" ry="75"/><g><path class="cls-2" d="M72.02,80.87c-7.8,6.91-15.5,12.73-22.57,17.54-6.52-7.26-10.48-16.82-10.48-27.3,0-15.15,8.28-28.38,20.6-35.52-18.4,6.21-31.59,22.96-31.59,42.66,0,10.38,3.67,19.94,9.83,27.58,2.88,3.56,6.29,6.71,10.14,9.32,2.88-2.05,6.77-4.97,11.27-8.72,8.2-6.84,18.4-16.44,28.07-28.56,21.04-26.38,21.04-51.35,21.04-51.35,0,0-7.77,29.07-36.3,54.35Z"/><path class="cls-3" d="M121.66,71.76c-.52,21.93-16.38,40.42-40.95,40.5,6.69-8.39,14.33-19.29,20.7-31.88,12.88-25.44,7.91-52.07,7.91-52.07,0,0-1,28.83-24.23,59.74-6.29,8.37-12.71,15.63-18.71,21.76-3.6,3.68-7.05,6.95-10.22,9.81,4.68,1.98,9.75,3.26,15.08,3.7,1.36,.11,2.74,.17,4.13,.17,28.56,0,46.66-19.24,46.66-45.97,0-1.95-.13-3.87-.37-5.75Z"/></g></svg>