<?xml version="1.0" encoding="UTF-8"?><svg id="Layer_1" xmlns="http://www.w3.org/2000/svg" viewBox="0 0 150 150"><defs><style>.cls-1{fill:none;}.cls-2{fill:#ef281a;}</style></defs><path class="cls-2" d="M128.13,107.12s-13.14-16.74-30.02-30.75c-1.33-1.1-2.69-2.16-4.06-3.19,.3-.24,.59-.47,.88-.71,17.9-14.58,29.3-29.59,29.3-29.59l-33.78,6.35s-4.87,5.75-14.39,12.72c-7.97-4.21-13.91-6.51-13.91-6.51l-37.24,7.94s16.65,4.84,30.61,10.75c-17.05,8.15-35.66,13.5-35.66,13.5l38.68,8.08s7.57-3.55,17.7-9.92c10.25,7.4,18.82,15.55,18.82,15.55l33.06,5.77Z"/><rect class="cls-1" x="0" y="0" width="150" height="150" rx="75" ry="75"/></svg>