<?xml version="1.0" encoding="UTF-8"?><svg id="Layer_1" xmlns="http://www.w3.org/2000/svg" viewBox="0 0 150 150"><defs><style>.cls-1{fill:none;}.cls-2{fill:#ff2b06;}</style></defs><g><path class="cls-2" d="M51.8,38.94c.48,0,.95,0,1.42,0,19.69,0,39.38,0,59.06-.02,1.06,0,1.58,.29,2.05,1.28,5.43,11.32,10.92,22.6,16.42,33.88,.41,.83,.37,1.38-.26,2.09-9.94,11.22-19.85,22.46-29.75,33.72-.74,.84-1.5,1.28-2.66,1.19-4.59-.34-9.19-.47-13.76-.96-1.88-.2-3.75-1-5.52-1.77-1.84-.8-2.36-2.51-1.64-4.42,.71-1.88,2.07-2.47,4.53-2.11,2.86,.42,5.73,.96,8.61,1.06,4.49,.16,7.44-1.95,9.05-6.14,.28-.74,.71-1,1.39-1.25,.52-.19,1.13-.64,1.31-1.12,.55-1.48,1.02-3,1.32-4.55,.49-2.45-.36-4.1-2.59-5.32-1.77-.97-3.63-1.81-5.37-2.82-1.12-.65-2.12-1.51-3.25-2.34,1.76-2.38,2.88-4.87,3.24-7.67,.5-3.88,.18-7.73-.39-11.58-.34-2.27-.69-4.54-.9-6.82-.13-1.41,0-2.84,.01-4.26,0-.4,0-.81,0-1.21-.14-.03-.29-.07-.43-.1-.41,1.19-.87,2.36-1.23,3.57-1.55,5.27-2.25,10.68-2.41,16.16,0,.24,.04,.49-.03,.71-.11,.34-.3,.65-.46,.98-.29-.22-.64-.4-.85-.68-3.57-4.66-8.1-7.92-13.9-9.19-3.43-.75-6.84-.3-9.71,1.72-1.66,1.17-3.13,1.14-4.86,.7-3.32-.84-6.1-2.59-8.16-5.24-.81-1.04-1.04-2.63-1.26-4.01-.66-4.28-.33-8.52,.73-12.71,.06-.22,.15-.44,.26-.76Z"/><path class="cls-2" d="M18.98,111c1.18-5.13,2.34-10.13,3.49-15.14,2.6-11.33,5.19-22.67,7.8-34,1.69-7.36,3.4-14.72,5.15-22.07,.08-.33,.55-.81,.84-.82,4.21-.05,8.42-.04,12.76-.04-.72,2.2-1.46,4.26-2.07,6.37-.91,3.12-1.57,6.3-1.48,9.58,.06,2.05,.48,3.97,1.74,5.69,.42,.58,.48,1.48,.58,2.24,.4,3.23,1.85,5.72,4.79,7.34,1.13,.63,2.09,1.57,3.16,2.32,.69,.48,.91,1.08,.91,1.91,0,5.3,.17,10.61-.74,15.87-.46,2.67-1.16,5.26-2.59,7.59-2.06,3.37-5.6,5.18-9.42,4.39-3.56-.74-6.78,.03-9.95,1.41-3.52,1.53-6.86,3.43-9.61,6.09-1.66,1.6-3.4,1.26-5.35,1.24Z"/></g><rect class="cls-1" x="0" y="0" width="150" height="150" rx="75" ry="75"/></svg>