<?xml version="1.0" encoding="UTF-8"?><svg id="Layer_1" xmlns="http://www.w3.org/2000/svg" viewBox="0 0 150 150"><defs><style>.cls-1{fill:none;}.cls-2{fill:#ec3527;}</style></defs><g><rect class="cls-2" x="30.46" y="38.1" width="14.52" height="73.58"/><path class="cls-2" d="M89.05,69.47v13.56h16.7v11.75c-4.26,3.27-9.76,4.94-15.78,4.94-13.49,0-24.42-11.07-24.42-24.72s10.93-24.72,24.42-24.72c7.26,0,13.77,3.21,18.24,8.3l10.4-10.15c-7.06-7.43-17.05-12.06-28.12-12.06-21.39,0-38.74,17.29-38.74,38.63s17.34,38.63,38.74,38.63c11.57,0,21.95-3.83,29.05-11.33v-32.82h-30.49Z"/></g><rect class="cls-1" x="0" y="0" width="150" height="150" rx="75" ry="75"/></svg>