<?xml version="1.0" encoding="UTF-8"?><svg id="Layer_1" xmlns="http://www.w3.org/2000/svg" viewBox="0 0 150 150"><defs><style>.cls-1{fill:none;}.cls-2{fill:#1b1653;}</style></defs><rect class="cls-1" x="0" y="0" width="150" height="150" rx="75" ry="75"/><g><path class="cls-2" d="M123.28,60.62c.93,7.15,.16,14.63-2.57,21.85-8.87,23.45-35.07,35.27-58.52,26.4l1.26-3.32c-16.63-6.29-25.01-24.87-18.72-41.5,2.39-6.32,6.56-11.45,11.71-15.03-8.85,3.95-16.17,11.3-19.87,21.07-7.36,19.47,2.45,41.22,21.92,48.58l-1.46,3.87c26.11,9.88,55.29-3.29,65.16-29.4,4.1-10.85,4.23-22.22,1.1-32.52Z"/><path class="cls-2" d="M87.81,41.13l-1.26,3.32c16.63,6.29,25.01,24.87,18.72,41.5-2.39,6.32-6.56,11.45-11.71,15.03,8.85-3.95,16.17-11.3,19.87-21.07,7.36-19.47-2.45-41.22-21.92-48.58l1.46-3.87c-26.11-9.88-55.29,3.29-65.16,29.4-4.1,10.85-4.23,22.22-1.1,32.52-.93-7.15-.16-14.63,2.57-21.85,8.87-23.45,35.07-35.27,58.52-26.4Z"/></g></svg>