<?xml version="1.0" encoding="UTF-8"?><svg id="Layer_1" xmlns="http://www.w3.org/2000/svg" viewBox="0 0 150 150"><defs><style>.cls-1{fill:none;}.cls-2{fill:#00e950;}</style></defs><rect class="cls-1" x="0" y="0" width="150" height="150" rx="75" ry="75"/><g><rect x="23.7" y="66.05" width="9.95" height="14.93"/><rect x="38.82" y="48.77" width="9.95" height="32.21"/><rect x="53.93" y="58.79" width="9.95" height="22.19"/><path d="M30.92,94.66l4.77,14.15h.06l4.51-14.15h6.32v20.58h-4.2v-14.58h-.06l-5,14.58h-3.46l-5-14.44h-.06v14.44h-4.2v-20.58h6.31Z"/><path d="M48.89,104.92c.06-.96,.29-1.76,.7-2.39,.41-.63,.93-1.14,1.57-1.53s1.35-.66,2.14-.82c.79-.16,1.59-.25,2.39-.25,.73,0,1.46,.05,2.21,.16s1.43,.31,2.04,.62,1.12,.73,1.51,1.28c.39,.55,.59,1.27,.59,2.18v11.07h-3.68s.02-1.19,0-1.44c-.63,.67-1.51,1.14-2.36,1.41-.86,.27-1.73,.4-2.63,.4-.69,0-1.33-.09-1.93-.26s-1.12-.44-1.57-.81c-.45-.36-.8-.83-1.05-1.38-.25-.56-.38-1.22-.38-1.99,0-.84,.14-1.54,.43-2.09,.29-.55,.66-.99,1.12-1.31,.46-.33,.98-.57,1.57-.74,.59-.16,1.18-.29,1.78-.39,.6-.09,1.05-.11,1.7-.17,.65-.06,1.23-.15,1.73-.26,.5-.12,.9-.29,1.2-.51,.29-.22,.43-.55,.41-.98,0-.45-.08-.8-.24-1.07-.16-.26-.37-.47-.63-.61-.26-.15-.57-.24-.91-.29-.35-.05-.72-.07-1.12-.07-.88,0-1.39,.17-1.83,.52-.45,.34-.71,.92-.78,1.73h-3.97Zm9.47,3.1c-.18,.16-.4,.29-.66,.38-.27,.09-.55,.16-.85,.23-.3,.06-.62,.11-.96,.15-.33,.04-.67,.09-1,.15-.32,.06-.62,.14-.93,.24s-.57,.24-.79,.41c-.23,.17-.41,.39-.54,.65-.14,.26-.21,.6-.21,1,0,.38,.07,.71,.21,.97s.32,.47,.56,.62c.24,.15,.51,.26,.82,.32,.31,.06,.64,.09,.97,.09,.82,0,1.46-.14,1.91-.42,.45-.28,.78-.62,1-1.01s.35-.79,.4-1.19,.07-.73,.07-.97v-1.6Z"/><path d="M78.11,94.66v11.04l5.11-5.36h4.8l-5.57,5.48,6.2,9.42h-4.91l-4.06-6.66-1.57,1.53v5.13h-4.06v-20.58h4.06Z"/><path d="M92.51,111.66c.61,.6,1.49,.89,2.63,.89,.82,0,1.52-.21,2.11-.62s.95-.85,1.09-1.31h3.57c-.57,1.79-1.45,3.07-2.63,3.83-1.18,.77-2.61,1.15-4.29,1.15-1.16,0-2.21-.19-3.14-.56s-1.72-.91-2.37-1.6c-.65-.69-1.15-1.52-1.5-2.48-.35-.96-.53-2.02-.53-3.17s.18-2.15,.54-3.11c.36-.96,.88-1.79,1.54-2.49,.67-.7,1.46-1.25,2.39-1.66,.92-.4,1.95-.61,3.07-.61,1.26,0,2.35,.25,3.29,.74s1.7,1.15,2.3,1.97c.6,.83,1.03,1.77,1.3,2.83,.27,1.06,.36,2.16,.28,3.31h-10.66c.06,1.33,.39,2.29,1,2.88Zm4.59-7.84c-.49-.54-1.22-.81-2.21-.81-.65,0-1.18,.11-1.61,.33-.43,.22-.77,.49-1.03,.82-.26,.33-.44,.67-.54,1.04-.1,.37-.17,.69-.19,.98h6.6c-.19-1.04-.53-1.82-1.01-2.36Z"/><path d="M111.7,100.59v3.7h-4.12v6.16c0,.69,.25,1.38,1.08,1.38h2.95v3.54h-2.2c-2.95,0-5.89-1.59-5.89-4.74v-15.66h4.06v5.61h4.12Z"/><path d="M116.74,111.54c.18,.32,.41,.58,.7,.78s.61,.35,.99,.45c.37,.1,.76,.15,1.16,.15,.29,0,.59-.04,.9-.1,.32-.07,.6-.17,.86-.32,.26-.14,.47-.34,.64-.57,.17-.24,.26-.54,.26-.91,0-.61-.4-1.08-1.21-1.38-.81-.31-1.94-.61-3.39-.92-.59-.14-1.17-.29-1.73-.48s-1.06-.42-1.5-.72-.79-.67-1.06-1.12c-.27-.45-.4-1-.4-1.66,0-.96,.18-1.75,.56-2.36,.37-.62,.86-1.1,1.47-1.46,.61-.36,1.29-.61,2.06-.75,.76-.14,1.54-.22,2.34-.22s1.58,.08,2.33,.23c.75,.15,1.42,.41,2.01,.78,.59,.37,1.08,.85,1.47,1.46s.62,1.37,.7,2.29h-3.86c-.06-.79-.35-1.32-.89-1.6-.53-.28-1.16-.42-1.89-.42-.23,0-.48,.01-.74,.04-.27,.03-.51,.09-.73,.19s-.4,.23-.56,.42-.23,.43-.23,.74c0,.36,.13,.66,.4,.89,.27,.23,.62,.42,1.04,.56,.43,.14,.92,.27,1.47,.39s1.11,.24,1.69,.38c.59,.13,1.17,.3,1.73,.49s1.06,.45,1.5,.76,.79,.71,1.06,1.18c.27,.47,.4,1.05,.4,1.74,0,.98-.2,1.8-.59,2.47-.39,.66-.9,1.2-1.53,1.6s-1.35,.69-2.16,.85c-.81,.16-1.63,.25-2.47,.25s-1.7-.09-2.51-.26c-.82-.17-1.55-.46-2.19-.86-.64-.41-1.16-.94-1.57-1.6-.41-.66-.63-1.49-.67-2.49h3.86c0,.44,.09,.82,.27,1.14Z"/><g><rect class="cls-2" x="69.62" y="35.31" width="9.95" height="45.67"/><path class="cls-2" d="M114.57,47.67c-.6-.96-1.34-1.8-2.23-2.53s-1.9-1.29-3.03-1.7c-1.13-.41-2.31-.61-3.54-.61-2.25,0-4.17,.44-5.74,1.31-1.57,.88-2.85,2.05-3.82,3.52-.98,1.47-1.69,3.15-2.14,5.03-.45,1.88-.67,3.82-.67,5.83s.22,3.79,.67,5.6c.45,1.82,1.16,3.45,2.14,4.9,.98,1.45,2.25,2.62,3.82,3.49s3.48,1.31,5.74,1.31c3.06,0,5.45-.94,7.17-2.82,1.72-1.88,2.77-4.35,3.15-7.43h9.69c-.25,2.86-.92,5.44-1.98,7.75-1.06,2.3-2.46,4.27-4.21,5.89-1.74,1.63-3.78,2.86-6.12,3.72-2.34,.85-4.91,1.28-7.71,1.28-3.49,0-6.62-.61-9.4-1.83-2.78-1.21-5.13-2.89-7.04-5.02-1.91-2.14-3.38-4.64-4.4-7.52-1.02-2.88-1.53-5.99-1.53-9.32s.51-6.59,1.53-9.51c1.02-2.92,2.48-5.47,4.4-7.65,1.91-2.18,4.26-3.88,7.04-5.12,2.78-1.24,5.92-1.86,9.4-1.86,2.51,0,4.88,.36,7.11,1.09,2.23,.73,4.23,1.79,5.99,3.17s3.22,3.11,4.37,5.15,1.87,4.4,2.17,7.04h-9.69c-.17-1.15-.55-2.2-1.15-3.17Z"/></g><path d="M67.61,115.2h-3.95v-9.85c0-2.39,2.23-4.88,5.42-4.88h3.73v3.89h-3.51c-.8,0-1.69,.8-1.69,1.79v9.06Z"/></g></svg>