<?xml version="1.0" encoding="UTF-8"?><svg id="Layer_1" xmlns="http://www.w3.org/2000/svg" viewBox="0 0 150 150"><defs><style>.cls-1{fill:none;}.cls-2{fill:#ff2a05;}</style></defs><rect class="cls-1" x="0" y="0" width="150" height="150" rx="75" ry="75"/><g><path class="cls-2" d="M75,25.64c-27.26,0-49.36,22.1-49.36,49.36s22.1,49.36,49.36,49.36,49.36-22.1,49.36-49.36-22.1-49.36-49.36-49.36Zm-1.3,23.3c-.68-1.61-2.05-2-2.69-2.93-.64-.93-.64-1.66,.2-2.15,.83-.49,2.64,.68,4.5,2.98,1.81,2.24,1.47,7.04,1.47,7.04l10.28,4.03-20.68,2.25,7.47-6.28s.15-3.32-.54-4.94Zm-5.72,56.64l.68-22.97h-4.5l1.68-20.26,22.43-2.44-7.59,17.62,8.21-.2-20.92,28.25Z"/><polygon class="cls-2" points="69.36 63.26 68.13 63.41 66.7 80.74 70.65 80.64 70.52 89.75 71.91 89.75 72.06 79.21 68.19 79.31 69.36 63.26"/><polygon class="cls-2" points="70.42 97.41 71.8 97.43 71.89 91.22 70.5 91.22 70.42 97.41"/></g></svg>