<?xml version="1.0" encoding="UTF-8"?><svg id="Layer_1" xmlns="http://www.w3.org/2000/svg" viewBox="0 0 150 150"><defs><style>.cls-1{fill:none;}.cls-2{fill:#ff2b06;}</style></defs><rect class="cls-1" x="0" y="0" width="150" height="150" rx="75" ry="75"/><path class="cls-2" d="M126.4,81.41v-12.83h-9.02c-.48-3.2-1.32-6.29-2.47-9.22l7.81-4.51-6.41-11.11-7.82,4.51c-1.99-2.49-4.26-4.76-6.75-6.75l4.51-7.82-11.11-6.41-4.51,7.81c-2.93-1.15-6.02-1.98-9.22-2.47v-9.02h-12.83v9.02c-3.2,.48-6.29,1.32-9.22,2.47l-4.51-7.81-11.11,6.41,4.51,7.82c-2.49,1.99-4.76,4.26-6.75,6.75l-7.82-4.51-6.41,11.11,7.81,4.51c-1.15,2.93-1.98,6.02-2.47,9.22h-9.02v12.83h9.02c.48,3.2,1.32,6.29,2.47,9.22l-7.81,4.51,6.41,11.11,7.82-4.51c1.99,2.49,4.26,4.76,6.75,6.75l-4.51,7.82,11.11,6.41,4.51-7.81v-37.03l-11.26-6.44v-13.73l11.26,6.44,9.23,5.28v56.97h12.76v-56.97l9.23-5.28,11.26-6.44v13.73l-11.26,6.44v37.05s.03-.01,.04-.02l4.51,7.81,11.11-6.41-4.51-7.82c2.49-1.99,4.76-4.26,6.75-6.75l7.82,4.51,6.41-11.11-7.81-4.51c1.15-2.93,1.98-6.02,2.47-9.22h9.02Zm-51.42-18.83c-4.91,0-8.9-3.98-8.9-8.9s3.98-8.9,8.9-8.9,8.9,3.98,8.9,8.9-3.98,8.9-8.9,8.9Z"/></svg>