<?xml version="1.0" encoding="UTF-8"?><svg id="Layer_1" xmlns="http://www.w3.org/2000/svg" viewBox="0 0 150 150"><defs><style>.cls-1{fill:none;}.cls-2{fill:#00c658;}</style></defs><rect class="cls-1" x="0" y="0" width="150" height="150" rx="75" ry="75"/><g><path class="cls-2" d="M16.84,43.01H49.72v9.31H28.86v9.63h17.74v8.75H28.86v15.64h-12.03V43.01Z"/><path class="cls-2" d="M54.44,43.01h23.87c3.93,0,6.94,1.03,9.05,3.1,2.1,2.07,3.15,4.63,3.15,7.68,0,2.56-.75,5.06-2.25,6.89-1,1.22-2.46,2.79-4.39,3.5,2.93,.75,5.08,2.03,6.46,3.86,1.38,1.82,2.07,3.21,2.07,5.97,0,2.25-.49,4.27-1.47,6.06-.98,1.79-2.33,3.21-4.03,4.26-1.06,.65-2.65,1.12-4.78,1.42-2.84,.39-4.72,.59-5.64,.59h-22.04V43.01Zm11.43,16.99h7.65c2.13,0,3.61-.36,4.45-1.08,.83-.72,1.25-1.76,1.25-3.12,0-1.26-.42-2.25-1.25-2.96-.83-.71-2.29-1.06-4.36-1.06h-7.75v8.21Zm0,17.02h8.52c2.31,0,3.94-.37,4.88-1.12,.95-.75,1.42-1.75,1.42-3.01,0-1.17-.47-2.11-1.41-2.83-.94-.71-2.58-1.07-4.93-1.07h-8.49v8.03Z"/><path class="cls-2" d="M94.41,73.9l11.66-.89c1.33,3.45,5.59,5.55,8.11,5.55,1.88,0,4.82-.45,5.84-1.34,1.02-.9,1.53-1.94,1.53-3.12,0-5.1-10.57-3.49-20.03-6.8-3.12-1.09-6.22-5.51-6.22-11.4,0-2.23,1.11-5.27,2.38-7.25,1.27-1.98,3.18-3.54,5.73-4.67,2.55-1.13,6.05-1.7,10.49-1.7,5.45,0,9.61,1.03,12.47,3.09,2.86,2.06,4.56,5.33,5.11,9.83l-11.51,1.12c-.38-1.95-1.19-3.37-2.42-4.26-1.23-.89-2.93-1.33-5.1-1.33-1.78,0-3.13,.33-4.03,.99-.9,.66-1.36,1.46-1.36,2.41,0,3.9,4.21,4.47,6.92,4.96,6.71,1.26,14.26,2.79,17.19,6.75,1.32,1.79,2,5.25,2,7.62,0,6.15-2.64,9.11-6.63,11.4-3.96,2.26-8.42,2.53-12.55,2.53-7.25,0-12.28-1.72-15.07-4.56-2.79-2.84-3.58-4.75-4.5-8.92Z"/><rect class="cls-2" x="17.03" y="98.05" width="115.1" height="9.68"/></g></svg>