<?xml version="1.0" encoding="UTF-8"?><svg id="Layer_1" xmlns="http://www.w3.org/2000/svg" viewBox="0 0 150 150"><defs><style>.cls-1{fill:none;}.cls-2{fill:#00be72;}</style></defs><path class="cls-2" d="M118.21,75c0-.62-.02-1.22-.04-1.83h9.61l2.61-7.65h-12.97c-3.86-22.32-21.42-35.31-42.5-35.31-23.92,0-43.3,16.35-43.3,44.79s19.39,44.79,43.3,44.79c20.42,0,37.53-12.56,42.1-33.39h8.34l2.61-7.65h-9.88c.08-1.23,.14-2.47,.14-3.74Zm-43.3,32.13c-10.14,0-18.36-11.73-18.36-32.13,0-22.7,8.22-32.13,18.36-32.13,8.43,0,15.53,8.28,17.69,22.65h-11.95l-2.61,7.65h15.21c.02,.6,.02,1.21,.02,1.83,0,1.29-.03,2.53-.08,3.74h-14.98l-2.61,7.65h16.84c-2.34,14.41-9.3,20.74-17.53,20.74Z"/><rect class="cls-1" x="0" y="0" width="150" height="150" rx="75" ry="75"/></svg>