<?xml version="1.0" encoding="UTF-8"?><svg id="Layer_1" xmlns="http://www.w3.org/2000/svg" xmlns:xlink="http://www.w3.org/1999/xlink" viewBox="0 0 150 150"><defs><style>.cls-1{fill:none;}.cls-2{fill:#060119;}.cls-3{fill:url(#radial-gradient-3);}.cls-4{fill:url(#radial-gradient-4);}.cls-5{fill:url(#radial-gradient-2);}.cls-6{fill:url(#radial-gradient);}</style><radialGradient id="radial-gradient" cx="98.39" cy="77.61" fx="98.39" fy="77.61" r="50.26" gradientUnits="userSpaceOnUse"><stop offset="0" stop-color="#120337"/><stop offset="1" stop-color="#1a3b8f"/></radialGradient><radialGradient id="radial-gradient-2" cx="98.39" cy="77.61" fx="98.39" fy="77.61" r="50.26" xlink:href="#radial-gradient"/><radialGradient id="radial-gradient-3" cx="98.39" cy="77.61" fx="98.39" fy="77.61" r="50.26" gradientUnits="userSpaceOnUse"><stop offset="0" stop-color="#060119"/><stop offset="1" stop-color="#1a3b8f"/></radialGradient><radialGradient id="radial-gradient-4" cx="55.73" cy="71.23" fx="55.73" fy="71.23" r="53.41" gradientUnits="userSpaceOnUse"><stop offset="0" stop-color="#89c2fb"/><stop offset=".22" stop-color="#89c2fb"/><stop offset=".33" stop-color="#84bcf6"/><stop offset=".46" stop-color="#77abe8"/><stop offset=".62" stop-color="#618fd1"/><stop offset=".79" stop-color="#4368b2"/><stop offset=".97" stop-color="#1d378a"/><stop offset="1" stop-color="#183084"/></radialGradient></defs><rect class="cls-1" x="0" y="0" width="150" height="150" rx="75" ry="75"/><g><rect class="cls-2" x="24.7" y="24.7" width="100.6" height="100.6" rx="32.65" ry="32.65"/><g><g><path class="cls-6" d="M58.62,35.6c-2.54,.25-5.13,2.44-5.75,6.83-.03,.22-.03,.45-.03,.68,5.85,1.21,12.53,4.81,19.07,10.31,3.79-1.84,7.52-3.36,11.1-4.56-9.32-9.34-18.32-14.38-24.39-13.26Z"/><path class="cls-5" d="M62.93,94.41c-7.35,1.97-14.15,2.55-19.35,1.56-.18,2.88-.15,4.55,1.03,6.99,.9,1.86,2.96,2.96,5.56,3.55,5.34,.77,12.88-.45,21.3-3.44-2.87-2.54-5.75-5.44-8.54-8.66Z"/><path class="cls-3" d="M117.72,63.72c.06-2.55-1.81-5.39-6.09-6.53-.22-.06-.44-.08-.67-.11-1.65,4.88-5.14,10.17-10.08,15.28-2.13-3.76-4.65-7.61-7.51-11.44-.7-.93-1.4-1.83-2.1-2.72-3.34,1.08-6.83,2.44-10.4,4.09,1.34,1.55,2.66,3.18,3.94,4.89,3.03,4.04,5.65,8.27,7.82,12.48-2.89,2.2-6.04,4.31-9.42,6.26-2.64,1.52-5.34,2.89-8.03,4.1,2.78,2.95,5.59,5.57,8.34,7.81,1.62-.83,3.25-1.71,4.88-2.65,3.05-1.75,5.91-3.57,8.57-5.41,1.96,5.76,2.88,11.14,2.58,15.54,2.88-.17,4.54-.4,6.82-1.86,1.74-1.12,2.58-3.29,2.86-5.95,.09-4.02-1.06-9.11-3.29-14.75,7.75-6.95,12.13-13.78,11.8-19.03Z"/></g><path class="cls-4" d="M110.39,48.25c-5.39-3.71-15.56-3.35-27.39,.61-3.58,1.2-7.3,2.72-11.1,4.56-2.25,1.09-4.51,2.29-6.79,3.6-3.1,1.78-6.02,3.67-8.74,5.63-3.54-7.63-5.3-14.55-4.97-19.57,0-.11,.36-5.72,1.43-6.53,0,0-7.53,5.93-8.71,8.18-2.88,5.5-1.6,14.85,3.12,25.43-7.3,6.95-11.83,14.09-12.42,19.85-.1,1-.08,1.96,.07,2.88,.11,.68,.28,1.34,.54,1.96,.15,.36,.31,.71,.5,1.05,.25,.43,.55,.83,.87,1.21v.02s.08,.08,.08,.08c.41,.47,.86,.89,1.37,1.28l5.75,5.38h0c-.42-.42-.79-.88-1.08-1.39-.36-.62-.59-1.3-.73-2.03-.19-.96-.2-1.99-.02-3.09,.12-.74,.32-1.52,.6-2.31,1.45-4.22,5.04-9.16,10.23-14.15,1.59,2.56,3.35,5.15,5.28,7.72,1.52,2.02,3.07,3.95,4.66,5.78,2.79,3.22,5.67,6.12,8.54,8.66,8.46,7.47,16.92,11.78,23.21,11.66,1.01-.02,1.96-.16,2.85-.41,.66-.19,1.29-.44,1.88-.77,.34-.19,.67-.39,.98-.62,.4-.3,.76-.64,1.1-1.01h.02s.07-.09,.07-.09c.42-.46,.78-.97,1.11-1.52l4.65-6.36h0c-.36,.47-.78,.89-1.25,1.24-.58,.43-1.22,.75-1.92,.97-.93,.3-1.95,.43-3.06,.39-.75-.03-1.54-.14-2.37-.31-4.35-.93-9.66-3.89-15.22-8.41-2.75-2.24-5.56-4.86-8.34-7.81-2.71-2.87-5.39-6.05-7.97-9.5-1.81-2.42-3.48-4.85-5-7.27,3.04-2.21,6.35-4.37,9.89-6.41,2.95-1.69,5.89-3.21,8.79-4.55,3.57-1.65,7.07-3.01,10.4-4.09,7.94-2.56,14.97-3.47,19.89-2.54,.11,.02,5.64,1.04,6.31,2.21,0,0-4.98-8.19-7.08-9.63Z"/></g></g></svg>