<?xml version="1.0" encoding="utf-8"?>
<!-- Generator: Adobe Illustrator 27.9.0, SVG Export Plug-In . SVG Version: 6.00 Build 0)  -->
<svg version="1.1" id="Layer_1" xmlns="http://www.w3.org/2000/svg" xmlns:xlink="http://www.w3.org/1999/xlink" x="0px" y="0px"
	 viewBox="0 0 150 150" style="enable-background:new 0 0 150 150;" xml:space="preserve">
<style type="text/css">
	.st0{fill:none;}
	.st1{fill:#2EC378;}
	.st2{fill:#253F52;}
</style>
<path class="st0" d="M75,0L75,0c41.4,0,75,33.6,75,75l0,0c0,41.4-33.6,75-75,75l0,0c-41.4,0-75-33.6-75-75l0,0C0,33.6,33.6,0,75,0z"
	/>
<g>
	<polygon class="st1" points="50.9,53.4 29.1,53.4 29.1,97.6 50.9,79.3 	"/>
	<polygon class="st1" points="80.3,71.8 80.3,37.9 58.6,37.9 58.6,72.8 72,61.6 	"/>
	<polygon class="st2" points="80.2,107.3 80.1,107.1 66,91.6 29.1,113.7 29.1,128.5 109.8,128.5 109.8,81.5 	"/>
	<polygon class="st1" points="109.8,18.1 88.1,18.1 88.1,69.7 109.8,51 	"/>
	<polygon class="st1" points="140.9,39.6 116.2,44 120.2,48.6 81.9,81.6 71.3,68.6 13,117.7 67,85.2 80.4,100.3 128.8,58.7 
		133.4,64 	"/>
</g>
</svg>
