<?xml version="1.0" encoding="UTF-8"?><svg id="Layer_1" xmlns="http://www.w3.org/2000/svg" viewBox="0 0 150 150"><defs><style>.cls-1{fill:none;}.cls-2{fill:#f8605f;}</style></defs><rect class="cls-1" x="0" y="0" width="150" height="150" rx="75" ry="75"/><g><polygon class="cls-2" points="26.1 70.78 13.87 70.78 13.87 58.51 4.08 58.51 4.08 91.79 13.87 91.79 13.87 79.51 26.1 79.51 26.1 91.79 35.88 91.79 35.88 58.51 26.1 58.51 26.1 70.78"/><polygon class="cls-2" points="68.96 68.18 75.13 58.51 62.79 58.51 68.96 68.18"/><polygon class="cls-2" points="53.91 58.51 43.48 58.51 54.09 75.15 43.48 91.79 53.91 91.79 59.31 83.33 64.52 75.15 59.31 66.97 53.91 58.51"/><polygon class="cls-2" points="136.02 58.51 135.94 58.51 135.94 58.64 129.24 69.16 122.53 58.64 122.53 58.51 122.45 58.51 112.55 58.21 112.74 58.51 112.74 91.79 122.53 91.79 122.53 73.86 124.38 76.77 129.24 84.38 134.09 76.77 135.94 73.86 135.94 91.79 145.73 91.79 145.73 58.51 145.92 58.21 136.02 58.51"/><path class="cls-2" d="M92.28,83.13c-3.01,0-5.62-1.65-7-4.1-.66-1.16-1.03-2.5-1.03-3.93s.39-2.82,1.07-4c1.39-2.41,3.98-4.03,6.96-4.03s5.62,1.65,7,4.1l7.46-4.19c-2.84-5.05-8.25-8.46-14.46-8.46-9.16,0-16.59,7.43-16.59,16.59s7.43,16.59,16.59,16.59c6.24,0,11.67-3.44,14.5-8.53l-7.46-4.19c-1.37,2.48-4.01,4.16-7.04,4.16Z"/></g></svg>