<?xml version="1.0" encoding="UTF-8"?><svg id="Layer_1" xmlns="http://www.w3.org/2000/svg" viewBox="0 0 150 150"><defs><style>.cls-1{fill:none;}</style></defs><rect class="cls-1" x="0" y="0" width="150" height="150" rx="75" ry="75"/><g><path d="M67.19,93.86c.04-.37,.09-.75,.13-1.1,.09-.08,.15-.17,.24-.19,3.91-.96,4.01-.96,4.04-4.95,.05-8.89,.01-17.77-.03-26.66-.01-2.47-.66-3.15-3.16-3.44-.84-.1-1.43-.2-1.02-1.28,.16-.03,.34-.09,.53-.09,6.6,.1,13.2,.12,19.8,.32,4.52,.14,8.24,3.01,9.43,6.97,2.14,7.13-1.82,13.29-9.24,14.17-2.54,.3-5.12,.28-7.68,.34-1.01,.02-1.42,.32-1.39,1.4,.09,2.98,.01,5.96,.11,8.93,.1,3.09,.62,3.68,3.69,4.13,1.03,.15,1.31,.53,1.11,1.45h-16.55Zm11.66-18.09c3.75,.11,7.22-.26,9.6-3.22,2.31-2.87,2.46-6.29,1.28-9.68-1.09-3.12-4.53-4.82-8.67-4.55-1.51,.1-2.2,.81-2.2,2.34,0,4.3,0,8.6,0,12.89,0,.69,0,1.39,0,2.22Z"/><path d="M8.42,93.86c.04-.37,.08-.75,.12-1.1,.09-.08,.16-.17,.24-.19,3.95-.97,4.02-.97,4.04-5.1,.04-8.75,.01-17.5-.03-26.25-.01-2.76-.37-3.1-3.03-3.75-.5-.12-.94-.52-1.41-.8,.07-.14,.14-.28,.2-.42h29.82v8.38c-.55-.48-1.18-.76-1.33-1.2-1.11-3.36-3.64-4.52-6.92-4.55-2.75-.03-5.5,0-8.26-.04-1.21-.02-1.75,.58-1.76,1.71-.02,3.78-.02,7.57-.05,11.35,0,.77,.34,.99,1.04,.95,2.8-.15,5.6-.29,8.39-.42,2.26-.1,3.59-1.27,4.06-3.46,.05-.23,.06-.53,.21-.66,.26-.21,.61-.4,.93-.41,.15,0,.43,.46,.43,.71-.01,3.83-.05,7.66-.12,11.49,0,.29-.32,.58-.49,.88-.29-.24-.77-.45-.84-.74-.75-3.4-2.81-4.75-6.75-4.69-2.09,.03-4.18-.05-6.27-.08-.13,0-.27,.08-.5,.15-.04,.34-.12,.69-.11,1.05,.06,4.16,.09,8.32,.21,12.48,.05,1.91,.79,2.65,2.71,3.03,.69,.14,1.39,.24,2.15,.38,.04,.45,.08,.86,.11,1.28H8.42Z"/><path d="M38.37,93.86c-.12-1.03,.31-1.53,1.32-1.95,.96-.4,1.85-1.17,2.52-1.99,2.09-2.57,4.09-5.21,6.05-7.89,.27-.37,.3-1.19,.07-1.6-1.93-3.42-3.88-6.83-5.99-10.14-.76-1.19-2.01-2.07-3-3.12-.26-.28-.49-.68-.51-1.04-.01-.16,.5-.52,.78-.52,3.99-.03,7.97-.02,11.96-.02,.39,.94,.13,1.35-.78,1.59-1.49,.4-1.77,.98-1.05,2.4,.98,1.93,2.11,3.79,3.34,5.97,1.63-2.14,3.3-3.98,4.14-6.35,.41-1.15-.4-1.78-1.43-2.02-.85-.2-1.3-.54-.92-1.59,2.9,0,5.83-.01,8.77,.02,.25,0,.71,.34,.69,.47-.05,.37-.21,.89-.49,1.03-4.46,2.12-6.23,6.59-8.95,10.21-.22,.29-.16,1.03,.05,1.38,2.33,3.9,4.7,7.77,7.12,11.62,.41,.65,1.04,1.37,1.73,1.6,1.05,.36,1.38,.98,1.41,1.94h-13.41c-.1-1.03,.2-1.65,1.39-1.81,.44-.06,1.2-1.05,1.1-1.24-1.26-2.39-2.65-4.72-4.22-7.44-1.66,2.51-3.11,4.6-4.45,6.75-.58,.94-.33,1.89,.88,1.98,1.25,.09,1.42,.85,1.59,1.76h-9.7Z"/><path d="M128.52,93.86c-.17-.08-.33-.21-.51-.24-6.3-.94-9.44-6.38-9.96-12.15-.29-3.19,.07-6.31,1.48-9.26,2.02-4.21,6.23-6.91,10.4-6.62,5.31,.37,9.17,3.34,10.8,8.4,.39,1.2,.61,2.46,.91,3.69v4.26c-.12,.45-.26,.89-.35,1.34-.82,4.28-2.93,7.64-6.99,9.56-.93,.44-1.95,.69-2.93,1.02h-2.85Zm-4.33-14.34c.43,2.87,.67,5.84,1.38,8.7,.59,2.39,2.3,3.46,4.33,3.39,2.11-.08,3.54-1.16,4.22-3.56,.46-1.62,.72-3.32,.85-5,.31-3.82,.38-7.67-.75-11.38-.36-1.18-1.17-2.46-2.16-3.18-2.49-1.81-5.73-.49-6.6,2.81-.69,2.62-.85,5.37-1.26,8.21Z"/><path d="M99.71,93.86c-.26-1,.19-1.44,1.1-1.91,.67-.35,1.45-1.29,1.46-1.98,.13-6.28,.15-12.57,.02-18.85-.01-.59-1.22-1.16-1.88-1.73-.25-.22-.71-.44-.69-.64,.02-.33,.28-.86,.55-.93,2.6-.71,5.22-1.35,7.84-2,.12-.03,.27,.06,.6,.14v4.21c1.33-1.38,2.42-2.73,3.73-3.8,1.22-1,2.75-1.07,4.12-.18,1.31,.85,1.76,2.21,1.59,3.71-.27,2.5-2.56,3.42-4.75,1.95-1.98-1.33-3.04-1.14-4.26,.84-.25,.41-.37,.97-.37,1.46-.02,4.68-.02,9.36,0,14.04,.02,2.69,.4,3.11,2.91,4.15,.42,.18,.57,1,.85,1.52h-12.84Z"/></g></svg>