<?xml version="1.0" encoding="UTF-8"?><svg id="Layer_1" xmlns="http://www.w3.org/2000/svg" viewBox="0 0 150 150"><defs><style>.cls-1{fill:none;}.cls-2{fill:#db3833;}</style></defs><rect class="cls-1" x="0" y="0" width="150" height="150" rx="75" ry="75"/><g><path class="cls-2" d="M52.73,82.56v-18.56c0-1.15,.62-2.22,1.61-2.8l19.04-10.99c1-.58,2.23-.58,3.23,0l16.07,9.28,23.85-13.77c-.25-.18-.51-.35-.78-.5l-35.35-20.41c-3.35-1.93-7.47-1.93-10.82,0l-35.35,20.41c-3.35,1.93-5.41,5.5-5.41,9.37v40.82c0,.31,.02,.62,.04,.92l23.85-13.77Z"/><path class="cls-2" d="M97.27,67.44v18.56c0,1.15-.62,2.22-1.61,2.8l-19.04,10.99c-1,.58-2.23,.58-3.23,0l-16.07-9.28-23.85,13.77c.25,.18,.51,.35,.78,.5l35.35,20.41c3.35,1.93,7.47,1.93,10.82,0l35.35-20.41c3.35-1.93,5.41-5.5,5.41-9.37V54.59c0-.31-.02-.62-.04-.92l-23.85,13.77Z"/></g></svg>