<?xml version="1.0" encoding="UTF-8"?><svg id="Layer_1" xmlns="http://www.w3.org/2000/svg" viewBox="0 0 150 150"><defs><style>.cls-1{fill:none;}.cls-2{fill:#00e2fe;}</style></defs><g><path class="cls-2" d="M57.4,56.73h-1.42v40.94h7.4c1.41,0,2.55-1.14,2.55-2.55v-31.96c0-2.77-3.82-6.42-8.53-6.42Z"/><path class="cls-2" d="M72.01,56.73h-1.42v40.94h7.4c1.41,0,2.55-1.14,2.55-2.55v-31.96c0-2.77-3.82-6.42-8.53-6.42Z"/><path class="cls-2" d="M95.41,52.21h-1.42c-4.71,0-8.53,4.03-8.53,6.42v39.04h7.4c1.41,0,2.55-1.14,2.55-2.55V52.21Z"/><path class="cls-2" d="M33.56,89.67c-4.95,.36-10.14-2.62-10.32-15.39,.18-11.34,5.37-14.32,10.32-13.95,4.81,.35,15.43,2.42,15.43,2.42l.06-8.21s-8.69-2.71-15.37-2.71-19.58,2.93-20.25,21.67h-.03c0,.28,.01,.54,.02,.81,0,.24-.02,.46-.02,.7h.03c.59,21.6,13.73,23.18,20.25,23.18s15.37-2.71,15.37-2.71l-.06-8.21s-10.62,2.06-15.43,2.42Z"/><path class="cls-2" d="M121.1,89.67c-4.95,.36-10.14-2.62-10.32-15.39,.18-11.34,5.37-14.32,10.32-13.95,4.81,.35,15.43,2.42,15.43,2.42l.06-8.21s-8.69-2.71-15.37-2.71-19.58,2.93-20.25,21.67h-.03c0,.28,.01,.54,.02,.81,0,.24-.02,.46-.02,.7h.03c.59,21.6,13.73,23.18,20.25,23.18s15.37-2.71,15.37-2.71l-.06-8.21s-10.62,2.06-15.43,2.42Z"/></g><rect class="cls-1" x="0" y="0" width="150" height="150" rx="75" ry="75"/></svg>