<?xml version="1.0" encoding="UTF-8"?><svg id="Layer_1" xmlns="http://www.w3.org/2000/svg" viewBox="0 0 150 150"><defs><style>.cls-1{fill:none;}.cls-2{fill:#e7ae48;}.cls-3{fill:#ff763f;}.cls-4{fill:#b3c241;}.cls-5{fill:#231f20;}.cls-6{fill:#40bf52;}</style></defs><rect class="cls-1" x="0" y="0" width="150" height="150" rx="75" ry="75"/><g><g><path class="cls-5" d="M41.7,115.52h-10.43c-2.81,0-5.09-2.28-5.09-5.09,0-1.37,.54-2.65,1.51-3.62s2.24-1.48,3.63-1.47l8.4,.09v-.58c0-1.97-1.6-3.57-3.57-3.57h-8.98v-1.98h8.98c3.06,0,5.55,2.49,5.55,5.55v10.67Zm-10.44-8.19c-.82,0-1.6,.32-2.18,.9-.59,.59-.92,1.37-.92,2.21,0,1.71,1.39,3.1,3.1,3.1h8.45v-6.12l-8.42-.09h-.03Z"/><path class="cls-5" d="M97.39,115.52h-10.43c-2.81,0-5.09-2.28-5.09-5.09,0-1.37,.54-2.65,1.51-3.62s2.24-1.48,3.63-1.47l8.4,.09v-.58c0-1.97-1.6-3.57-3.57-3.57h-8.98v-1.98h8.98c3.06,0,5.55,2.49,5.55,5.55v10.67Zm-10.44-8.19c-.82,0-1.6,.32-2.18,.9-.59,.59-.92,1.37-.92,2.21,0,1.71,1.39,3.1,3.1,3.1h8.45v-6.12l-8.42-.09h-.03Z"/><path class="cls-5" d="M62.21,126.53h-1.98v-27.23h9.46c3.3,0,5.99,2.69,5.99,5.99v4.24c0,3.3-2.69,5.99-5.99,5.99h-7.48v11.01Zm0-13h7.48c2.21,0,4.01-1.8,4.01-4.01v-4.24c0-2.21-1.8-4.01-4.01-4.01h-7.48v12.25Z"/><rect class="cls-5" x="50.32" y="88.57" width="1.98" height="26.95"/><path class="cls-5" d="M107.86,115.52h-1.98v-10.67c0-3.06,2.49-5.55,5.55-5.55h2.56v1.98h-2.56c-1.97,0-3.57,1.6-3.57,3.57v10.67Z"/><rect class="cls-5" x="121.09" y="99.3" width="1.98" height="16.22"/><circle class="cls-5" cx="122.08" cy="94.15" r="1.74"/></g><g><path class="cls-3" d="M121.8,53.51h-1.53c-1.25,0-2.43-.49-3.32-1.38l-11.79-11.79c-.9-.9-2.09-1.39-3.37-1.39h0c-1.27,0-2.47,.49-3.37,1.39l-2.56,2.56-7.17-7.17c-.9-.9-2.1-1.4-3.37-1.4s-2.47,.5-3.37,1.4l-2.7,2.7-9.98-9.98-14.59,14.59-3.26-3.26c-.9-.9-2.1-1.4-3.37-1.4s-2.47,.5-3.37,1.4l-12.27,12.27c-.89,.89-2.07,1.38-3.32,1.38h-.9c-.82,0-1.49,.67-1.49,1.49s.67,1.49,1.49,1.49h.9c2.05,0,3.97-.8,5.42-2.25l12.27-12.27c.32-.33,.78-.51,1.26-.51h0c.48,0,.94,.19,1.27,.51l5.37,5.37,14.59-14.59,9.98,9.98,4.81-4.81c.65-.65,1.88-.65,2.53,0l9.27,9.27,4.67-4.67c.34-.34,.8-.51,1.27-.51s.92,.17,1.26,.51l11.79,11.79c1.45,1.45,3.38,2.25,5.42,2.25h1.53c.82,0,1.49-.67,1.49-1.49s-.67-1.49-1.49-1.49Z"/><path class="cls-2" d="M121.8,63.39h-1.53c-1.25,0-2.43-.49-3.32-1.38l-11.79-11.79c-.9-.9-2.09-1.39-3.37-1.39h0c-1.27,0-2.47,.49-3.37,1.39l-2.56,2.56-7.17-7.17c-.9-.9-2.1-1.4-3.37-1.4s-2.47,.5-3.37,1.4l-2.7,2.7-9.98-9.98-14.59,14.59-3.26-3.26c-.9-.9-2.1-1.4-3.37-1.4s-2.47,.5-3.37,1.4l-12.27,12.27c-.89,.89-2.07,1.38-3.32,1.38h-.9c-.82,0-1.49,.67-1.49,1.49s.67,1.49,1.49,1.49h.9c2.05,0,3.97-.8,5.42-2.25l12.27-12.27c.32-.33,.78-.51,1.26-.51h0c.48,0,.94,.19,1.27,.51l5.37,5.37,14.59-14.59,9.98,9.98,4.81-4.81c.65-.65,1.88-.65,2.53,0l9.27,9.27,4.67-4.67c.34-.34,.8-.51,1.27-.51s.92,.17,1.26,.51l11.79,11.79c1.45,1.45,3.38,2.25,5.42,2.25h1.53c.82,0,1.49-.67,1.49-1.49s-.67-1.49-1.49-1.49Z"/><path class="cls-4" d="M121.8,73.26h-1.53c-1.25,0-2.43-.49-3.32-1.38l-11.79-11.79c-.9-.9-2.09-1.39-3.37-1.39h0c-1.27,0-2.47,.49-3.37,1.39l-2.56,2.56-7.17-7.17c-.9-.9-2.1-1.4-3.37-1.4s-2.47,.5-3.37,1.4l-2.7,2.7-9.98-9.98-14.59,14.59-3.26-3.26c-.9-.9-2.1-1.4-3.37-1.4s-2.47,.5-3.37,1.4l-12.27,12.27c-.89,.89-2.07,1.38-3.32,1.38h-.9c-.82,0-1.49,.67-1.49,1.49s.67,1.49,1.49,1.49h.9c2.05,0,3.97-.8,5.42-2.25l12.27-12.27c.32-.33,.78-.51,1.26-.51h0c.48,0,.94,.19,1.27,.51l5.37,5.37,14.59-14.59,9.98,9.98,4.81-4.81c.65-.65,1.88-.65,2.53,0l9.27,9.27,4.67-4.67c.34-.34,.8-.51,1.27-.51s.92,.17,1.26,.51l11.79,11.79c1.45,1.45,3.38,2.25,5.42,2.25h1.53c.82,0,1.49-.67,1.49-1.49s-.67-1.49-1.49-1.49Z"/><path class="cls-6" d="M121.8,83.14h-1.53c-1.25,0-2.43-.49-3.32-1.38l-11.79-11.79c-.9-.9-2.09-1.39-3.37-1.39h0c-1.27,0-2.47,.49-3.37,1.39l-2.56,2.56-7.17-7.17c-.9-.9-2.1-1.4-3.37-1.4s-2.47,.5-3.37,1.4l-2.7,2.7-9.98-9.98-14.59,14.59-3.26-3.26c-.9-.9-2.1-1.4-3.37-1.4s-2.47,.5-3.37,1.4l-12.27,12.27c-.89,.89-2.07,1.38-3.32,1.38h-.9c-.82,0-1.49,.67-1.49,1.49s.67,1.49,1.49,1.49h.9c2.05,0,3.97-.8,5.42-2.25l12.27-12.27c.32-.33,.78-.51,1.26-.51h0c.48,0,.94,.19,1.27,.51l5.37,5.37,14.59-14.59,9.98,9.98,4.81-4.81c.65-.65,1.88-.65,2.53,0l9.27,9.27,4.67-4.67c.34-.34,.8-.51,1.27-.51s.92,.17,1.26,.51l11.79,11.79c1.45,1.45,3.38,2.25,5.42,2.25h1.53c.82,0,1.49-.67,1.49-1.49s-.67-1.49-1.49-1.49Z"/></g></g></svg>