<?xml version="1.0" encoding="UTF-8"?><svg id="Layer_1" xmlns="http://www.w3.org/2000/svg" viewBox="0 0 150 150"><defs><style>.cls-1{fill:none;}.cls-2{fill:#007bf7;}</style></defs><rect class="cls-1" x="0" y="0" width="150" height="150" rx="75" ry="75"/><path class="cls-2" d="M117.15,46.06c-11.04-5.99-23-10.58-36.89-14.08-17.46-4.4-35.29-5.15-47.29-4.99-8.03,.1-12.73,4.99-11.83,17.36,.7,9.61,1.66,20.29,5.39,32.37,2.5,8.11,6.07,16.89,9.86,25.26,9.49,20.94,36.01,27.71,54.23,13.69,6.33-4.88,12.29-9.84,16.61-14.22,6.81-6.91,13.39-16.44,18.6-24.9,6.61-10.73,2.4-24.47-8.68-30.48Zm-35.88,42.34v-.11h-12.48v19.91h-13.29V61.19h13.29v13.81h12.48v.11c5.01,0,9.08-4.06,9.08-9.08s-4.06-9.08-9.08-9.08H40.46l5.17-13.29h35.63c12.35,0,22.37,10.01,22.37,22.37s-10.01,22.37-22.37,22.37Z"/></svg>