<?xml version="1.0" encoding="UTF-8"?><svg id="Layer_1" xmlns="http://www.w3.org/2000/svg" viewBox="0 0 150 150"><defs><style>.cls-1{fill:none;}.cls-2{fill:#ff6e12;}</style></defs><rect class="cls-1" x="0" y="0" width="150" height="150" rx="75" ry="75"/><g><path class="cls-2" d="M84.95,117.67c-11.77,3.27-29.78,.71-42.19-12.94-9.69-10.66-13.08-23.2-10.99-37.44,2.19,.76,2.68,1.48,2.51,3.35-1.19,13.5,3.1,24.99,12.86,34.35,4.76,4.57,10.44,7.64,16.78,9.48,.23,.07,.46,.11,.69,.14,.13,.01,.27-.03,.59-.08-.31-.27-.5-.45-.71-.6-8.8-6.74-9.85-17.22-2.57-25.59,3.25-3.74,7.19-6.59,11.49-8.95,4.66-2.56,9.2-5.26,12.95-9.13,8.8-9.07,8.11-21.03,.74-29.97-.3-.36-.61-.71-1.18-1.38,6.35,2.91,11.37,6.79,15.06,12.34,3.74,5.63,4.8,11.82,3.82,18.45,3.34-.59,4.86,.58,5,3.72-4.3-3.15-6.34,.73-8.97,2.84,1.88-2.09,3.53-4.51,6.86-4.32,.21,.01,.61-.24,.63-.39,.02-.28-.13-.78-.3-.83-.71-.19-1.52-.48-2.17-.29-3.17,.93-5.26,3.08-6.33,6.18-.22,.62-.03,1.39-.03,2.08,.15,0,.31,.02,.46,.03,.1-.18,.19-.36,.29-.54,.32,2.31,2.91,3.13,5.35,2.07,2.27-.99,4.68-1.84,7.26-1.48,.68,.09,1.31,.48,1.98,.72,.94,.34,1.87,.74,2.84,.97,1.31,.31,1.92,1.2,2.27,2.41-.23-.21-.45-.43-.68-.64-1.57-1.46-1.87-1.36-3,.38-.57,.88-1.41,1.65-2.26,2.28-1.4,1.03-2.17,2.22-1.6,4.08-1,.23-1.66,.63-.83,1.73,.11,.15-.08,.57-.2,.83-.45,.93-.44,1.8,.49,2.88,.38-.68,.72-1.28,1.06-1.89,.18,.12,.35,.24,.53,.36-1.52,1.2-1.25,2.39-.41,3.85,1.51,2.6,1.81,5.33,.23,8.11-.2,.35-.07,1.11,.2,1.46,1.46,1.95,1.79,4.14,1.57,6.47-.12,1.33-1.03,2.13-2.19,1.86-1.75-.41-3.52-1.05-5.07-1.96-1.28-.75-2.2-.91-3.58-.27-2.21,1.03-4.58,1.7-6.59,2.43-.55-2.13-.99-4.06-1.56-5.96-.12-.41-.63-.92-1.04-1-3.54-.69-6.45-2.65-9.39-4.56-.35-.23-.71-.44-1.06-.66-2.21,3.13-4.01,10.34,.41,15.03Zm7.88-47.97c-.11-.03-.22-.06-.33-.09-.17,.2-.36,.38-.52,.59-2.57,3.57-5.68,6.55-9.32,9.04-1.31,.89-2.45,2.09-3.49,3.3-1.45,1.69-2.36,3.68-2.22,5.97,.16,2.51,1.39,4.39,3.74,5.41,2.15,.94,4.06,.37,5.78-1.08,1.92-1.62,2.47-3.55,1.48-5.95-1-2.42-.64-4.82,.53-7.11,.64-1.26,1.35-2.49,1.98-3.76,.71-1.44,1.42-2.88,2.03-4.36,.25-.6,.23-1.3,.33-1.96Zm-26.98,35.14c-.17,1.2-.51,2.18-.41,3.12,.41,3.97,3.15,6.73,7.17,7.5,1.78,.34,3.49,.31,5.06-.64,.47-.28,1.01-.94,.99-1.39-.02-.44-.66-1-1.16-1.22-.94-.41-1.96-.67-2.97-.88-3.65-.77-6.95-1.96-8.08-6.07,0-.03-.07-.05-.59-.4Zm36.99-35.02c-.08-.17-.16-.35-.23-.52-.83,.25-1.72,.38-2.48,.75-3.45,1.69-5.86,4.4-6.94,8.05-.63,2.12-.83,4.42-.9,6.65-.04,1.18,1.13,1.56,2.01,.72,.5-.47,.82-1.24,.99-1.93,.16-.67,0-1.41,.02-2.12,.19-4.59,1.77-8.39,6.1-10.62,.52-.27,.97-.65,1.45-.99Zm-4.27,35.64c.24,.28,.33,.47,.48,.55,3.04,1.8,9.2-.61,10.05-3.99,.14-.54-.2-1.41-.61-1.84-.98-1.01-2.34-.81-3.22,.53-1.29,1.95-3.09,3.12-5.21,3.94-.5,.19-.95,.51-1.49,.81Zm5.65-11.03c-1.7,.33-3.4,.62-5.09,1.02-.58,.14-1.3,.41-1.58,.85-.41,.65-.77,1.57-.62,2.27,.11,.51,1.01,1.01,1.65,1.19,.69,.19,1.51,.11,2.24-.02,2.64-.49,4.08-2.81,3.38-5.31Zm9.96-10.4c-1.51-1.19-5.33-.64-6.42,.99-.66,.98-.42,2.31,.53,3.02,.87,.65,2.13,.5,2.92-.42,.99-1.15,1.94-2.34,2.97-3.59Zm-8.12-2.57c-.13-.03-.27-.11-.38-.09-.32,.07-.63,.16-.94,.27-2.22,.76-3.18,.44-4.71-1.32-.38-.44-1.29-.92-1.66-.75-.89,.42-1,1.53-.4,2.18,.86,.92,1.91,1.86,3.06,2.27,2.15,.76,4.55-.6,5.04-2.56Zm9,28.72c-.62-1.03-1.09-1.82-1.57-2.6-.61,.71-1.64,1.39-1.69,2.14-.04,.6,1.06,1.34,1.77,1.86,.08,.06,.86-.8,1.49-1.4Z"/><path class="cls-2" d="M57.16,108.64c-2.76-1.68-5.02-3.94-7-6.47-4-5.11-6.96-10.69-7.83-17.23-.79-5.94,.37-11.48,3.32-16.66,.25-.44,.5-.89,.95-1.69-.81,.2-1.28,.29-1.74,.43-2.7,.8-5.42,.7-8.14,.17-.41-.08-.83-.21-1.21-.41-1.53-.8-3.1-1.55-4.56-2.47-3.1-1.94-2.81-7.03,.67-8.72,2.42-1.18,3.65-3,4.38-5.37,.13-.42,.12-1.06-.12-1.4-.99-1.44-.69-2.78,.14-4.11,.37-.6,.96-1.09,1.25-1.72,.47-1.04,1.07-2.15,1.09-3.24,.03-1.81,.69-3.17,2.1-4.11,4.63-3.12,9.76-4.67,15.62-4.7-.35,.41-.52,.66-.73,.85-1.53,1.36-1.84,3.04-1.23,4.9,.62,1.89,2.08,2.89,3.99,2.79,2.29-.12,4.36,.16,6.44,1.26,1.97,1.04,4.16,.5,5.98-.6,2.05-1.25,4-2.7,5.8-4.28,.82-.72,1.37-.75,2.21-.34,4.52,2.24,7.18,5.99,8.3,10.77,1.73,7.39-1.02,13.46-6.34,18.37-2.62,2.42-5.68,4.41-8.75,6.26-4.85,2.92-9.63,5.89-13.31,10.29-6.4,7.67-7.28,16.4-2.56,25.22,.4,.75,.84,1.48,1.26,2.22Zm.31-33.26c.14,.06,.28,.13,.42,.19,.16-.07,.33-.12,.48-.22,2.16-1.44,4.32-2.89,6.48-4.33,3.39-2.25,6.92-4.3,10.13-6.78,4.31-3.33,7.42-7.56,7.99-13.22,.3-2.97-.05-5.78-2.31-8.01-1.22-1.21-2.75-1.51-4.34-1.01-1.51,.47-2.45,1.6-2.59,3.23-.12,1.36-.19,2.73-.2,4.1-.04,3.28-.93,6.26-3.03,8.8-2.08,2.52-4.25,4.97-6.32,7.49-2.01,2.45-4,4.92-5.9,7.45-.46,.62-.55,1.52-.81,2.3Zm-6.09-25.8c-.55,0-1.13-.14-1.57,.05-.31,.13-.64,.77-.57,1.1,.22,1.08,.68,2.1,.94,3.18,.67,2.69,2.69,4.16,5.36,3.48,4.22-1.07,7.1-3.79,8.69-7.83,.28-.72,.35-1.57,.34-2.36-.02-1.81-1.13-3.02-2.88-3.31-2.85-.48-4.64,.37-5.85,3-.91,1.98-2.36,2.86-4.46,2.7Zm-16.23,9.93c1.69,.18,2.58-.28,3.38-1.54,1.15-1.81,.27-3.72-1.83-3.47-1.91,.23-3.89,.88-5.56,1.83-.94,.54-1.48,2-1.9,3.16-.38,1.05,.42,1.75,1.53,1.5,.68-.16,1.33-.48,2-.71,.79-.27,1.59-.52,2.38-.78Zm8.54-20.87c.99-.42,1.5,.11,1.88,1.11,.24,.64,.73,1.21,1.23,1.7,.29,.28,.8,.34,1.21,.5,.11-.39,.32-.77,.33-1.16,.06-2.29,.2-4.5,1.98-6.29,.71-.71,.29-1.43-.76-1.46-.41-.01-.85,.08-1.24,.23-2.07,.79-4.15,1.55-6.16,2.48-.67,.31-1.12,1.08-1.67,1.64,.79,.41,1.57,.85,2.38,1.23,.19,.09,.47,.01,.82,.01Zm-1.03,13.32c.07-.2,.15-.4,.22-.6,1.17,.69,2.32,1.45,3.54,2.05,.47,.23,1.11,.11,1.68,.15,.01-.62,.25-1.35,0-1.82-.69-1.31-1.97-1.8-3.41-1.92-.84-.07-1.67-.22-2.51-.25-1.25-.04-2.52-.15-3.74,.06-.58,.1-1.05,.86-1.57,1.32,.57,.34,1.11,.91,1.71,.97,1.34,.15,2.72,.05,4.08,.05Zm7.07-3.45c2.11-.14,3.77-.33,4.74-1.98,.54-.91,.86-2.06-.04-2.71-.6-.44-1.84-.5-2.55-.19-1.09,.48-2.06,1.34-2.89,2.21-.45,.47-.81,1.4-.64,1.95,.13,.43,1.13,.6,1.39,.72Zm-5.98,8.67c-.08,.53-.23,.96-.19,1.36,.2,2.05-.13,2.42-2.2,2.36-.28,0-.58-.09-.84-.03-.29,.07-.73,.24-.77,.43-.06,.31,.05,.81,.27,.99,1.08,.82,2.3,1.03,3.59,.51,1.24-.5,2.09-1.42,2.12-2.74,.03-1.21-.54-2.25-1.99-2.89Zm-2.44-14.65c-1.76-.19-4.35,1.66-4.66,3.15-.18,.88,.66,1.72,1.99,1.95,.92,.16,1.36-.22,1.53-1.17,.16-.9,.54-1.77,.81-2.65,.13-.41,.22-.84,.33-1.28Z"/><path class="cls-2" d="M110.14,116.69c-2.52,1.73-4.88,3.54-7.41,5.05-7.55,4.52-15.74,6.99-24.56,7.53-26.73,1.66-50.99-16.71-56.42-43.26-3.35-16.39,.31-31.36,10.55-44.65,.78-1.01,.8-1,1.66-.44-2.13,3.47-4.45,6.82-6.33,10.4-4.42,8.46-6.2,17.56-5.55,27.05,1.67,24.41,19.28,44.11,42.8,48.64,15.6,3,29.86-.49,42.56-10.11,.78-.59,1.48-1.18,2.71-.22Z"/><path class="cls-2" d="M77.83,33.89c.95-2.77,.94-2.74,3.65-2.31,10.37,1.66,19.18,6.27,26.25,14.06,6.29,6.94,10.05,15.06,11.01,24.41,.28,2.77,.28,5.56,.4,8.33-2.47,.31-3.11-.2-3.04-2.44,.61-18.98-12.38-35.24-29.23-40.11-2.93-.85-5.97-1.29-9.04-1.93Z"/><path class="cls-2" d="M117.06,109.38c-.66-1-.35-1.73,.26-2.53,5.73-7.55,9.24-16.05,10.37-25.45,2.76-22.91-9.5-44.88-30.33-54.56-8.45-3.93-17.34-5.48-26.64-4.79-.68,.05-1.41-.45-2.06-.81,16.45-2.89,39.95,4.15,52.94,25.57,12.38,20.42,9.59,45.67-4.53,62.58Z"/><path class="cls-2" d="M52.27,22.22c4.93-1.92,9.84-2.26,14.62,.22,2.35,1.22,3.4,3.46,2.87,6.11-.83,4.18-4.98,9.76-11.31,9.62-1.47-.03-2.56-.61-3.07-2.05-.47-1.31-.08-2.44,1.26-3.44,.87-.65,1.83-1.19,2.73-1.8,.59-.4,1.18-.8,1.71-1.27,1.21-1.08,2.2-2.34,1.77-4.08-.41-1.66-1.77-2.45-3.33-2.72-1.85-.31-3.74-.41-5.62-.58-.54-.05-1.08,0-1.63,0Zm5.13,11.13c2.16,1.41,2.19,1.45,4.04,.06,1.02-.76,2.06-1.55,2.89-2.5,2.37-2.74,1.54-5.89-2.01-7.45,.16,.3,.26,.49,.37,.67,1.74,2.6,1.2,4.55-1.51,6.21-1.31,.8-2.42,1.92-3.78,3.02Z"/><path class="cls-2" d="M85.12,106.11c3.24,.98,6.24,1.89,9.24,2.82,.2,.06,.45,.21,.54,.39,1.84,3.5,1.17,7.94-3.24,8.99-3.18,.76-7.09-1.79-7.65-5.05-.44-2.56-.04-5.07,1.11-7.15Zm8.36,4.75c.03-.16,.05-.33,.08-.49-1.76-.68-3.5-1.38-5.28-2-.18-.06-.59,.26-.78,.5-1.53,1.89-1.1,5.01,.87,6.45,2.07,1.51,5.26,.76,5.62-1.37,.17-.96,.02-1.78-1.29-1.85-.91-.04-1.81-.27-2.72-.42,0-.09,0-.18,0-.27,1.16-.18,2.33-.36,3.49-.55Z"/><path class="cls-2" d="M42.66,24.26c-1.55,.87-3.15,1.67-4.65,2.63-4.02,2.58-3.88,5.05,.36,7.2,.28,.14,.56,.3,.63,.34-.82,1.69-1.59,3.29-2.46,5.07-2.21-.84-4.53-2.02-5.93-4.44-1.02-1.76-.47-4.58,1.19-6.46,2.86-3.24,6.65-4.3,10.87-4.35Zm-7.52,3.99c-1.5,.91-2.19,2.11-2.04,3.71,.2,2.18,1.81,3.17,3.47,4.09,.57-.39,1.08-.73,1.76-1.19-2.65-1.46-5.47-2.81-3.19-6.61Z"/><path class="cls-2" d="M75.17,32.83c0,.49,.07,.72-.01,.85-1.79,2.81-4.01,5.16-7.28,6.18-1.85,.57-3.39-.34-4.71-1.32,1.68-1.49,3.25-3.08,5.03-4.39,.71-.53,1.87-.46,2.83-.63,1.33-.24,2.66-.44,4.15-.68Zm-9.48,6.04c3.06,.15,4.95-1.64,6.66-3.86-1.74,.48-3.49,.96-4.88,1.35-.67,.94-1.17,1.66-1.78,2.52Z"/><path class="cls-2" d="M118.49,82.63c.43,.4,1.21,.96,1.76,1.69,.29,.39,0,1.39,.29,1.56,.83,.5,1.53,1.08,.85,1.91-.73,.89-1.74,1.65-2.79,2.15-1.47,.7-2.97,.25-4.29-.61-1.39-.91-1.39-1.86-.12-2.94,1.36-1.16,2.7-2.36,4.3-3.77Zm1.58,6.52l.02-.44c-.94-.5-1.83-1.12-2.82-1.46-.43-.15-1.06,.27-1.6,.42,.24,.49,.43,1.37,.74,1.41,1.2,.16,2.44,.07,3.66,.07Z"/><path class="cls-2" d="M58.82,24.43c-5.95,1.99-11.26,4.81-16.13,8.5-.53,.4-1.39,.36-2.24,.25,.16-.18,.29-.39,.47-.54,4.64-3.74,9.76-6.65,15.34-8.76,.95-.36,1.71-.32,2.56,.54Z"/><path class="cls-2" d="M111.06,75.88c-.74,.09-1.48,.17-2.21,.26-.07-.14-.15-.28-.22-.42,.27-.37,.54-1.03,.82-1.04,.53-.02,1.06,.35,1.6,.56,0,.22,.01,.43,.02,.65Z"/><path class="cls-2" d="M106.4,73.9c-.59,.26-1.18,.52-1.77,.78,.63-1.54,.91-1.6,1.77-.78Z"/><path class="cls-2" d="M101.26,96.78c-.32,.44-.64,.88-1.24,1.68-.18-.73-.52-1.4-.35-1.57,.33-.33,.95-.39,1.44-.55,.05,.15,.1,.3,.15,.44Z"/><path class="cls-2" d="M50.81,46.76c.86-.48,.97-.98-.05-1.48,.17-.09,.35-.18,.52-.27,.38,.37,.76,.75,1.13,1.12-.37,.34-.74,.67-1.11,1.01-.16-.12-.33-.25-.49-.37Z"/></g></svg>