<?xml version="1.0" encoding="UTF-8"?><svg id="Layer_1" xmlns="http://www.w3.org/2000/svg" viewBox="0 0 150 150"><defs><style>.cls-1{fill:none;}.cls-2{fill:#d73d3d;}.cls-3{fill:#322a2c;}</style></defs><rect class="cls-1" x="0" y="0" width="150" height="150" rx="75" ry="75"/><g><g><polygon class="cls-2" points="30.26 62.24 22.91 62.24 12.29 87.76 19.64 87.76 30.26 62.24"/><polygon class="cls-2" points="8.9 71.63 2.19 87.76 9.54 87.76 16.24 71.63 8.9 71.63"/></g><polygon class="cls-3" points="41.14 67.45 61.8 67.45 56.55 62.24 41.14 62.24 38.06 62.24 35.94 62.24 35.94 87.76 41.14 87.76 41.14 76.89 56.36 76.89 56.36 71.69 41.14 71.69 41.14 67.45"/><polygon class="cls-3" points="91.42 87.76 78.42 74.87 91.14 62.24 84.65 62.24 75.18 71.64 65.7 62.24 59.21 62.24 71.93 74.87 58.93 87.76 65.43 87.76 75.18 78.09 84.92 87.76 91.42 87.76"/><path class="cls-3" d="M105.64,62.24h-12.2l-2.82,2.8v19.65l3.09,3.07h12.24c5.72,0,12.65-3.67,12.65-12.76s-7.55-12.76-12.96-12.76Zm4.59,18.79c-1.37,1.15-3.36,1.83-5.33,1.83h-8.28v-15.73h7.97c1.49,0,3.7,.5,5.45,1.9,1.76,1.41,2.62,3.36,2.62,5.97s-.82,4.68-2.44,6.04Z"/><path class="cls-3" d="M134.85,62.24h-12.2l-2.82,2.8v19.65l3.09,3.07h12.24c5.72,0,12.65-3.67,12.65-12.76s-7.55-12.76-12.96-12.76Zm4.59,18.79c-1.37,1.15-3.36,1.83-5.33,1.83h-8.28v-15.73h7.97c1.49,0,3.7,.5,5.45,1.9,1.76,1.41,2.62,3.36,2.62,5.97s-.82,4.68-2.44,6.04Z"/></g></svg>