<?xml version="1.0" encoding="UTF-8"?><svg id="Layer_1" xmlns="http://www.w3.org/2000/svg" viewBox="0 0 150 150"><defs><style>.cls-1{fill:none;}.cls-2{fill:#061c45;}.cls-3{fill:#4b4d9c;}</style></defs><rect class="cls-1" x="0" y="0" width="150" height="150" rx="75" ry="75"/><g><g><polygon class="cls-3" points="122.16 88.25 103.65 59.55 102.91 58.73 103.28 58.28 119.87 30.33 101.71 30.33 92.48 47.08 83.25 30.33 65.09 30.33 81.68 58.28 82.06 58.73 81.32 59.55 63.8 88.25 82.68 88.25 92.48 71.17 101.99 88.25 122.16 88.25"/><polygon class="cls-3" points="37.77 30.33 27.9 30.33 27.9 88.25 43.35 88.25 43.35 66.7 60.18 66.7 60.18 53.4 43.35 53.4 43.35 43.63 60.94 43.63 60.94 30.33 43.35 30.33 37.77 30.33"/></g><path class="cls-2" d="M42.92,101.55v-4.08s-2.29-.36-5.01-.36c-4.29,0-10.51,3.22-10.51,10.94s5.72,11.51,10.44,11.51,5.58-.93,5.58-.93v-4.58s-2.43,1.14-4.86,1.14-5.72-2.22-5.72-6.87,2.43-7.15,5.72-7.15,4.36,.36,4.36,.36Z"/><path class="cls-2" d="M57.08,102.98c-1.92,0-3.83,1.19-5.22,2.31v-9.82l-7.08,.5v2.93l2.22-.29v20.95h4.86v-8.01c0-2.5,1.14-4.43,3.08-4.43s2.15,.43,2.15,2.57v9.87h4.43s.36-9.44,.36-12.05-1.93-4.54-4.79-4.54Z"/><path class="cls-2" d="M74.06,102.38c-4.62-.07-8.58,3.74-8.86,8.52-.28,4.78,3.24,8.7,7.85,8.78s8.58-3.74,8.86-8.52c.28-4.78-3.24-8.7-7.85-8.78Zm-.5,13.11c-1.96,0-3.54-2-3.54-4.47s1.59-4.47,3.54-4.47,3.54,2,3.54,4.47-1.59,4.47-3.54,4.47Z"/><polygon class="cls-2" points="90.41 103.2 82.83 103.41 82.83 106.34 85.54 106.34 85.54 119.57 90.41 119.57 90.41 103.2"/><circle class="cls-2" cx="87.47" cy="98.41" r="2.93"/><path class="cls-2" d="M104.57,106.92l.5-3.86s-2.43-.29-4.15-.29-7.65,1.43-7.65,8.62,4.08,8.29,7.29,8.29,4.36-.39,4.36-.39v-4.15s-.93,.35-3,.35-3.65-1-3.65-4.47,1.79-4.47,3.43-4.47,2.86,.36,2.86,.36Z"/><path class="cls-2" d="M122.3,107.7c-.5-2.43-2.57-5.15-7.01-5.15s-8.01,3.43-8.01,8.51,3.29,8.58,8.51,8.58,6.29-1.57,6.29-1.57l-1-3.36s-1.86,1.29-4.72,1.29c-2.5,0-4.19-1.53-4.57-4.08h10.72s.29-1.79-.21-4.22Zm-4.29,1.5h-6.2c.3-2.28,1.31-3.63,3.19-3.5,3.29,.21,3,3.5,3,3.5Z"/></g></svg>