<?xml version="1.0" encoding="UTF-8"?><svg id="Layer_1" xmlns="http://www.w3.org/2000/svg" viewBox="0 0 150 150"><defs><style>.cls-1{fill:none;}.cls-2{fill:#e33a34;}</style></defs><rect class="cls-1" x="0" y="0" width="150" height="150" rx="75" ry="75"/><g><path class="cls-2" d="M11.31,63.28v32.51H4.64V63.28h6.67Z"/><path class="cls-2" d="M13.38,79.97c0-3.47-.04-5.74-.17-7.77h6.03v4.34h0c1.08-3.47,4.22-4.92,6.29-4.92,.6,0,.3,.05,2.65,.14v5.76c-2.39-.1-2.91,0-3.64,0-2.41,0-4.42,2.39-4.85,4.66-.09,.48-.13,1.06-.13,1.64v11.96h-6.18v-15.82Z"/><path class="cls-2" d="M53.23,83.73c0,8.63-6.13,12.59-12.44,12.59-6.9,0-12.2-4.53-12.2-12.16s5.02-12.54,12.64-12.54c7.19,0,12.01,4.97,12.01,12.11Zm-18.03,.24c0,4.31,2.03,7.54,5.79,7.54,3.47,0,5.62-3.03,5.62-7.6,0-3.7-1.62-7.49-5.62-7.49s-5.79,3.85-5.79,7.54Z"/><path class="cls-2" d="M54.43,79.73c0-2.94-.1-5.4-.19-7.52h6.37v3.28h0c.96-1.54,3.81-3.81,7.77-3.81,4.82,0,8.44,3.23,8.44,10.18v13.94h-6.72s0-13.51,0-13.51c0-3.14-.94-5.29-4.2-5.29-2.49,0-3.98,1.45-4.63,2.84-.24,.5-.3,1.2-.3,1.89v14.06h-6.54v-16.06Z"/><path class="cls-2" d="M124.66,95.78l-7.09-11.72-7.22,11.72h-8.13l11.35-17.2-10.19-15.31h8.15s5.36,8.87,6.18,10.7l6.53-10.7h8.23l-10.66,15.41,11.18,17.1h-8.33Z"/><polygon class="cls-2" points="101.91 78.44 95.79 72.84 95.79 75.42 85.97 75.42 85.97 77.85 79.85 72.25 85.97 66.65 85.97 69.31 101.6 69.31 101.6 63.28 79.09 63.28 79.09 95.79 86.04 95.79 86.04 81.4 95.79 81.4 95.79 84.04 101.91 78.44"/><polygon class="cls-2" points="145.36 66.46 145.36 53.68 132.58 53.68 145.36 66.46"/></g></svg>