<?xml version="1.0" encoding="UTF-8"?><svg id="Layer_1" xmlns="http://www.w3.org/2000/svg" viewBox="0 0 150 150"><defs><style>.cls-1{fill:none;}.cls-2{fill:#92bb57;}</style></defs><rect class="cls-1" x="0" y="0" width="150" height="150" rx="75" ry="75"/><g><path class="cls-2" d="M77.71,69.22c0,10.23,8.29,18.52,18.52,18.52h27.5v-.04c13.97-.62,22.44-8.56,22.44-18.26s-13.84-18.3-27.22-18.3c-1.59,0-3.11,.12-4.54,.34,11.97,.08,24.3,7.33,24.3,16.2s-8.26,10.95-21.77,10.95l-20.72-.06c-5.17,0-9.36-4.19-9.36-9.36s4.19-9.36,9.36-9.36c2.69,0,5.11,1.13,6.81,2.95l6.68-6.28c-3.38-3.59-8.17-5.84-13.49-5.84-10.23,0-18.52,8.29-18.52,18.52Z"/><path class="cls-2" d="M26.27,50.7v.04c-13.97,.62-22.44,8.56-22.44,18.26s13.84,18.3,27.22,18.3c1.59,0,3.11-.12,4.54-.34-11.97-.08-24.3-8.66-24.3-16.2s8.26-10.95,21.77-10.95h11.43v27.5h9.29V50.7H26.27Z"/><path class="cls-2" d="M66.03,74.45h9.51c-.41-1.68-.63-3.43-.63-5.23,0-1.41,.14-2.79,.39-4.12h-9.27v-5.05h10.9c1.8-3.87,4.71-7.12,8.32-9.35h-28.39v36.61h9.17v-12.85Z"/><rect class="cls-2" x="44.85" y="44.44" width="8.92" height="3.96" rx="1.96" ry="1.96"/><polygon class="cls-2" points="115.96 93.21 114.98 93.21 112.71 105.31 113.85 105.31 114.84 105.31 121.7 105.31 122.03 103.49 115.18 103.49 115.81 100.17 121.7 100.17 122.03 98.35 116.15 98.35 116.77 95.03 123.47 95.03 123.8 93.21 117.11 93.21 115.96 93.21"/><polygon class="cls-2" points="134.88 93.21 131.1 93.21 128.96 93.21 125.14 93.21 124.81 95.03 128.62 95.03 126.69 105.31 128.83 105.31 130.76 95.03 134.55 95.03 134.88 93.21"/><polygon class="cls-2" points="75.14 93.21 73.14 93.21 67.27 101.22 64.13 93.21 62.17 93.21 59.9 105.31 62.04 105.31 63.59 97.04 65.87 103.19 66.18 104.03 67.4 104.03 68 103.19 72.25 97.25 70.73 105.31 72.87 105.31 75.14 93.21 75.14 93.21"/><path class="cls-2" d="M84.04,93.21h-2.12l-7.68,12.1h2.54l1.71-2.85h5.86l.64,2.85h2.19l-2.82-12.1h-.33Zm-4.46,7.43l3.17-5.29,1.19,5.29h-4.36Z"/><polygon class="cls-2" points="113.63 93.21 110.63 93.21 103.87 99.21 105 93.21 102.86 93.21 100.59 105.31 102.72 105.31 103.31 102.17 105.59 100.19 108.81 105.31 111.37 105.31 107.19 98.81 113.63 93.21"/><path class="cls-2" d="M96.25,93.24v-.03s-.46,0-.46,0c-.04,0-.08,0-.13,0-.03,0-.05,0-.07,0h-4.96l-2.27,12.1h2.13l.67-3.55h2.95l1.78,3.55h2.19l-1.98-3.8c1.37-.51,3.34-1.71,3.34-4.25,0-2.8-1.57-3.82-3.19-4.01Zm.98,3.97c-.25,2.04-1.36,2.73-3.66,2.73h-2.07l.92-4.91h2.18c.87,0,2.84,.36,2.62,2.19Z"/><path class="cls-2" d="M141.02,95.21c2.02,0,3.24,1.01,3.24,1.01l.93-1.94s-1.3-.93-4.13-.93-5.18,1.49-5.18,3.61,1.2,2.54,3.47,3.37,2.64,1.24,2.64,1.75-.35,1.55-2.85,1.55-4.07-1.2-4.07-1.2l-.93,1.71s1.07,1.4,4.89,1.4,5.33-2.27,5.33-3.82-1.45-2.42-3.63-3.12c-2.19-.7-2.62-1.01-2.62-1.75s.89-1.65,2.91-1.65Z"/></g></svg>