<?xml version="1.0" encoding="UTF-8"?><svg id="Layer_1" xmlns="http://www.w3.org/2000/svg" viewBox="0 0 150 150"><defs><style>.cls-1{fill:none;}.cls-2{fill:#ff7447;}</style></defs><rect class="cls-1" x="0" y="0" width="150" height="150" rx="75" ry="75"/><path class="cls-2" d="M75,25.64c-27.26,0-49.36,22.1-49.36,49.36s22.1,49.36,49.36,49.36,49.36-22.1,49.36-49.36-22.1-49.36-49.36-49.36Zm-24.51,28.63h48.9v8.08H50.49v-8.08Zm49.02,41.58h-8.08v-10.61c0-3.42-2.77-6.19-6.19-6.19h0c-3.42,0-6.19,2.77-6.19,6.19v10.61h-8.08v-10.61c0-3.42-2.77-6.19-6.19-6.19h0c-3.42,0-6.19,2.77-6.19,6.19v10.61h-8.08v-24.89h48.9v.44h.12v24.45Z"/></svg>