<?xml version="1.0" encoding="UTF-8"?><svg id="Layer_1" xmlns="http://www.w3.org/2000/svg" xmlns:xlink="http://www.w3.org/1999/xlink" viewBox="0 0 150 150"><defs><style>.cls-1{fill:none;}.cls-2{fill:url(#linear-gradient);}.cls-3{fill:url(#linear-gradient-2);}</style><linearGradient id="linear-gradient" x1="77.5" y1="26.93" x2="77.5" y2="121.26" gradientUnits="userSpaceOnUse"><stop offset="0" stop-color="#0b83cd"/><stop offset="1" stop-color="#005eab"/></linearGradient><linearGradient id="linear-gradient-2" x1="72.5" y1="26.93" x2="72.5" y2="121.26" xlink:href="#linear-gradient"/></defs><rect class="cls-1" x="0" y="0" width="150" height="150" rx="75" ry="75"/><g><path class="cls-2" d="M77.33,93.83h-4.67V60.94l-29.82,32.9-8.32,9.17c4.29,6.18,9.95,11.33,16.55,15.01,6.44,3.59,13.77,5.77,21.58,6.14,.77,.04,1.55,.06,2.33,.06s1.56-.02,2.33-.06c19.5-.91,36.03-13.17,43.14-30.32h-43.14Z"/><path class="cls-3" d="M76.99,56.17h.34v32.9l29.82-32.9,8.32-9.17c-4.29-6.18-9.95-11.33-16.55-15.01-6.44-3.59-13.77-5.77-21.58-6.14-.77-.04-1.55-.06-2.33-.06s-1.56,.02-2.33,.06c-19.5,.91-36.03,13.17-43.14,30.32h47.47Z"/></g></svg>