<?xml version="1.0" encoding="UTF-8"?><svg id="Layer_1" xmlns="http://www.w3.org/2000/svg" viewBox="0 0 150 150"><defs><style>.cls-1{fill:none;}.cls-2{fill:#ffd142;}.cls-3{fill:#212025;}</style></defs><rect class="cls-1" x="0" y="0" width="150" height="150" rx="75" ry="75"/><g><path class="cls-2" d="M126.85,80.71l-28.12-19.96,26.14-19.9h-13.54l-19.28,15.15-5.08-3.6h-12.68l11.53,8.5-2.29,1.8h0s0,0,0,0l-.06,.05-.49,.38c-.22,.18-.51,.4-.84,.66l-.45,.35c-.16,.13-.34,.27-.52,.41-.11,.09-.22,.18-.34,.27-.22,.18-.45,.36-.69,.55-.07,.05-.13,.1-.2,.16l-.39,.31-1.03,.81-.48,.37c-.28,.22-.57,.45-.85,.67l-.48,.37c-.06,.04-.11,.09-.17,.13l-1.03,.81c-.08,.06-.16,.13-.25,.19l-.86,.68s-.07,.05-.1,.08c0,0,0,0,0,0-3.93,3.09-8.55,6.46-15.49,6.46-3.69,0-8.05-1.1-11.33-3.72l41.72-31.85h-12.06s0,0,0,0h-12.06c-9.08,0-25.27,3.28-25.27,19.22,0,2.85,.31,5.34,.89,7.51l-17.9,13.13h14.21l7.56-5.77c3.89,4.25,9.76,5.77,16.06,5.77,11.07,0,19.56-5.84,24.45-9.56h0s7.2-5.48,7.2-5.48l20.38,15.04h14.21ZM42.53,61.9c0-10.65,10.08-13.87,19.41-13.87h5.43l-24.35,17.86c-.32-1.21-.49-2.53-.49-3.98Z"/><g><polygon class="cls-3" points="53.95 108.37 47.07 99.27 53.51 90.75 47.73 90.75 44.18 95.44 40.63 90.75 34.85 90.75 41.29 99.27 34.41 108.37 40.19 108.37 44.18 103.09 48.17 108.37 53.95 108.37"/><path class="cls-3" d="M31.71,100.27c.01-.22,.02-.44,.02-.66,0-.74-.07-1.46-.2-2.15-.81-4.22-3.79-7.37-8.55-7.37s-8.01,3.15-8.81,7.37c-.13,.69-.2,1.41-.2,2.15,0,.22,0,.44,.02,.66,.28,4.95,3.75,8.86,8.98,8.86,4,0,6.91-2.22,8.23-5.43l-3.84-.73c-.8,1.62-2.22,2.68-4.09,2.68-2.73,0-4.56-2.36-4.8-5.39h13.23Zm-12.99-2.81c.61-2.28,2.22-3.9,4.55-3.9s3.92,1.62,4.54,3.9h-9.09Z"/><path class="cls-3" d="M98.37,100.27c.01-.22,.02-.44,.02-.66,0-.74-.07-1.46-.2-2.15-.81-4.22-3.79-7.37-8.55-7.37s-8.01,3.15-8.81,7.37c-.13,.69-.2,1.41-.2,2.15,0,.22,0,.44,.02,.66,.28,4.95,3.75,8.86,8.98,8.86,4,0,6.91-2.22,8.23-5.43l-3.84-.73c-.8,1.62-2.22,2.68-4.09,2.68-2.73,0-4.56-2.36-4.8-5.39h13.23Zm-12.99-2.81c.61-2.28,2.22-3.9,4.55-3.9s3.92,1.62,4.54,3.9h-9.09Z"/><path class="cls-3" d="M69.37,90.1c-2.28,0-4.18,1.53-6,3.47v-2.82h-4.68v17.62h4.68v-9.86c0-2.53,2.26-3.85,4.07-3.85s3.36,1.7,3.36,3.14v10.57h4.68v-11.46s0,1.33,0-.93c0-2.41-2.04-5.88-6.11-5.88Z"/><path class="cls-3" d="M115.51,95.48l1.29-3.66s-3.11-1.73-6.5-1.73-6.63,2.11-6.63,5.83,3.55,4.85,5.51,5.34c2.62,.66,3.63,1.35,3.63,2.28s-.72,1.73-2.81,1.54c-2.3-.21-5.84-2.31-5.84-2.31l-1.98,3.52s3.52,2.59,8.37,2.59,7.05-3.28,7.05-5.7-1.97-4.6-5.92-5.62c-3.63-.94-3.94-1.62-3.66-2.81,.17-.73,1.07-1.29,2.95-1.05,1.26,.17,4.54,1.76,4.54,1.76Z"/><path class="cls-3" d="M133.94,95.48l1.29-3.66s-3.11-1.73-6.5-1.73-6.63,2.11-6.63,5.83,3.55,4.85,5.51,5.34c2.62,.66,3.63,1.35,3.63,2.28s-.72,1.73-2.81,1.54c-2.3-.21-5.84-2.31-5.84-2.31l-1.98,3.52s3.52,2.59,8.37,2.59,7.05-3.28,7.05-5.7-1.97-4.6-5.92-5.62c-3.63-.94-3.94-1.62-3.66-2.81,.17-.73,1.07-1.29,2.95-1.05,1.26,.17,4.54,1.76,4.54,1.76Z"/></g></g></svg>