<?xml version="1.0" encoding="utf-8"?>
<!-- Generator: Adobe Illustrator 27.9.0, SVG Export Plug-In . SVG Version: 6.00 Build 0)  -->
<svg version="1.1" id="Layer_1" xmlns="http://www.w3.org/2000/svg" xmlns:xlink="http://www.w3.org/1999/xlink" x="0px" y="0px"
	 viewBox="0 0 150 150" style="enable-background:new 0 0 150 150;" xml:space="preserve">
<style type="text/css">
	.st0{fill:none;}
	.st1{fill:#220D48;}
	.st2{fill:#FFFFFF;}
	.st3{fill:#A460FC;}
</style>
<path class="st0" d="M75,0L75,0c41.4,0,75,33.6,75,75l0,0c0,41.4-33.6,75-75,75l0,0c-41.4,0-75-33.6-75-75l0,0C0,33.6,33.6,0,75,0z"
	/>
<g>
	<rect x="22.8" y="22.8" class="st1" width="104.4" height="104.4"/>
	<g>
		<path class="st2" d="M30.1,86.4v-2.1h9.7v2.1h-3.6v9.4h-2.6v-9.4H30.1z"/>
		<path class="st2" d="M43.8,84.2v4.4h4.8v-4.4h2.6v11.6h-2.6v-5h-4.8v5h-2.6V84.2H43.8z"/>
		<path class="st2" d="M62.3,84.2v2.1h-6.3v2.5h5.7v2h-5.7v2.8h6.4v2.1h-9V84.2H62.3z"/>
	</g>
	<g>
		<path class="st3" d="M99.8,55.9c0.7,0,1.4,0.1,1.9,0.3c0.5,0.2,0.9,0.5,1.3,0.8c0.3,0.3,0.6,0.7,0.7,1.2c0.1,0.4,0.2,0.9,0.2,1.4
			c0,0.5-0.1,0.9-0.2,1.4c-0.1,0.4-0.4,0.8-0.7,1.2c-0.3,0.3-0.8,0.6-1.3,0.8c-0.5,0.2-1.2,0.3-1.9,0.3h-2.7v4.1h-2.6V55.9H99.8z
			 M99.1,61.3c0.3,0,0.6,0,0.9-0.1c0.3,0,0.5-0.1,0.7-0.3c0.2-0.1,0.4-0.3,0.5-0.5c0.1-0.2,0.2-0.5,0.2-0.9c0-0.4-0.1-0.7-0.2-0.9
			c-0.1-0.2-0.3-0.4-0.5-0.5c-0.2-0.1-0.5-0.2-0.7-0.3c-0.3,0-0.6-0.1-0.9-0.1h-2v3.5H99.1z"/>
		<path class="st3" d="M108.1,55.9v11.6h-2.6V55.9H108.1z"/>
		<path class="st3" d="M109.5,58v-2.1h9.7V58h-3.6v9.4h-2.6V58H109.5z"/>
	</g>
	<g>
		<path class="st2" d="M44.7,72.2v-2.1h9.7v2.1h-3.6v9.4h-2.6v-9.4H44.7z"/>
		<path class="st2" d="M62.2,70.1c0.5,0,1,0.1,1.4,0.3c0.4,0.2,0.8,0.4,1.1,0.7c0.3,0.3,0.5,0.6,0.7,1c0.2,0.4,0.2,0.8,0.2,1.2
			c0,0.7-0.1,1.3-0.4,1.8c-0.3,0.5-0.8,0.9-1.4,1.1v0c0.3,0.1,0.6,0.2,0.8,0.4c0.2,0.2,0.4,0.4,0.5,0.6c0.1,0.2,0.2,0.5,0.3,0.8
			s0.1,0.6,0.1,0.9c0,0.2,0,0.4,0,0.6s0,0.5,0.1,0.8c0,0.3,0.1,0.5,0.1,0.7c0.1,0.2,0.2,0.4,0.3,0.6h-2.6c-0.1-0.4-0.2-0.8-0.3-1.3
			c0-0.5-0.1-1-0.1-1.5c-0.1-0.6-0.3-1-0.6-1.3c-0.3-0.3-0.8-0.4-1.4-0.4h-2.6v4.5h-2.6V70.1H62.2z M61.2,75.3c0.6,0,1-0.1,1.3-0.4
			c0.3-0.3,0.4-0.7,0.4-1.3c0-0.6-0.1-1-0.4-1.2c-0.3-0.3-0.7-0.4-1.3-0.4h-2.9v3.3H61.2z"/>
		<path class="st2" d="M73.7,70.1l4.4,11.6h-2.7l-0.9-2.6h-4.4l-0.9,2.6h-2.6L71,70.1H73.7z M73.8,77.2l-1.5-4.2h0l-1.5,4.2H73.8z"
			/>
		<path class="st2" d="M84.3,70.1c0.8,0,1.5,0.1,2.1,0.4c0.7,0.2,1.2,0.6,1.7,1.1c0.5,0.5,0.9,1.1,1.1,1.8c0.3,0.7,0.4,1.6,0.4,2.5
			c0,0.8-0.1,1.6-0.3,2.3c-0.2,0.7-0.6,1.3-1,1.8s-1,0.9-1.7,1.2c-0.7,0.3-1.5,0.4-2.4,0.4h-5.1V70.1H84.3z M84.1,79.5
			c0.4,0,0.7-0.1,1.1-0.2c0.4-0.1,0.7-0.3,0.9-0.6c0.3-0.3,0.5-0.6,0.7-1.1c0.2-0.4,0.2-1,0.2-1.6c0-0.6-0.1-1.1-0.2-1.6
			c-0.1-0.5-0.3-0.9-0.6-1.2c-0.3-0.3-0.6-0.6-1.1-0.8c-0.4-0.2-1-0.3-1.6-0.3h-1.9v7.3H84.1z"/>
		<path class="st2" d="M94.1,70.1v11.6h-2.6V70.1H94.1z"/>
		<path class="st2" d="M99,70.1l5,7.8h0v-7.8h2.4v11.6h-2.6l-4.9-7.7h0v7.7h-2.4V70.1H99z"/>
		<path class="st2" d="M115.7,81.5c-0.6,0.2-1.1,0.3-1.7,0.3c-0.9,0-1.7-0.2-2.5-0.5c-0.7-0.3-1.3-0.7-1.8-1.3
			c-0.5-0.5-0.9-1.2-1.1-1.9c-0.3-0.7-0.4-1.5-0.4-2.4c0-0.9,0.1-1.7,0.4-2.4c0.3-0.7,0.6-1.4,1.1-1.9c0.5-0.6,1.1-1,1.8-1.3
			c0.7-0.3,1.5-0.5,2.5-0.5c0.6,0,1.2,0.1,1.8,0.3c0.6,0.2,1.1,0.4,1.5,0.8c0.5,0.3,0.8,0.8,1.1,1.3c0.3,0.5,0.5,1.1,0.5,1.8h-2.5
			c-0.2-0.6-0.5-1.1-0.9-1.5c-0.4-0.3-1-0.5-1.6-0.5c-0.6,0-1.1,0.1-1.5,0.3c-0.4,0.2-0.7,0.5-1,0.9c-0.3,0.4-0.4,0.8-0.6,1.3
			c-0.1,0.5-0.2,1-0.2,1.5c0,0.5,0.1,1,0.2,1.4c0.1,0.5,0.3,0.9,0.6,1.2c0.3,0.4,0.6,0.7,1,0.9c0.4,0.2,0.9,0.3,1.5,0.3
			c0.9,0,1.5-0.2,2-0.6c0.5-0.4,0.7-1,0.8-1.9h-2.6v-1.9h5v6.3h-1.7l-0.3-1.3C116.8,80.9,116.3,81.3,115.7,81.5z"/>
	</g>
</g>
</svg>
