<?xml version="1.0" encoding="utf-8"?>
<!-- Generator: Adobe Illustrator 26.4.0, SVG Export Plug-In . SVG Version: 6.00 Build 0)  -->
<svg version="1.1" id="Layer_1" xmlns="http://www.w3.org/2000/svg" xmlns:xlink="http://www.w3.org/1999/xlink" x="0px" y="0px"
	 viewBox="0 0 210 80" style="enable-background:new 0 0 210 80;" xml:space="preserve">
<style type="text/css">
	.st0{fill:#FFFFFF;}
	.st1{fill:#047F92;}
	.st2{fill:#17434E;}
	.st3{fill:#A99050;}
</style>
<g>
	<g>
		<path d="M114.8,47.3c-0.7,1.2-1.6,2-2.7,2.5c-1.1,0.5-2.4,0.8-3.8,0.8c-1.6,0-3-0.3-4.2-0.9s-2.2-1.5-3-2.5
			c-0.8-1.1-1.4-2.3-1.8-3.6c-0.4-1.4-0.6-2.8-0.6-4.3s0.2-2.8,0.6-4.1c0.4-1.3,1-2.5,1.8-3.5s1.8-1.8,2.9-2.5s2.6-0.9,4.1-0.9
			c1.3,0,2.5,0.3,3.6,0.8c1.1,0.5,2,1.3,2.7,2.4h0.1V20.6h5.8V50h-5.6L114.8,47.3L114.8,47.3L114.8,47.3z M114.5,36.8
			c-0.2-0.8-0.4-1.5-0.8-2.1c-0.4-0.6-0.9-1.1-1.5-1.5s-1.4-0.6-2.4-0.6s-1.8,0.2-2.4,0.6c-0.7,0.4-1.2,0.9-1.6,1.5
			c-0.4,0.6-0.7,1.3-0.9,2.2c-0.2,0.8-0.3,1.7-0.3,2.5c0,0.8,0.1,1.7,0.3,2.5s0.5,1.6,0.9,2.2s1,1.2,1.6,1.6
			c0.6,0.4,1.4,0.6,2.3,0.6c1,0,1.8-0.2,2.4-0.6c0.6-0.4,1.2-0.9,1.5-1.5s0.7-1.4,0.8-2.2s0.2-1.7,0.2-2.5S114.7,37.6,114.5,36.8
			L114.5,36.8z"/>
		<path d="M130.4,28.8v4h0.1c0.3-0.7,0.6-1.3,1.1-1.8s1-1,1.6-1.4c0.6-0.4,1.2-0.7,1.9-0.9s1.4-0.3,2.1-0.3c0.4,0,0.8,0.1,1.3,0.2
			v5.4c-0.3,0-0.6-0.1-1-0.1c-0.4,0-0.8-0.1-1.1-0.1c-1.1,0-2,0.2-2.7,0.5s-1.3,0.8-1.8,1.5s-0.8,1.3-1,2.2s-0.3,1.7-0.3,2.7V50
			h-5.8V28.8H130.4L130.4,28.8z"/>
		<path d="M150.1,32.7v-3.9h3.5v-1.6c0-1.9,0.6-3.4,1.8-4.6c1.2-1.2,3-1.8,5.4-1.8c0.5,0,1,0,1.6,0.1c0.5,0,1,0.1,1.5,0.1v4.4
			c-0.7-0.1-1.4-0.1-2.1-0.1c-0.8,0-1.4,0.2-1.7,0.6c-0.3,0.4-0.5,1-0.5,1.9v1.3h4v3.9h-4V50h-5.9V32.7L150.1,32.7L150.1,32.7z"/>
		<path d="M172.2,44.9c0.9,0.8,2.1,1.3,3.8,1.3c1.2,0,2.2-0.3,3.1-0.9c0.9-0.6,1.4-1.2,1.6-1.9h5.1c-0.8,2.5-2.1,4.4-3.8,5.5
			c-1.7,1.1-3.8,1.7-6.2,1.7c-1.7,0-3.2-0.3-4.5-0.8c-1.4-0.5-2.5-1.3-3.4-2.3c-0.9-1-1.6-2.2-2.2-3.5s-0.8-2.9-0.8-4.5
			s0.3-3.1,0.8-4.5c0.5-1.4,1.3-2.6,2.2-3.6c1-1,2.1-1.8,3.4-2.4c1.3-0.6,2.8-0.9,4.4-0.9c1.8,0,3.4,0.4,4.7,1
			c1.3,0.7,2.4,1.6,3.3,2.8c0.9,1.2,1.5,2.5,1.9,4c0.4,1.5,0.5,3.1,0.4,4.7h-15.4C170.9,42.7,171.4,44.1,172.2,44.9L172.2,44.9z
			 M178.9,33.7c-0.7-0.8-1.8-1.2-3.2-1.2c-0.9,0-1.7,0.2-2.3,0.5c-0.6,0.3-1.1,0.7-1.5,1.2c-0.4,0.5-0.6,1-0.8,1.5s-0.2,1-0.3,1.4
			h9.5C180,35.6,179.6,34.5,178.9,33.7L178.9,33.7z"/>
		<path d="M195.9,44.9c0.9,0.8,2.1,1.3,3.8,1.3c1.2,0,2.2-0.3,3.1-0.9c0.9-0.6,1.4-1.2,1.6-1.9h5.1c-0.8,2.5-2.1,4.4-3.8,5.5
			c-1.7,1.1-3.8,1.7-6.2,1.7c-1.7,0-3.2-0.3-4.5-0.8c-1.4-0.5-2.5-1.3-3.4-2.3c-0.9-1-1.6-2.2-2.2-3.5s-0.8-2.9-0.8-4.5
			s0.3-3.1,0.8-4.5c0.5-1.4,1.3-2.6,2.2-3.6c1-1,2.1-1.8,3.4-2.4c1.3-0.6,2.8-0.9,4.4-0.9c1.8,0,3.4,0.4,4.7,1
			c1.3,0.7,2.4,1.6,3.3,2.8c0.9,1.2,1.5,2.5,1.9,4c0.4,1.5,0.5,3.1,0.4,4.7h-15.4C194.5,42.7,195,44.1,195.9,44.9L195.9,44.9z
			 M202.5,33.7c-0.7-0.8-1.8-1.2-3.2-1.2c-0.9,0-1.7,0.2-2.3,0.5c-0.6,0.3-1.1,0.7-1.5,1.2c-0.4,0.5-0.6,1-0.8,1.5s-0.2,1-0.3,1.4
			h9.5C203.7,35.6,203.2,34.5,202.5,33.7L202.5,33.7z"/>
	</g>
	<circle class="st0" cx="142.1" cy="45.9" r="4.2"/>
	<g>
		<path class="st1" d="M100,57v0.7h0c0.2-0.3,0.4-0.5,0.7-0.6s0.6-0.2,0.9-0.2c0.4,0,0.8,0.1,1.1,0.2s0.6,0.4,0.8,0.6
			c0.2,0.3,0.3,0.6,0.4,0.9c0.1,0.4,0.2,0.7,0.2,1.1c0,0.4-0.1,0.7-0.2,1c-0.1,0.3-0.2,0.6-0.4,0.9c-0.2,0.3-0.4,0.5-0.8,0.6
			c-0.3,0.2-0.7,0.2-1.1,0.2c-0.3,0-0.7-0.1-0.9-0.2s-0.5-0.3-0.7-0.6h0v2.6h-1.5V57L100,57L100,57z M102,61.3
			c0.2-0.1,0.3-0.2,0.4-0.4s0.2-0.3,0.2-0.5c0-0.2,0.1-0.4,0.1-0.6s0-0.4-0.1-0.6s-0.1-0.4-0.2-0.6c-0.1-0.2-0.2-0.3-0.4-0.4
			s-0.4-0.2-0.6-0.2s-0.4,0-0.6,0.2c-0.2,0.1-0.3,0.2-0.4,0.4c-0.1,0.2-0.2,0.3-0.2,0.6c0,0.2-0.1,0.4-0.1,0.7s0,0.4,0.1,0.6
			s0.1,0.4,0.2,0.5s0.2,0.3,0.4,0.4s0.4,0.2,0.6,0.2S101.8,61.4,102,61.3L102,61.3z"/>
		<path class="st1" d="M105.1,58.5c0.1-0.3,0.3-0.7,0.6-0.9s0.5-0.4,0.9-0.6c0.3-0.1,0.7-0.2,1.2-0.2s0.8,0.1,1.2,0.2
			s0.7,0.3,0.9,0.6c0.2,0.2,0.4,0.5,0.6,0.9s0.2,0.8,0.2,1.2s-0.1,0.8-0.2,1.2s-0.3,0.7-0.6,0.9s-0.5,0.4-0.9,0.6s-0.7,0.2-1.2,0.2
			s-0.8-0.1-1.2-0.2s-0.6-0.3-0.9-0.6s-0.4-0.5-0.6-0.9c-0.1-0.3-0.2-0.8-0.2-1.2S105,58.9,105.1,58.5z M106.4,60.3
			c0,0.2,0.1,0.4,0.2,0.6s0.2,0.3,0.4,0.4s0.4,0.2,0.6,0.2s0.5,0,0.6-0.2c0.2-0.1,0.3-0.2,0.4-0.4s0.2-0.3,0.2-0.6
			c0-0.2,0.1-0.4,0.1-0.6s0-0.4-0.1-0.6s-0.1-0.4-0.2-0.6s-0.2-0.3-0.4-0.4c-0.2-0.1-0.4-0.2-0.6-0.2s-0.5,0-0.6,0.2
			s-0.3,0.2-0.4,0.4s-0.2,0.3-0.2,0.6s-0.1,0.4-0.1,0.6S106.4,60.1,106.4,60.3z"/>
		<path class="st1" d="M116.2,62.4l-1-3.7h0l-0.9,3.7h-1.6L111,57h1.6l1,3.7h0l0.9-3.7h1.5l0.9,3.7h0l1-3.7h1.5l-1.7,5.5
			C117.7,62.4,116.2,62.4,116.2,62.4z"/>
		<path class="st1" d="M121.7,61.1c0.2,0.2,0.6,0.3,1,0.3c0.3,0,0.6-0.1,0.8-0.2c0.2-0.2,0.3-0.3,0.4-0.5h1.3
			c-0.2,0.7-0.5,1.1-1,1.4s-1,0.4-1.6,0.4c-0.4,0-0.8-0.1-1.2-0.2c-0.3-0.1-0.6-0.3-0.9-0.6c-0.2-0.2-0.4-0.6-0.6-0.9
			c-0.1-0.3-0.2-0.7-0.2-1.2s0.1-0.8,0.2-1.1s0.3-0.7,0.6-0.9s0.5-0.5,0.9-0.6s0.7-0.2,1.1-0.2c0.5,0,0.9,0.1,1.2,0.3
			s0.6,0.4,0.8,0.7s0.4,0.7,0.5,1s0.1,0.8,0.1,1.2h-3.9C121.3,60.5,121.4,60.9,121.7,61.1L121.7,61.1z M123.4,58.2
			c-0.2-0.2-0.4-0.3-0.8-0.3c-0.2,0-0.4,0-0.6,0.1c-0.2,0.1-0.3,0.2-0.4,0.3c-0.1,0.1-0.2,0.2-0.2,0.4c0,0.1-0.1,0.2-0.1,0.4h2.4
			C123.7,58.7,123.5,58.4,123.4,58.2L123.4,58.2z"/>
		<path class="st1" d="M127.6,57v1h0c0.1-0.2,0.2-0.3,0.3-0.5s0.3-0.3,0.4-0.4s0.3-0.2,0.5-0.2s0.4-0.1,0.6-0.1c0.1,0,0.2,0,0.3,0
			v1.4c-0.1,0-0.1,0-0.2,0c-0.1,0-0.2,0-0.3,0c-0.3,0-0.5,0-0.7,0.1s-0.3,0.2-0.5,0.4s-0.2,0.3-0.2,0.5s-0.1,0.4-0.1,0.7v2.5h-1.5
			v-5.5L127.6,57L127.6,57z"/>
		<path class="st1" d="M131.6,61.1c0.2,0.2,0.6,0.3,1,0.3c0.3,0,0.6-0.1,0.8-0.2c0.2-0.2,0.4-0.3,0.4-0.5h1.3
			c-0.2,0.7-0.5,1.1-1,1.4s-1,0.4-1.6,0.4c-0.4,0-0.8-0.1-1.2-0.2s-0.6-0.3-0.9-0.6c-0.2-0.2-0.4-0.6-0.6-0.9s-0.2-0.7-0.2-1.2
			s0.1-0.8,0.2-1.1s0.3-0.7,0.6-0.9s0.5-0.5,0.9-0.6s0.7-0.2,1.1-0.2c0.5,0,0.9,0.1,1.2,0.3c0.3,0.2,0.6,0.4,0.9,0.7s0.4,0.7,0.5,1
			s0.1,0.8,0.1,1.2h-3.9C131.3,60.5,131.4,60.9,131.6,61.1L131.6,61.1z M133.3,58.2c-0.2-0.2-0.4-0.3-0.8-0.3c-0.2,0-0.4,0-0.6,0.1
			c-0.2,0.1-0.3,0.2-0.4,0.3c-0.1,0.1-0.2,0.2-0.2,0.4s-0.1,0.2-0.1,0.4h2.4C133.6,58.7,133.5,58.4,133.3,58.2L133.3,58.2z"/>
		<path class="st1" d="M140,61.7c-0.2,0.3-0.4,0.5-0.7,0.6s-0.6,0.2-1,0.2c-0.4,0-0.8-0.1-1.1-0.2s-0.6-0.4-0.8-0.6
			s-0.4-0.6-0.4-0.9c-0.1-0.3-0.1-0.7-0.1-1.1s0.1-0.7,0.1-1.1c0.1-0.3,0.2-0.6,0.4-0.9c0.2-0.3,0.4-0.5,0.8-0.6s0.6-0.2,1.1-0.2
			c0.3,0,0.6,0.1,0.9,0.2s0.5,0.3,0.7,0.6h0v-2.7h1.5v7.5H140L140,61.7L140,61.7L140,61.7z M139.9,59c0-0.2-0.1-0.4-0.2-0.5
			s-0.2-0.3-0.4-0.4c-0.2-0.1-0.4-0.2-0.6-0.2s-0.4,0-0.6,0.2c-0.2,0.1-0.3,0.2-0.4,0.4c-0.1,0.2-0.2,0.3-0.2,0.5
			c-0.1,0.2-0.1,0.4-0.1,0.7c0,0.2,0,0.4,0.1,0.6s0.1,0.4,0.2,0.6s0.2,0.3,0.4,0.4c0.2,0.1,0.4,0.2,0.6,0.2c0.2,0,0.4,0,0.6-0.2
			c0.2-0.1,0.3-0.2,0.4-0.4c0.1-0.2,0.2-0.3,0.2-0.6c0-0.2,0.1-0.4,0.1-0.7S140,59.2,139.9,59L139.9,59z"/>
		<path class="st1" d="M147,54.9v2.7h0c0.2-0.3,0.4-0.5,0.7-0.6c0.3-0.1,0.6-0.2,1-0.2c0.3,0,0.5,0.1,0.8,0.2
			c0.3,0.1,0.5,0.3,0.7,0.5s0.4,0.5,0.5,0.9s0.2,0.8,0.2,1.3s-0.1,0.9-0.2,1.3c-0.1,0.4-0.3,0.7-0.5,0.9s-0.5,0.4-0.7,0.5
			c-0.3,0.1-0.5,0.2-0.8,0.2c-0.4,0-0.8-0.1-1.1-0.2c-0.3-0.1-0.6-0.3-0.7-0.6h0v0.7h-1.4v-7.5C145.5,54.9,147,54.9,147,54.9z
			 M149.4,59c-0.1-0.2-0.1-0.4-0.2-0.6c-0.1-0.2-0.2-0.3-0.4-0.4s-0.4-0.1-0.6-0.1s-0.4,0-0.6,0.1s-0.3,0.2-0.4,0.4
			c-0.1,0.2-0.2,0.3-0.2,0.6s-0.1,0.4-0.1,0.7s0,0.4,0.1,0.7c0.1,0.2,0.1,0.4,0.2,0.6s0.2,0.3,0.4,0.4c0.2,0.1,0.4,0.1,0.6,0.1
			s0.4,0,0.6-0.1c0.2-0.1,0.3-0.2,0.4-0.4s0.2-0.3,0.2-0.6c0.1-0.2,0.1-0.4,0.1-0.7S149.5,59.3,149.4,59z"/>
		<path class="st1" d="M153.9,64.1c-0.3,0.2-0.7,0.3-1.2,0.3c-0.1,0-0.3,0-0.5,0c-0.1,0-0.3,0-0.5,0V63c0.1,0,0.3,0,0.4,0
			c0.1,0,0.3,0,0.4,0c0.2,0,0.3-0.1,0.4-0.2c0.1-0.1,0.1-0.3,0.1-0.4c0-0.1,0-0.2-0.1-0.3l-1.9-5.1h1.6l1.2,3.7h0l1.2-3.7h1.6
			l-2.3,6.1C154.4,63.5,154.2,63.8,153.9,64.1L153.9,64.1z"/>
		<path class="st1" d="M161.8,54.9v2.8h0c0.2-0.3,0.4-0.5,0.7-0.7s0.6-0.2,0.9-0.2c0.4,0,0.7,0,1,0.2c0.3,0.1,0.5,0.3,0.6,0.5
			c0.1,0.2,0.2,0.4,0.3,0.7s0.1,0.6,0.1,0.9v3.4H164v-3.1c0-0.5-0.1-0.8-0.2-1c-0.1-0.2-0.4-0.3-0.8-0.3c-0.4,0-0.7,0.1-0.9,0.4
			c-0.2,0.2-0.3,0.6-0.3,1.2v2.9h-1.5v-7.5H161.8L161.8,54.9z"/>
		<path class="st1" d="M166.6,58.5c0.1-0.3,0.3-0.7,0.6-0.9s0.5-0.4,0.9-0.6c0.3-0.1,0.7-0.2,1.2-0.2s0.8,0.1,1.2,0.2
			c0.4,0.1,0.6,0.3,0.9,0.6c0.2,0.2,0.4,0.5,0.6,0.9s0.2,0.8,0.2,1.2s-0.1,0.8-0.2,1.2c-0.1,0.3-0.3,0.7-0.6,0.9s-0.5,0.4-0.9,0.6
			s-0.7,0.2-1.2,0.2s-0.8-0.1-1.2-0.2s-0.6-0.3-0.9-0.6s-0.4-0.5-0.6-0.9c-0.1-0.3-0.2-0.8-0.2-1.2S166.5,58.9,166.6,58.5z
			 M168,60.3c0,0.2,0.1,0.4,0.2,0.6s0.2,0.3,0.4,0.4s0.4,0.2,0.6,0.2s0.5,0,0.6-0.2c0.2-0.1,0.3-0.2,0.4-0.4s0.2-0.3,0.2-0.6
			c0-0.2,0.1-0.4,0.1-0.6s0-0.4-0.1-0.6s-0.1-0.4-0.2-0.6s-0.2-0.3-0.4-0.4c-0.2-0.1-0.4-0.2-0.6-0.2s-0.5,0-0.6,0.2
			s-0.3,0.2-0.4,0.4s-0.2,0.3-0.2,0.6s-0.1,0.4-0.1,0.6S168,60.1,168,60.3z"/>
		<path class="st1" d="M175.6,58c-0.2,0-0.4,0-0.6,0.2s-0.3,0.2-0.4,0.4c-0.1,0.2-0.2,0.4-0.2,0.6c0,0.2-0.1,0.4-0.1,0.6
			s0,0.4,0.1,0.6s0.1,0.4,0.2,0.5c0.1,0.2,0.2,0.3,0.4,0.4c0.2,0.1,0.4,0.2,0.6,0.2c0.4,0,0.6-0.1,0.8-0.3c0.2-0.2,0.3-0.5,0.4-0.8
			h1.4c-0.1,0.7-0.4,1.3-0.8,1.7c-0.5,0.4-1.1,0.6-1.8,0.6c-0.4,0-0.8-0.1-1.1-0.2s-0.6-0.3-0.9-0.6c-0.2-0.2-0.4-0.5-0.6-0.9
			s-0.2-0.7-0.2-1.1s0.1-0.8,0.2-1.2s0.3-0.7,0.5-0.9s0.5-0.5,0.9-0.6s0.7-0.2,1.2-0.2c0.3,0,0.6,0,0.9,0.1c0.3,0.1,0.6,0.2,0.8,0.4
			c0.2,0.2,0.4,0.4,0.6,0.6c0.1,0.3,0.2,0.6,0.2,0.9h-1.5C176.6,58.2,176.3,57.9,175.6,58L175.6,58z"/>
		<path class="st1" d="M182.3,58.9v1.3h-3.2v-1.3H182.3z"/>
		<path class="st1" d="M186.4,57v1h-1.1v2.7c0,0.2,0,0.4,0.1,0.5c0.1,0.1,0.2,0.1,0.5,0.1c0.1,0,0.2,0,0.2,0c0.1,0,0.1,0,0.2,0v1.2
			c-0.1,0-0.3,0-0.4,0s-0.3,0-0.4,0c-0.2,0-0.4,0-0.7,0s-0.4-0.1-0.6-0.2s-0.3-0.2-0.4-0.4s-0.1-0.4-0.1-0.7V58h-0.9v-1h0.9v-1.6
			h1.5V57L186.4,57L186.4,57z"/>
		<path class="st1" d="M188.5,57v1h0c0.1-0.2,0.2-0.3,0.3-0.5s0.3-0.3,0.4-0.4c0.1-0.1,0.3-0.2,0.5-0.2s0.4-0.1,0.6-0.1
			c0.1,0,0.2,0,0.3,0v1.4c-0.1,0-0.1,0-0.2,0c-0.1,0-0.2,0-0.3,0c-0.3,0-0.5,0-0.7,0.1s-0.3,0.2-0.5,0.4s-0.2,0.3-0.2,0.5
			s-0.1,0.4-0.1,0.7v2.5h-1.5v-5.5L188.5,57L188.5,57z"/>
		<path class="st1" d="M191.1,58.7c0-0.3,0.1-0.6,0.3-0.9c0.1-0.2,0.4-0.4,0.6-0.6s0.5-0.2,0.8-0.3s0.6-0.1,0.9-0.1
			c0.3,0,0.6,0,0.8,0.1s0.5,0.1,0.8,0.2s0.4,0.3,0.6,0.5c0.1,0.2,0.2,0.5,0.2,0.8v2.8c0,0.2,0,0.5,0,0.7s0.1,0.4,0.1,0.5h-1.5
			c0-0.1-0.1-0.2-0.1-0.3s0-0.2,0-0.3c-0.2,0.2-0.5,0.4-0.8,0.5c-0.3,0.1-0.6,0.2-1,0.2c-0.3,0-0.5,0-0.7-0.1s-0.4-0.2-0.6-0.3
			s-0.3-0.3-0.4-0.5c-0.1-0.2-0.1-0.5-0.1-0.7c0-0.3,0.1-0.6,0.2-0.8c0.1-0.2,0.2-0.4,0.4-0.5s0.4-0.2,0.6-0.3s0.4-0.1,0.7-0.1
			s0.4-0.1,0.7-0.1c0.2,0,0.4,0,0.6-0.1s0.3-0.1,0.4-0.2c0.1-0.1,0.1-0.2,0.1-0.3c0-0.2,0-0.3-0.1-0.4c-0.1-0.1-0.1-0.2-0.2-0.2
			s-0.2-0.1-0.3-0.1s-0.2,0-0.4,0c-0.3,0-0.5,0.1-0.7,0.2c-0.2,0.1-0.3,0.3-0.3,0.6L191.1,58.7L191.1,58.7z M194.6,59.8
			c-0.1,0.1-0.1,0.1-0.2,0.1c-0.1,0-0.2,0.1-0.3,0.1s-0.2,0-0.3,0s-0.2,0-0.4,0c-0.1,0-0.2,0-0.3,0.1s-0.2,0.1-0.3,0.1
			c-0.1,0.1-0.1,0.1-0.2,0.2s-0.1,0.2-0.1,0.3s0,0.2,0.1,0.3s0.1,0.2,0.2,0.2c0.1,0,0.2,0.1,0.3,0.1c0.1,0,0.2,0,0.4,0
			c0.3,0,0.5,0,0.7-0.2c0.2-0.1,0.3-0.2,0.4-0.3c0.1-0.1,0.1-0.3,0.1-0.4s0-0.2,0-0.3L194.6,59.8L194.6,59.8z"/>
		<path class="st1" d="M201.1,61.7c-0.2,0.3-0.4,0.5-0.7,0.6s-0.6,0.2-1,0.2c-0.4,0-0.8-0.1-1.1-0.2s-0.6-0.4-0.8-0.6
			s-0.4-0.6-0.4-0.9c-0.1-0.3-0.1-0.7-0.1-1.1s0.1-0.7,0.1-1.1c0.1-0.3,0.2-0.6,0.4-0.9c0.2-0.3,0.4-0.5,0.8-0.6s0.6-0.2,1.1-0.2
			c0.3,0,0.6,0.1,0.9,0.2s0.5,0.3,0.7,0.6h0v-2.7h1.5v7.5h-1.4L201.1,61.7L201.1,61.7L201.1,61.7z M201.1,59c0-0.2-0.1-0.4-0.2-0.5
			s-0.2-0.3-0.4-0.4c-0.2-0.1-0.4-0.2-0.6-0.2s-0.4,0-0.6,0.2c-0.2,0.1-0.3,0.2-0.4,0.4c-0.1,0.2-0.2,0.3-0.2,0.5
			c-0.1,0.2-0.1,0.4-0.1,0.7c0,0.2,0,0.4,0.1,0.6s0.1,0.4,0.2,0.6s0.2,0.3,0.4,0.4c0.2,0.1,0.4,0.2,0.6,0.2c0.2,0,0.4,0,0.6-0.2
			c0.2-0.1,0.3-0.2,0.4-0.4c0.1-0.2,0.2-0.3,0.2-0.6c0-0.2,0.1-0.4,0.1-0.7S201.1,59.2,201.1,59L201.1,59z"/>
		<path class="st1" d="M205.3,61.1c0.2,0.2,0.6,0.3,1,0.3c0.3,0,0.6-0.1,0.8-0.2c0.2-0.2,0.4-0.3,0.4-0.5h1.3
			c-0.2,0.7-0.5,1.1-1,1.4s-1,0.4-1.6,0.4c-0.4,0-0.8-0.1-1.2-0.2s-0.6-0.3-0.9-0.6c-0.2-0.2-0.4-0.6-0.6-0.9s-0.2-0.7-0.2-1.2
			s0.1-0.8,0.2-1.1s0.3-0.7,0.6-0.9s0.5-0.5,0.9-0.6s0.7-0.2,1.1-0.2c0.5,0,0.9,0.1,1.2,0.3c0.3,0.2,0.6,0.4,0.9,0.7s0.4,0.7,0.5,1
			s0.1,0.8,0.1,1.2H205C205,60.5,205.1,60.9,205.3,61.1L205.3,61.1z M207,58.2c-0.2-0.2-0.4-0.3-0.8-0.3c-0.2,0-0.4,0-0.6,0.1
			c-0.2,0.1-0.3,0.2-0.4,0.3c-0.1,0.1-0.2,0.2-0.2,0.4s-0.1,0.2-0.1,0.4h2.4C207.3,58.7,207.2,58.4,207,58.2L207,58.2z"/>
	</g>
</g>
<g>
	<g>
		<polygon class="st2" points="14.4,25.6 14.4,59 43.3,75.8 43.3,8.9 		"/>
		<polygon class="st1" points="43.3,8.9 43.3,75.8 72.2,59 72.2,25.6 		"/>
	</g>
	<polygon class="st0" points="43.3,4.2 0.2,29.2 43.3,54.2 86.5,29.2 	"/>
	<polygon class="st3" points="86.4,29.2 81.7,31.9 81.7,53.6 86.4,50.8 	"/>
</g>
</svg>
