<?xml version="1.0" encoding="utf-8"?>
<!-- Generator: Adobe Illustrator 26.3.1, SVG Export Plug-In . SVG Version: 6.00 Build 0)  -->
<svg version="1.1" id="a" xmlns="http://www.w3.org/2000/svg" xmlns:xlink="http://www.w3.org/1999/xlink" x="0px" y="0px"
	 viewBox="0 0 40 40" style="enable-background:new 0 0 40 40;" xml:space="preserve">
<style type="text/css">
	.st0{fill:#06AFC9;}
</style>
<g>
	<path class="st0" d="M27.4,3.9H12.6c-4.8,0-8.7,3.9-8.7,8.7v14.8c0,4.8,3.9,8.7,8.7,8.7h14.8c4.8,0,8.7-3.9,8.7-8.7V12.6
		C36.1,7.8,32.2,3.9,27.4,3.9z M33.2,27.4c0,3.2-2.6,5.9-5.9,5.9H12.6c-3.2,0-5.9-2.6-5.9-5.9V12.6c0-3.2,2.6-5.9,5.9-5.9h14.8
		c3.2,0,5.9,2.6,5.9,5.9v14.7h-0.1V27.4z"/>
	<path class="st0" d="M20,11.5c-4.7,0-8.5,3.8-8.5,8.5s3.8,8.5,8.5,8.5s8.5-3.8,8.5-8.5S24.7,11.5,20,11.5z M20,25.6
		c-3.1,0-5.6-2.5-5.6-5.6s2.5-5.6,5.6-5.6s5.6,2.5,5.6,5.6S23.1,25.6,20,25.6z"/>
	<circle class="st0" cx="28.6" cy="11.1" r="1.8"/>
</g>
</svg>
