<?xml version="1.0" encoding="UTF-8"?><svg id="Layer_1" xmlns="http://www.w3.org/2000/svg" viewBox="0 0 60 60"><path d="M13.65,13.05h9.97c.37,0,.67,.3,.67,.67v9.97c0,.37-.3,.67-.67,.67H13.65c-.37,0-.67-.3-.67-.67V13.72c0-.37,.3-.67,.67-.67Z"/><path d="M36.38,13.05h9.97c.37,0,.67,.3,.67,.67v9.97c0,.37-.3,.67-.67,.67h-9.97c-.37,0-.67-.3-.67-.67V13.72c0-.37,.3-.67,.67-.67Z"/><path d="M25.02,24.29h9.97c.37,0,.67,.3,.67,.67v9.97c0,.37-.3,.67-.67,.67h-9.97c-.37,0-.67-.3-.67-.67v-9.97c0-.37,.3-.67,.67-.67Z"/><path d="M13.65,35.54h9.97c.37,0,.67,.3,.67,.67v9.97c0,.37-.3,.67-.67,.67H13.65c-.37,0-.67-.3-.67-.67v-9.97c0-.37,.3-.67,.67-.67Z"/><path d="M36.38,35.54h9.97c.37,0,.67,.3,.67,.67v9.97c0,.37-.3,.67-.67,.67h-9.97c-.37,0-.67-.3-.67-.67v-9.97c0-.37,.3-.67,.67-.67Z"/></svg>