<?xml version="1.0" encoding="UTF-8"?><svg id="Layer_1" xmlns="http://www.w3.org/2000/svg" viewBox="0 0 60 60"><defs><style>.cls-1{fill:none;}.cls-2{fill:#ef281a;}</style></defs><path class="cls-2" d="M52.8,43.53s-5.53-7.05-12.65-12.95c-.56-.46-1.13-.91-1.71-1.34,.12-.1,.25-.2,.37-.3,7.54-6.14,12.34-12.46,12.34-12.46l-14.23,2.68s-2.05,2.42-6.06,5.36c-3.36-1.77-5.86-2.74-5.86-2.74l-15.69,3.34s7.01,2.04,12.89,4.53c-7.18,3.43-15.02,5.69-15.02,5.69l16.3,3.41s3.19-1.5,7.46-4.18c4.32,3.12,7.93,6.55,7.93,6.55l13.92,2.43Z"/><rect class="cls-1" x="0" y="0" width="60" height="60" rx="30" ry="30"/></svg>