<?xml version="1.0" encoding="utf-8"?>
<!-- Generator: Adobe Illustrator 26.3.1, SVG Export Plug-In . SVG Version: 6.00 Build 0)  -->
<svg version="1.1" id="a" xmlns="http://www.w3.org/2000/svg" xmlns:xlink="http://www.w3.org/1999/xlink" x="0px" y="0px"
	 viewBox="0 0 40 40" style="enable-background:new 0 0 40 40;" xml:space="preserve">
<style type="text/css">
	.st0{fill:#06AFC9;}
</style>
<path id="b" class="st0" d="M35.5,6.8c-1.3,0.8-2.7,1.4-4.3,1.7c-1.2-1.3-3-2.2-4.9-2.2c-3.7,0-6.7,3.1-6.7,6.9
	c0,0.5,0.1,1.1,0.2,1.6c-5.6-0.3-10.6-3-13.9-7.2c-0.6,1-0.9,2.2-0.9,3.5c0,2.4,1.2,4.5,3,5.7c-1.1,0-2.1-0.3-3.1-0.9V16
	c0,3.3,2.3,6.1,5.4,6.8C9.7,23,9.1,23,8.5,23c-0.4,0-0.9,0-1.3-0.1c0.9,2.7,3.3,4.7,6.3,4.8c-2.3,1.9-5.2,3-8.4,3
	c-0.5,0-1.1,0-1.6-0.1c3,2,6.5,3.1,10.3,3.1c12.4,0,19.2-10.5,19.2-19.7c0-0.3,0-0.6,0-0.9c1.3-1,2.5-2.2,3.4-3.6
	c-1.2,0.5-2.5,0.9-3.9,1.1C33.9,9.8,35,8.4,35.5,6.8z"/>
</svg>
