<?xml version="1.0" encoding="UTF-8"?><svg id="Layer_1" xmlns="http://www.w3.org/2000/svg" viewBox="0 0 60 60"><defs><style>.cls-1{fill:#6f58de;}</style></defs><path class="cls-1" d="M48.37,28.78c-2.25-8.04-9.62-13.93-18.37-13.93s-16.13,5.9-18.37,13.93c-.46,1.64-.71,3.36-.71,5.15v8.5c0,1.51,1.22,2.73,2.73,2.73,.29,0,.57-.05,.84-.13,1.1-.35,1.89-1.38,1.89-2.59v-8.47c0-1.51,1.22-2.73,2.73-2.73s2.73,1.22,2.73,2.73v8.47c0,1.51,1.22,2.73,2.73,2.73s2.73-1.22,2.73-2.73v-8.47c0-1.51,1.22-2.73,2.73-2.73s2.73,1.22,2.73,2.73v8.47c0,1.51,1.22,2.73,2.73,2.73s2.73-1.22,2.73-2.73v-8.47c0-1.51,1.22-2.73,2.73-2.73s2.73,1.22,2.73,2.73v8.47c0,1.21,.79,2.24,1.89,2.59,.26,.09,.55,.13,.84,.13,1.51,0,2.73-1.22,2.73-2.73v-8.5c0-1.78-.25-3.51-.71-5.15Z"/></svg>