<?xml version="1.0" encoding="UTF-8"?><svg id="Layer_1" xmlns="http://www.w3.org/2000/svg" viewBox="0 0 60 60"><defs><style>.cls-1{fill:none;}.cls-2{fill:#00be72;}</style></defs><path class="cls-2" d="M47.29,30c0-.25,0-.49-.02-.73h3.84l1.04-3.06h-5.19c-1.54-8.93-8.57-14.12-17-14.12-9.57,0-17.32,6.54-17.32,17.91s7.75,17.91,17.32,17.91c8.17,0,15.01-5.02,16.84-13.36h3.33l1.04-3.06h-3.95c.03-.49,.05-.99,.05-1.5Zm-17.32,12.85c-4.06,0-7.34-4.69-7.34-12.85,0-9.08,3.29-12.85,7.34-12.85,3.37,0,6.21,3.31,7.07,9.06h-4.78l-1.04,3.06h6.09c0,.24,0,.48,0,.73,0,.52-.01,1.01-.03,1.5h-5.99l-1.04,3.06h6.73c-.93,5.77-3.72,8.29-7.01,8.29Z"/><rect class="cls-1" x="0" y="0" width="60" height="60" rx="30" ry="30"/></svg>