<?xml version="1.0" encoding="UTF-8"?><svg id="Layer_1" xmlns="http://www.w3.org/2000/svg" viewBox="0 0 60 60"><defs><style>.cls-1{fill:#0069fc;}</style></defs><path class="cls-1" d="M30,10.96c-10.51,0-19.04,8.52-19.04,19.04s8.52,19.04,19.04,19.04,19.04-8.52,19.04-19.04S40.51,10.96,30,10.96Zm0,32.71c-7.55,0-13.67-6.12-13.67-13.67s6.12-13.67,13.67-13.67,13.11,5.58,13.63,12.66h-6.92c-.49-3.27-3.3-5.78-6.71-5.78-3.75,0-6.79,3.04-6.79,6.79s3.04,6.79,6.79,6.79c3.41,0,6.22-2.51,6.71-5.78h6.92c-.52,7.08-6.42,12.66-13.63,12.66Z"/></svg>