<?xml version="1.0" encoding="utf-8"?>
<!-- Generator: Adobe Illustrator 26.4.1, SVG Export Plug-In . SVG Version: 6.00 Build 0)  -->
<svg version="1.1" id="Layer_1" xmlns="http://www.w3.org/2000/svg" xmlns:xlink="http://www.w3.org/1999/xlink" x="0px" y="0px"
	 viewBox="0 0 210 202" style="enable-background:new 0 0 210 202;" xml:space="preserve">
<style type="text/css">
	.st0{fill:#FFFFFF;}
	.st1{fill:#17434E;}
	.st2{fill:#047F92;}
	.st3{fill:#A99050;}
</style>
<g>
	<g>
		<path class="st0" d="M35.5,191.1v0.9h0c0.2-0.4,0.5-0.7,0.9-0.8c0.4-0.2,0.8-0.3,1.2-0.3c0.6,0,1,0.1,1.4,0.3
			c0.4,0.2,0.7,0.5,1,0.8c0.3,0.3,0.5,0.7,0.6,1.2c0.1,0.5,0.2,0.9,0.2,1.4c0,0.5-0.1,0.9-0.2,1.4c-0.1,0.4-0.3,0.8-0.6,1.2
			c-0.3,0.3-0.6,0.6-1,0.8c-0.4,0.2-0.8,0.3-1.4,0.3c-0.4,0-0.8-0.1-1.2-0.3c-0.4-0.2-0.7-0.4-0.9-0.8h0v3.3h-1.9v-9.5H35.5z
			 M38,196.7c0.2-0.1,0.4-0.3,0.5-0.5c0.1-0.2,0.2-0.4,0.3-0.7c0.1-0.3,0.1-0.5,0.1-0.8c0-0.3,0-0.6-0.1-0.8
			c-0.1-0.3-0.2-0.5-0.3-0.7c-0.1-0.2-0.3-0.4-0.5-0.5c-0.2-0.1-0.5-0.2-0.8-0.2c-0.3,0-0.6,0.1-0.8,0.2c-0.2,0.1-0.4,0.3-0.5,0.5
			c-0.1,0.2-0.2,0.4-0.3,0.7c-0.1,0.3-0.1,0.6-0.1,0.8c0,0.3,0,0.6,0.1,0.8c0.1,0.3,0.2,0.5,0.3,0.7c0.1,0.2,0.3,0.4,0.5,0.5
			c0.2,0.1,0.5,0.2,0.8,0.2C37.6,196.9,37.8,196.8,38,196.7z"/>
		<path class="st0" d="M42,193.1c0.2-0.5,0.4-0.8,0.7-1.2c0.3-0.3,0.7-0.6,1.1-0.7c0.4-0.2,0.9-0.3,1.5-0.3c0.6,0,1.1,0.1,1.5,0.3
			c0.4,0.2,0.8,0.4,1.2,0.7c0.3,0.3,0.6,0.7,0.7,1.2c0.2,0.5,0.3,1,0.3,1.5c0,0.6-0.1,1.1-0.3,1.5c-0.2,0.5-0.4,0.8-0.7,1.2
			c-0.3,0.3-0.7,0.6-1.2,0.7c-0.4,0.2-1,0.3-1.5,0.3c-0.6,0-1.1-0.1-1.5-0.3c-0.4-0.2-0.8-0.4-1.1-0.7c-0.3-0.3-0.6-0.7-0.7-1.2
			c-0.2-0.5-0.3-1-0.3-1.5C41.8,194.1,41.9,193.5,42,193.1z M43.8,195.4c0.1,0.3,0.1,0.5,0.3,0.7c0.1,0.2,0.3,0.4,0.5,0.5
			c0.2,0.1,0.5,0.2,0.8,0.2c0.3,0,0.6-0.1,0.8-0.2c0.2-0.1,0.4-0.3,0.5-0.5c0.1-0.2,0.2-0.5,0.3-0.7c0.1-0.3,0.1-0.5,0.1-0.8
			c0-0.3,0-0.6-0.1-0.8c-0.1-0.3-0.1-0.5-0.3-0.7c-0.1-0.2-0.3-0.4-0.5-0.5c-0.2-0.1-0.5-0.2-0.8-0.2c-0.3,0-0.6,0.1-0.8,0.2
			c-0.2,0.1-0.4,0.3-0.5,0.5c-0.1,0.2-0.2,0.4-0.3,0.7c-0.1,0.3-0.1,0.5-0.1,0.8C43.7,194.9,43.8,195.2,43.8,195.4z"/>
		<path class="st0" d="M56.4,198.1l-1.3-4.7h0l-1.2,4.7h-2l-2.2-7h2l1.3,4.8h0l1.2-4.8h1.9l1.2,4.8h0l1.3-4.8h2l-2.2,7H56.4z"/>
		<path class="st0" d="M63.5,196.4c0.3,0.3,0.7,0.4,1.3,0.4c0.4,0,0.7-0.1,1-0.3c0.3-0.2,0.5-0.4,0.5-0.6H68
			c-0.3,0.8-0.7,1.4-1.3,1.8c-0.6,0.4-1.2,0.5-2,0.5c-0.6,0-1.1-0.1-1.5-0.3c-0.4-0.2-0.8-0.4-1.1-0.8c-0.3-0.3-0.5-0.7-0.7-1.2
			c-0.2-0.5-0.3-1-0.3-1.5c0-0.5,0.1-1,0.3-1.5c0.2-0.5,0.4-0.8,0.7-1.2c0.3-0.3,0.7-0.6,1.1-0.8c0.4-0.2,0.9-0.3,1.5-0.3
			c0.6,0,1.1,0.1,1.6,0.3c0.4,0.2,0.8,0.5,1.1,0.9s0.5,0.8,0.6,1.3c0.1,0.5,0.2,1,0.1,1.6H63C63,195.7,63.2,196.2,63.5,196.4z
			 M65.7,192.7c-0.2-0.3-0.6-0.4-1.1-0.4c-0.3,0-0.6,0.1-0.8,0.2c-0.2,0.1-0.4,0.2-0.5,0.4c-0.1,0.2-0.2,0.3-0.3,0.5
			c-0.1,0.2-0.1,0.3-0.1,0.5h3.1C66.1,193.4,65.9,193,65.7,192.7z"/>
		<path class="st0" d="M71.1,191.1v1.3h0c0.1-0.2,0.2-0.4,0.4-0.6c0.2-0.2,0.3-0.3,0.5-0.5c0.2-0.1,0.4-0.2,0.6-0.3
			c0.2-0.1,0.5-0.1,0.7-0.1c0.1,0,0.3,0,0.4,0.1v1.8c-0.1,0-0.2,0-0.3,0c-0.1,0-0.2,0-0.4,0c-0.4,0-0.7,0.1-0.9,0.2
			c-0.2,0.1-0.4,0.3-0.6,0.5c-0.1,0.2-0.3,0.4-0.3,0.7c-0.1,0.3-0.1,0.6-0.1,0.9v3.2h-1.9v-7H71.1z"/>
		<path class="st0" d="M76.4,196.4c0.3,0.3,0.7,0.4,1.3,0.4c0.4,0,0.7-0.1,1-0.3c0.3-0.2,0.5-0.4,0.5-0.6h1.7
			c-0.3,0.8-0.7,1.4-1.3,1.8c-0.6,0.4-1.2,0.5-2,0.5c-0.6,0-1.1-0.1-1.5-0.3c-0.4-0.2-0.8-0.4-1.1-0.8c-0.3-0.3-0.5-0.7-0.7-1.2
			c-0.2-0.5-0.3-1-0.3-1.5c0-0.5,0.1-1,0.3-1.5c0.2-0.5,0.4-0.8,0.7-1.2c0.3-0.3,0.7-0.6,1.1-0.8c0.4-0.2,0.9-0.3,1.5-0.3
			c0.6,0,1.1,0.1,1.6,0.3c0.4,0.2,0.8,0.5,1.1,0.9s0.5,0.8,0.6,1.3c0.1,0.5,0.2,1,0.1,1.6h-5.1C75.9,195.7,76.1,196.2,76.4,196.4z
			 M78.5,192.7c-0.2-0.3-0.6-0.4-1.1-0.4c-0.3,0-0.6,0.1-0.8,0.2c-0.2,0.1-0.4,0.2-0.5,0.4c-0.1,0.2-0.2,0.3-0.3,0.5
			c-0.1,0.2-0.1,0.3-0.1,0.5H79C78.9,193.4,78.8,193,78.5,192.7z"/>
		<path class="st0" d="M87.1,197.2c-0.2,0.4-0.5,0.7-0.9,0.8c-0.4,0.2-0.8,0.3-1.2,0.3c-0.5,0-1-0.1-1.4-0.3c-0.4-0.2-0.7-0.5-1-0.8
			c-0.3-0.3-0.5-0.8-0.6-1.2c-0.1-0.5-0.2-0.9-0.2-1.4c0-0.5,0.1-0.9,0.2-1.4c0.1-0.4,0.3-0.8,0.6-1.2c0.3-0.3,0.6-0.6,1-0.8
			c0.4-0.2,0.8-0.3,1.4-0.3c0.4,0,0.8,0.1,1.2,0.3c0.4,0.2,0.7,0.4,0.9,0.8h0v-3.5H89v9.7h-1.8L87.1,197.2L87.1,197.2z M87,193.8
			c-0.1-0.3-0.1-0.5-0.3-0.7c-0.1-0.2-0.3-0.4-0.5-0.5c-0.2-0.1-0.5-0.2-0.8-0.2c-0.3,0-0.6,0.1-0.8,0.2c-0.2,0.1-0.4,0.3-0.5,0.5
			c-0.1,0.2-0.2,0.4-0.3,0.7c-0.1,0.3-0.1,0.5-0.1,0.8c0,0.3,0,0.5,0.1,0.8c0.1,0.3,0.2,0.5,0.3,0.7c0.1,0.2,0.3,0.4,0.5,0.5
			c0.2,0.1,0.5,0.2,0.8,0.2c0.3,0,0.6-0.1,0.8-0.2c0.2-0.1,0.4-0.3,0.5-0.5c0.1-0.2,0.2-0.5,0.3-0.7c0.1-0.3,0.1-0.6,0.1-0.8
			C87.1,194.3,87.1,194,87,193.8z"/>
		<path class="st0" d="M96.2,188.4v3.5h0c0.2-0.4,0.6-0.6,1-0.8c0.4-0.2,0.8-0.3,1.3-0.3c0.4,0,0.7,0.1,1,0.2
			c0.3,0.1,0.7,0.4,0.9,0.7c0.3,0.3,0.5,0.7,0.7,1.2c0.2,0.5,0.3,1,0.3,1.7c0,0.6-0.1,1.2-0.3,1.7s-0.4,0.9-0.7,1.2
			c-0.3,0.3-0.6,0.5-0.9,0.7c-0.3,0.1-0.7,0.2-1,0.2c-0.5,0-1-0.1-1.4-0.2c-0.4-0.2-0.7-0.4-0.9-0.8h0v0.9h-1.8v-9.7H96.2z
			 M99.3,193.8c-0.1-0.3-0.2-0.5-0.3-0.7c-0.1-0.2-0.3-0.4-0.5-0.5c-0.2-0.1-0.5-0.2-0.7-0.2c-0.3,0-0.5,0.1-0.7,0.2
			c-0.2,0.1-0.4,0.3-0.5,0.5c-0.1,0.2-0.2,0.5-0.3,0.7c-0.1,0.3-0.1,0.6-0.1,0.9c0,0.3,0,0.6,0.1,0.8c0.1,0.3,0.2,0.5,0.3,0.7
			c0.1,0.2,0.3,0.4,0.5,0.5c0.2,0.1,0.5,0.2,0.7,0.2c0.3,0,0.5-0.1,0.7-0.2c0.2-0.1,0.4-0.3,0.5-0.5c0.1-0.2,0.2-0.4,0.3-0.7
			c0.1-0.3,0.1-0.6,0.1-0.8C99.4,194.3,99.4,194,99.3,193.8z"/>
		<path class="st0" d="M105.1,200.2c-0.4,0.2-0.9,0.4-1.6,0.4c-0.2,0-0.4,0-0.6,0c-0.2,0-0.4,0-0.6,0v-1.6c0.2,0,0.4,0,0.6,0.1
			c0.2,0,0.4,0,0.6,0c0.3,0,0.4-0.1,0.6-0.3s0.2-0.4,0.2-0.6c0-0.2,0-0.3-0.1-0.4l-2.5-6.6h2.1l1.6,4.8h0l1.5-4.8h2L106,199
			C105.8,199.6,105.5,200,105.1,200.2z"/>
		<path class="st0" d="M115.3,188.4v3.7h0c0.2-0.4,0.6-0.7,0.9-0.9c0.4-0.2,0.8-0.3,1.1-0.3c0.5,0,0.9,0.1,1.3,0.2
			c0.3,0.1,0.6,0.3,0.8,0.6c0.2,0.2,0.3,0.6,0.4,0.9c0.1,0.4,0.1,0.8,0.1,1.2v4.3h-1.9v-4c0-0.6-0.1-1-0.3-1.3s-0.5-0.4-1-0.4
			c-0.5,0-0.9,0.2-1.1,0.5c-0.2,0.3-0.4,0.8-0.4,1.5v3.7h-1.9v-9.7H115.3z"/>
		<path class="st0" d="M121.5,193.1c0.2-0.5,0.4-0.8,0.7-1.2c0.3-0.3,0.7-0.6,1.1-0.7c0.4-0.2,0.9-0.3,1.5-0.3
			c0.6,0,1.1,0.1,1.5,0.3c0.4,0.2,0.8,0.4,1.2,0.7c0.3,0.3,0.6,0.7,0.7,1.2c0.2,0.5,0.3,1,0.3,1.5c0,0.6-0.1,1.1-0.3,1.5
			s-0.4,0.8-0.7,1.2c-0.3,0.3-0.7,0.6-1.2,0.7c-0.4,0.2-1,0.3-1.5,0.3c-0.6,0-1.1-0.1-1.5-0.3c-0.4-0.2-0.8-0.4-1.1-0.7
			c-0.3-0.3-0.6-0.7-0.7-1.2s-0.3-1-0.3-1.5C121.3,194.1,121.3,193.5,121.5,193.1z M123.3,195.4c0.1,0.3,0.1,0.5,0.3,0.7
			c0.1,0.2,0.3,0.4,0.5,0.5c0.2,0.1,0.5,0.2,0.8,0.2c0.3,0,0.6-0.1,0.8-0.2c0.2-0.1,0.4-0.3,0.5-0.5c0.1-0.2,0.2-0.5,0.3-0.7
			c0.1-0.3,0.1-0.5,0.1-0.8c0-0.3,0-0.6-0.1-0.8c-0.1-0.3-0.1-0.5-0.3-0.7c-0.1-0.2-0.3-0.4-0.5-0.5c-0.2-0.1-0.5-0.2-0.8-0.2
			c-0.3,0-0.6,0.1-0.8,0.2c-0.2,0.1-0.4,0.3-0.5,0.5c-0.1,0.2-0.2,0.4-0.3,0.7c-0.1,0.3-0.1,0.5-0.1,0.8
			C123.2,194.9,123.2,195.2,123.3,195.4z"/>
		<path class="st0" d="M133.2,192.4c-0.3,0-0.6,0.1-0.8,0.2c-0.2,0.1-0.4,0.3-0.5,0.5c-0.1,0.2-0.2,0.5-0.3,0.7
			c-0.1,0.3-0.1,0.5-0.1,0.8c0,0.3,0,0.5,0.1,0.8c0.1,0.3,0.1,0.5,0.3,0.7c0.1,0.2,0.3,0.4,0.5,0.5c0.2,0.1,0.5,0.2,0.8,0.2
			c0.5,0,0.8-0.1,1.1-0.4c0.2-0.3,0.4-0.6,0.5-1h1.9c-0.1,0.9-0.5,1.6-1.1,2.1c-0.6,0.5-1.4,0.7-2.3,0.7c-0.5,0-1-0.1-1.5-0.3
			c-0.4-0.2-0.8-0.4-1.1-0.7c-0.3-0.3-0.5-0.7-0.7-1.1c-0.2-0.4-0.3-0.9-0.3-1.5c0-0.5,0.1-1.1,0.2-1.5c0.2-0.5,0.4-0.9,0.7-1.2
			c0.3-0.3,0.7-0.6,1.1-0.8c0.4-0.2,1-0.3,1.5-0.3c0.4,0,0.8,0.1,1.2,0.2c0.4,0.1,0.7,0.3,1,0.5c0.3,0.2,0.6,0.5,0.7,0.8
			c0.2,0.3,0.3,0.7,0.3,1.2h-1.9C134.5,192.8,134,192.4,133.2,192.4z"/>
		<path class="st0" d="M141.7,193.6v1.7h-4.1v-1.7H141.7z"/>
		<path class="st0" d="M147,191.1v1.3h-1.4v3.5c0,0.3,0.1,0.5,0.2,0.7c0.1,0.1,0.3,0.2,0.7,0.2c0.1,0,0.2,0,0.3,0c0.1,0,0.2,0,0.3,0
			v1.5c-0.2,0-0.3,0-0.5,0.1c-0.2,0-0.4,0-0.6,0c-0.3,0-0.6,0-0.9-0.1s-0.5-0.1-0.7-0.2c-0.2-0.1-0.4-0.3-0.5-0.5
			c-0.1-0.2-0.2-0.5-0.2-0.9v-4.2h-1.2v-1.3h1.2V189h1.9v2.1H147z"/>
		<path class="st0" d="M149.8,191.1v1.3h0c0.1-0.2,0.2-0.4,0.4-0.6c0.2-0.2,0.3-0.3,0.5-0.5c0.2-0.1,0.4-0.2,0.6-0.3
			c0.2-0.1,0.5-0.1,0.7-0.1c0.1,0,0.3,0,0.4,0.1v1.8c-0.1,0-0.2,0-0.3,0c-0.1,0-0.2,0-0.4,0c-0.4,0-0.7,0.1-0.9,0.2
			c-0.2,0.1-0.4,0.3-0.6,0.5c-0.1,0.2-0.3,0.4-0.3,0.7c-0.1,0.3-0.1,0.6-0.1,0.9v3.2H148v-7H149.8z"/>
		<path class="st0" d="M153.2,193.3c0-0.5,0.1-0.8,0.3-1.1c0.2-0.3,0.5-0.5,0.8-0.7c0.3-0.2,0.7-0.3,1-0.4c0.4-0.1,0.8-0.1,1.2-0.1
			c0.4,0,0.7,0,1.1,0.1c0.4,0,0.7,0.1,1,0.3c0.3,0.1,0.5,0.3,0.7,0.6c0.2,0.3,0.3,0.6,0.3,1v3.7c0,0.3,0,0.6,0.1,0.9
			c0,0.3,0.1,0.5,0.2,0.7h-2c0-0.1-0.1-0.2-0.1-0.3c0-0.1,0-0.2,0-0.3c-0.3,0.3-0.7,0.5-1.1,0.7c-0.4,0.1-0.8,0.2-1.3,0.2
			c-0.3,0-0.6,0-0.9-0.1c-0.3-0.1-0.5-0.2-0.8-0.4c-0.2-0.2-0.4-0.4-0.5-0.7c-0.1-0.3-0.2-0.6-0.2-0.9c0-0.4,0.1-0.7,0.2-1
			c0.1-0.3,0.3-0.5,0.5-0.6c0.2-0.2,0.5-0.3,0.8-0.3c0.3-0.1,0.6-0.1,0.9-0.2c0.3,0,0.6-0.1,0.9-0.1c0.3,0,0.5-0.1,0.7-0.1
			c0.2-0.1,0.4-0.1,0.5-0.2c0.1-0.1,0.2-0.3,0.2-0.5c0-0.2,0-0.4-0.1-0.5c-0.1-0.1-0.2-0.2-0.3-0.3c-0.1-0.1-0.2-0.1-0.4-0.1
			c-0.1,0-0.3,0-0.5,0c-0.4,0-0.7,0.1-0.9,0.2c-0.2,0.2-0.3,0.4-0.4,0.8H153.2z M157.6,194.7c-0.1,0.1-0.2,0.1-0.3,0.2
			c-0.1,0-0.3,0.1-0.4,0.1c-0.1,0-0.3,0.1-0.4,0.1c-0.2,0-0.3,0-0.5,0.1c-0.1,0-0.3,0.1-0.4,0.1c-0.1,0-0.3,0.1-0.4,0.2
			c-0.1,0.1-0.2,0.2-0.3,0.3c-0.1,0.1-0.1,0.3-0.1,0.4c0,0.2,0,0.3,0.1,0.4c0.1,0.1,0.1,0.2,0.3,0.3c0.1,0.1,0.2,0.1,0.4,0.1
			c0.1,0,0.3,0,0.4,0c0.4,0,0.7-0.1,0.9-0.2c0.2-0.1,0.4-0.3,0.5-0.5c0.1-0.2,0.2-0.4,0.2-0.5c0-0.2,0-0.3,0-0.4V194.7z"/>
		<path class="st0" d="M166.1,197.2c-0.2,0.4-0.5,0.7-0.9,0.8c-0.4,0.2-0.8,0.3-1.2,0.3c-0.5,0-1-0.1-1.4-0.3
			c-0.4-0.2-0.7-0.5-1-0.8c-0.3-0.3-0.5-0.8-0.6-1.2c-0.1-0.5-0.2-0.9-0.2-1.4c0-0.5,0.1-0.9,0.2-1.4c0.1-0.4,0.3-0.8,0.6-1.2
			c0.3-0.3,0.6-0.6,1-0.8c0.4-0.2,0.8-0.3,1.4-0.3c0.4,0,0.8,0.1,1.2,0.3c0.4,0.2,0.7,0.4,0.9,0.8h0v-3.5h1.9v9.7h-1.8L166.1,197.2
			L166.1,197.2z M166,193.8c-0.1-0.3-0.1-0.5-0.3-0.7c-0.1-0.2-0.3-0.4-0.5-0.5c-0.2-0.1-0.5-0.2-0.8-0.2c-0.3,0-0.6,0.1-0.8,0.2
			c-0.2,0.1-0.4,0.3-0.5,0.5c-0.1,0.2-0.2,0.4-0.3,0.7c-0.1,0.3-0.1,0.5-0.1,0.8c0,0.3,0,0.5,0.1,0.8c0.1,0.3,0.2,0.5,0.3,0.7
			c0.1,0.2,0.3,0.4,0.5,0.5c0.2,0.1,0.5,0.2,0.8,0.2c0.3,0,0.6-0.1,0.8-0.2c0.2-0.1,0.4-0.3,0.5-0.5c0.1-0.2,0.2-0.5,0.3-0.7
			c0.1-0.3,0.1-0.6,0.1-0.8C166.1,194.3,166.1,194,166,193.8z"/>
		<path class="st0" d="M171.5,196.4c0.3,0.3,0.7,0.4,1.3,0.4c0.4,0,0.7-0.1,1-0.3c0.3-0.2,0.5-0.4,0.5-0.6h1.7
			c-0.3,0.8-0.7,1.4-1.3,1.8c-0.6,0.4-1.2,0.5-2,0.5c-0.6,0-1.1-0.1-1.5-0.3c-0.4-0.2-0.8-0.4-1.1-0.8c-0.3-0.3-0.5-0.7-0.7-1.2
			c-0.2-0.5-0.3-1-0.3-1.5c0-0.5,0.1-1,0.3-1.5c0.2-0.5,0.4-0.8,0.7-1.2c0.3-0.3,0.7-0.6,1.1-0.8c0.4-0.2,0.9-0.3,1.5-0.3
			c0.6,0,1.1,0.1,1.6,0.3c0.4,0.2,0.8,0.5,1.1,0.9c0.3,0.4,0.5,0.8,0.6,1.3c0.1,0.5,0.2,1,0.1,1.6H171
			C171,195.7,171.2,196.2,171.5,196.4z M173.7,192.7c-0.2-0.3-0.6-0.4-1.1-0.4c-0.3,0-0.6,0.1-0.8,0.2c-0.2,0.1-0.4,0.2-0.5,0.4
			c-0.1,0.2-0.2,0.3-0.3,0.5c-0.1,0.2-0.1,0.3-0.1,0.5h3.1C174.1,193.4,173.9,193,173.7,192.7z"/>
	</g>
	<g>
		<g>
			<polygon class="st1" points="62.1,50.4 62.1,82.3 104.9,107 104.9,75.1 			"/>
			<polygon class="st2" points="104.9,75.1 104.9,107 147.6,82.3 147.6,50.4 			"/>
		</g>
		<polygon class="st0" points="104.9,1.4 41.2,38.3 104.9,75.1 168.6,38.3 		"/>
		<polygon class="st3" points="168.6,38.3 161.6,42.3 161.6,74.3 168.6,70.2 		"/>
	</g>
	<g>
		<g>
			<path class="st0" d="M30.4,173.2c-1.3,2.2-3,3.7-5.1,4.7c-2.1,1-4.5,1.4-7.1,1.4c-3,0-5.7-0.6-7.9-1.7c-2.3-1.2-4.2-2.7-5.6-4.7
				c-1.5-2-2.6-4.3-3.3-6.9c-0.8-2.6-1.1-5.3-1.1-8.1c0-2.7,0.4-5.3,1.1-7.8c0.8-2.5,1.9-4.7,3.3-6.6c1.5-1.9,3.3-3.5,5.6-4.6
				c2.2-1.2,4.8-1.7,7.8-1.7c2.4,0,4.7,0.5,6.8,1.5c2.2,1,3.8,2.5,5.1,4.5H30v-20.2h11v55.5H30.5v-5.1H30.4z M29.9,153.3
				c-0.3-1.5-0.8-2.9-1.6-4c-0.8-1.2-1.7-2.1-2.9-2.8c-1.2-0.7-2.7-1.1-4.5-1.1c-1.8,0-3.3,0.4-4.6,1.1c-1.2,0.7-2.2,1.7-3,2.9
				c-0.8,1.2-1.3,2.6-1.6,4.1c-0.3,1.5-0.5,3.1-0.5,4.8c0,1.6,0.2,3.1,0.5,4.7c0.4,1.6,0.9,2.9,1.7,4.2c0.8,1.2,1.8,2.2,3,3
				c1.2,0.8,2.7,1.1,4.4,1.1c1.8,0,3.3-0.4,4.5-1.1c1.2-0.7,2.2-1.7,2.9-2.9c0.7-1.2,1.2-2.6,1.6-4.2c0.3-1.6,0.5-3.2,0.5-4.8
				C30.4,156.4,30.2,154.8,29.9,153.3z"/>
			<path class="st0" d="M59.8,138.1v7.5H60c0.5-1.2,1.2-2.4,2.1-3.5c0.9-1.1,1.9-2,3-2.7c1.1-0.8,2.4-1.3,3.7-1.7
				c1.3-0.4,2.6-0.6,4-0.6c0.7,0,1.5,0.1,2.4,0.4v10.3c-0.5-0.1-1.1-0.2-1.9-0.3c-0.7-0.1-1.4-0.1-2.1-0.1c-2,0-3.7,0.3-5.1,1
				c-1.4,0.7-2.5,1.6-3.4,2.8c-0.9,1.2-1.5,2.5-1.8,4.1c-0.4,1.6-0.5,3.2-0.5,5.1v18.1h-11v-40.2H59.8z"/>
			<path class="st0" d="M97,145.5v-7.4h6.6V135c0-3.6,1.1-6.5,3.3-8.8c2.2-2.3,5.6-3.4,10.1-3.4c1,0,2,0,3,0.1
				c1,0.1,1.9,0.1,2.9,0.2v8.2c-1.3-0.2-2.6-0.2-4-0.2c-1.5,0-2.6,0.3-3.2,1c-0.6,0.7-1,1.9-1,3.5v2.4h7.6v7.4h-7.6v32.8h-11v-32.8
				H97z"/>
			<path class="st0" d="M138.9,168.7c1.7,1.6,4,2.4,7.2,2.4c2.2,0,4.1-0.6,5.8-1.7c1.6-1.1,2.6-2.3,3-3.5h9.7
				c-1.6,4.8-3.9,8.3-7.2,10.3c-3.2,2.1-7.1,3.1-11.7,3.1c-3.2,0-6-0.5-8.6-1.5c-2.5-1-4.7-2.4-6.5-4.3c-1.8-1.9-3.1-4.1-4.1-6.7
				c-1-2.6-1.4-5.4-1.4-8.6c0-3,0.5-5.8,1.5-8.4c1-2.6,2.4-4.8,4.2-6.7c1.8-1.9,4-3.4,6.5-4.5c2.5-1.1,5.3-1.6,8.4-1.6
				c3.4,0,6.4,0.7,8.9,2c2.5,1.3,4.6,3.1,6.3,5.3c1.6,2.2,2.8,4.8,3.5,7.6c0.7,2.9,1,5.8,0.8,8.9h-29
				C136.3,164.5,137.2,167.1,138.9,168.7z M151.4,147.5c-1.3-1.5-3.3-2.2-6-2.2c-1.8,0-3.2,0.3-4.4,0.9c-1.2,0.6-2.1,1.3-2.8,2.2
				c-0.7,0.9-1.2,1.8-1.5,2.8c-0.3,1-0.5,1.9-0.5,2.6h18C153.6,151.1,152.7,149,151.4,147.5z"/>
			<path class="st0" d="M183.5,168.7c1.7,1.6,4,2.4,7.2,2.4c2.2,0,4.1-0.6,5.8-1.7c1.6-1.1,2.6-2.3,3-3.5h9.7
				c-1.6,4.8-3.9,8.3-7.2,10.3c-3.2,2.1-7.1,3.1-11.7,3.1c-3.2,0-6-0.5-8.6-1.5c-2.5-1-4.7-2.4-6.5-4.3c-1.8-1.9-3.1-4.1-4.1-6.7
				c-1-2.6-1.4-5.4-1.4-8.6c0-3,0.5-5.8,1.5-8.4c1-2.6,2.4-4.8,4.2-6.7c1.8-1.9,4-3.4,6.5-4.5c2.5-1.1,5.3-1.6,8.4-1.6
				c3.4,0,6.4,0.7,8.9,2c2.5,1.3,4.6,3.1,6.3,5.3c1.6,2.2,2.8,4.8,3.5,7.6c0.7,2.9,1,5.8,0.8,8.9h-29
				C181,164.5,181.9,167.1,183.5,168.7z M196,147.5c-1.3-1.5-3.3-2.2-6-2.2c-1.8,0-3.2,0.3-4.4,0.9c-1.2,0.6-2.1,1.3-2.8,2.2
				c-0.7,0.9-1.2,1.8-1.5,2.8c-0.3,1-0.5,1.9-0.5,2.6h18C198.3,151.1,197.3,149,196,147.5z"/>
		</g>
		<rect x="78.6" y="154.7" class="st0" width="15.9" height="7"/>
	</g>
</g>
</svg>
