<?xml version="1.0" encoding="UTF-8"?><svg id="Layer_1" xmlns="http://www.w3.org/2000/svg" xmlns:xlink="http://www.w3.org/1999/xlink" viewBox="0 0 60 60"><defs><style>.cls-1{fill:url(#linear-gradient);}.cls-2{fill:#00c1a9;}.cls-3{fill:#edc45c;}.cls-4{fill:#79f9c1;}</style><linearGradient id="linear-gradient" x1="26.93" y1="29.37" x2="35.6" y2="43.33" gradientUnits="userSpaceOnUse"><stop offset="0" stop-color="#6eefb4"/><stop offset="1" stop-color="#00b48a"/></linearGradient></defs><path class="cls-3" d="M46.5,43.15h-.01s.01,0,.01,0Z"/><path class="cls-4" d="M23.01,36l6.99-12.1c-1.58-2.73-2.69-4.66-2.69-4.66-1.84-3.18-6.42-3.18-8.26,0l-9.68,16.76c-1.84,3.18,.46,7.15,4.13,7.15h13.64c-3.67,0-5.97-3.97-4.13-7.15Z"/><path class="cls-2" d="M50.63,36l-9.68-16.76c-1.84-3.18-6.42-3.18-8.26,0l-2.69,4.66c2.14,3.71,5.14,8.9,7.34,12.71,3.72,6.44,8.88,6.54,9.15,6.54h.01c3.67,0,5.97-3.97,4.13-7.15Z"/><path class="cls-1" d="M37.34,36.61c-2.2-3.81-5.2-9-7.34-12.71l-6.99,12.1c-1.84,3.18,.46,7.15,4.13,7.15h19.35c-.27,0-5.43-.11-9.15-6.54Z"/></svg>