<?xml version="1.0" encoding="UTF-8"?><svg id="Layer_1" xmlns="http://www.w3.org/2000/svg" viewBox="0 0 60 60"><defs><style>.cls-1{fill:none;}.cls-2{fill:#ff2b06;}</style></defs><g><path class="cls-2" d="M20.72,15.57c.19,0,.38,0,.57,0,7.88,0,15.75,0,23.63,0,.42,0,.63,.12,.82,.51,2.17,4.53,4.37,9.04,6.57,13.55,.16,.33,.15,.55-.1,.84-3.98,4.49-7.94,8.99-11.9,13.49-.29,.33-.6,.51-1.06,.48-1.83-.13-3.68-.19-5.51-.38-.75-.08-1.5-.4-2.21-.71-.74-.32-.94-1-.66-1.77,.28-.75,.83-.99,1.81-.84,1.14,.17,2.29,.38,3.44,.42,1.8,.06,2.98-.78,3.62-2.46,.11-.3,.28-.4,.56-.5,.21-.08,.45-.26,.52-.45,.22-.59,.41-1.2,.53-1.82,.19-.98-.14-1.64-1.03-2.13-.71-.39-1.45-.72-2.15-1.13-.45-.26-.85-.61-1.3-.94,.71-.95,1.15-1.95,1.3-3.07,.2-1.55,.07-3.09-.16-4.63-.13-.91-.28-1.81-.36-2.73-.05-.56,0-1.14,0-1.7,0-.16,0-.32,0-.48-.06-.01-.12-.03-.17-.04-.16,.48-.35,.95-.49,1.43-.62,2.11-.9,4.27-.96,6.46,0,.1,.02,.2-.01,.28-.04,.14-.12,.26-.18,.39-.11-.09-.25-.16-.34-.27-1.43-1.86-3.24-3.17-5.56-3.67-1.37-.3-2.73-.12-3.88,.69-.66,.47-1.25,.45-1.95,.28-1.33-.34-2.44-1.04-3.27-2.09-.32-.42-.42-1.05-.5-1.6-.26-1.71-.13-3.41,.29-5.09,.02-.09,.06-.18,.1-.3Z"/><path class="cls-2" d="M7.59,44.4c.47-2.05,.94-4.05,1.4-6.06,1.04-4.53,2.08-9.07,3.12-13.6,.68-2.94,1.36-5.89,2.06-8.83,.03-.13,.22-.32,.34-.33,1.68-.02,3.37-.01,5.11-.01-.29,.88-.58,1.71-.83,2.55-.36,1.25-.63,2.52-.59,3.83,.02,.82,.19,1.59,.69,2.28,.17,.23,.19,.59,.23,.9,.16,1.29,.74,2.29,1.92,2.94,.45,.25,.83,.63,1.26,.93,.28,.19,.36,.43,.36,.76,0,2.12,.07,4.25-.3,6.35-.18,1.07-.46,2.1-1.04,3.04-.82,1.35-2.24,2.07-3.77,1.76-1.42-.29-2.71,.01-3.98,.57-1.41,.61-2.74,1.37-3.85,2.44-.66,.64-1.36,.51-2.14,.49Z"/></g><rect class="cls-1" x="0" y="0" width="60" height="60" rx="30" ry="30"/></svg>