<?xml version="1.0" encoding="utf-8"?>
<!-- Generator: Adobe Illustrator 27.9.0, SVG Export Plug-In . SVG Version: 6.00 Build 0)  -->
<svg version="1.1" id="Layer_1" xmlns="http://www.w3.org/2000/svg" xmlns:xlink="http://www.w3.org/1999/xlink" x="0px" y="0px"
	 viewBox="0 0 26 24" style="enable-background:new 0 0 26 24;" xml:space="preserve">
<style type="text/css">
	.st0{fill:#FFFFFF;}
</style>
<g>
	<g>
		<path class="st0" d="M19.7,0H5.3L0.4,4.6v13.5c0,3.2,2.7,5.9,5.9,5.9h19.3V5.9C25.6,2.7,23,0,19.7,0z M24.8,23.1H6.3
			c-2.8,0-5-2.3-5-5V5l4.3-4.1h14.1c2.8,0,5,2.3,5,5L24.8,23.1L24.8,23.1z"/>
		<path class="st0" d="M16.9,8.2l-6.7,5.9l5.6-2.1v5.5c0,1.4,1.1,2.5,2.5,2.5h2.1V9.8C20.4,8,18.2,7,16.9,8.2z"/>
		<path class="st0" d="M10.2,13.1V5c0-0.6-0.5-1.1-1.1-1.1S8,4.1,7.6,4.5l-2,1.8v11.3c0,1.4,1.1,2.5,2.5,2.5h2.1v-5L7,16.2
			L10.2,13.1z"/>
	</g>
</g>
</svg>
