<?xml version="1.0" encoding="UTF-8"?><svg id="Layer_1" xmlns="http://www.w3.org/2000/svg" viewBox="0 0 60 60"><defs><style>.cls-1{fill:#00ac5f;}.cls-2{fill:#7ecea5;}</style></defs><g><path class="cls-1" d="M30,10c-11.05,0-20,8.95-20,20h0c0,11.05,8.95,20,20,20s20-8.95,20-20h0c0-11.05-8.95-20-20-20Zm3.28,25.93h0s-.26,0-.26,0l-11.3,.1v-2.64c1.53,0,2.78-1.28,2.78-2.87s-1.24-2.87-2.78-2.87v-2.49c1.53,0,2.78-1.17,2.78-2.62s-1.24-2.62-2.78-2.62v-2.57h11.01c2.79,.13,5,2.23,5,4.8,0,1.74-1.01,3.26-2.52,4.1,.02,0,.04,0,.05,0,1.9,.97,3.02,2.49,3.02,4.39,0,2.82-2.22,5.12-5,5.26Z"/><path class="cls-1" d="M31.89,27.66h-4.56v5.57h4.56c1.53,0,2.78-1.25,2.78-2.78s-1.24-2.78-2.78-2.78Z"/><path class="cls-1" d="M34.07,22.63c0-1.4-1.24-2.54-2.78-2.54h-3.96v5.08h3.96c1.53,0,2.78-1.14,2.78-2.54Z"/></g><rect class="cls-2" x="21.72" y="39.94" width="16.56" height="2.68"/></svg>