<?xml version="1.0" encoding="UTF-8"?><svg id="Layer_1" xmlns="http://www.w3.org/2000/svg" viewBox="0 0 60 60"><defs><style>.cls-1{fill:#00baa3;}</style></defs><circle class="cls-1" cx="34.63" cy="30" r="3.1"/><path class="cls-1" d="M45.63,34.01c-1.14-1.14-3-1.14-4.14,0l-6.85,6.85-10.87-10.87,10.87-10.87,6.85,6.85c1.14,1.14,3,1.14,4.14,0,1.14-1.14,1.14-3,0-4.14l-8.89-8.89c-1.16-1.16-3.05-1.16-4.22,0l-12.94,12.94v-7.79c0-1.68-1.36-3.04-3.04-3.04s-3.04,1.36-3.04,3.04v23.79c0,1.68,1.36,3.04,3.04,3.04s3.04-1.36,3.04-3.04v-7.79l12.94,12.94c1.16,1.16,3.05,1.16,4.22,0l8.89-8.89c1.14-1.14,1.14-3,0-4.14h0Z"/></svg>