<?xml version="1.0" encoding="UTF-8"?><svg id="Layer_1" xmlns="http://www.w3.org/2000/svg" viewBox="0 0 60 60"><defs><style>.cls-1{fill:none;}.cls-2{fill:#fff02f;}.cls-3{fill:#21313a;}</style></defs><g><g><path class="cls-3" d="M24.07,14.65c-.58,0-1.05,.47-1.05,1.05v12.37c0,.58,.47,1.05,1.05,1.05s1.05-.47,1.05-1.05V15.7c0-.58-.47-1.05-1.05-1.05Z"/><path class="cls-3" d="M38.32,14.8h-9.69c-.5,0-.9,.4-.9,.9s.4,.9,.9,.9h3.79v11.47c0,.58,.47,1.05,1.05,1.05s1.05-.47,1.05-1.05v-11.47h3.79c.5,0,.9-.4,.9-.9s-.4-.9-.9-.9Z"/><path class="cls-3" d="M51.98,14.81c-.49-.31-1.14-.15-1.45,.34l-4.22,6.79-4.22-6.79c-.31-.49-.95-.64-1.45-.34-.49,.31-.64,.95-.34,1.45l4.95,7.98v3.84c0,.58,.47,1.05,1.05,1.05s1.05-.47,1.05-1.05v-3.84l4.95-7.98c.31-.49,.15-1.14-.34-1.45Z"/><path class="cls-3" d="M17.83,26.11c-.82,.59-2.27,1.19-3.28,1.19-2.77,0-5.03-2.43-5.03-5.42s2.26-5.42,5.03-5.42c1.07,0,2.4,.67,3.25,1.33,.46,.36,1.12,.28,1.47-.18,.36-.46,.28-1.12-.18-1.47-1.1-.86-2.87-1.77-4.54-1.77-3.93,0-7.13,3.37-7.13,7.52s3.2,7.52,7.13,7.52c1.58,0,3.44-.82,4.51-1.59,.47-.34,.58-.99,.24-1.47-.34-.47-.99-.58-1.47-.24Z"/></g><g><path class="cls-2" d="M8.17,35.05c-.41,0-.75,.34-.75,.75v8.95c0,.41,.34,.75,.75,.75s.75-.34,.75-.75v-8.95c0-.41-.34-.75-.75-.75Z"/><path class="cls-2" d="M52.44,44.44l-3.11-4.26,2.96-4.05c.24-.33,.17-.8-.16-1.05-.33-.25-.8-.17-1.05,.16l-2.68,3.67-2.68-3.67c-.24-.33-.71-.41-1.05-.16-.33,.24-.41,.71-.16,1.05l2.96,4.05-3.11,4.26c-.24,.33-.17,.8,.16,1.05,.13,.1,.29,.14,.44,.14,.23,0,.46-.11,.61-.31l2.83-3.87,2.83,3.87c.15,.2,.37,.31,.61,.31,.15,0,.31-.05,.44-.14,.33-.24,.41-.71,.16-1.05Z"/><path class="cls-2" d="M19.96,35.05c-.41,0-.75,.34-.75,.75v6.8l-5.76-7.27c-.2-.25-.53-.35-.83-.24-.3,.11-.5,.39-.5,.71v8.95c0,.41,.34,.75,.75,.75s.75-.34,.75-.75v-6.8l5.76,7.27c.15,.18,.36,.28,.59,.28,.08,0,.17-.01,.25-.04,.3-.11,.5-.39,.5-.71v-8.95c0-.41-.34-.75-.75-.75Z"/><path class="cls-2" d="M28.01,35.05h-3.38c-.41,0-.75,.34-.75,.75v8.95c0,.4,.31,.73,.71,.75,.09,0,2.23,.12,3.42,.12,1.68,0,4.13-2.08,4.13-5.35s-2.4-5.23-4.13-5.23Zm0,9.08c-.74,0-1.89-.05-2.63-.08v-7.49h2.63c.89,0,2.63,1.13,2.63,3.73s-1.84,3.85-2.63,3.85Z"/><path class="cls-2" d="M41.69,36.55c.41,0,.75-.34,.75-.75s-.34-.75-.75-.75h-6.03c-.41,0-.75,.34-.75,.75v8.95c0,.41,.34,.75,.75,.75h6.03c.41,0,.75-.34,.75-.75s-.34-.75-.75-.75h-5.28v-3.17h3.76c.41,0,.75-.34,.75-.75s-.34-.75-.75-.75h-3.76v-2.78h5.28Z"/></g></g><rect class="cls-1" x="0" y="0" width="60" height="60" rx="30" ry="30"/></svg>