<?xml version="1.0" encoding="UTF-8"?><svg id="Layer_1" xmlns="http://www.w3.org/2000/svg" viewBox="0 0 60 60"><defs><style>.cls-1{fill:none;}.cls-2{fill:#34e397;}</style></defs><g><path class="cls-2" d="M21.56,26.08c.17-.16,.06-.44-.17-.43-1.29,.06-3.29-.03-3.94-1.11-1-1.64-.41-4.69,.59-7.51,.47-1.34,1.27-3.26,1.97-4.91,.26-.6-.54-1.1-.96-.6-3.81,4.42-10.8,12.49-10.8,17.3,0,6.16,10.15,7.8,10.15,7.8v-3.73c0-2.65,1.21-5.05,3.17-6.83Z"/><path class="cls-2" d="M40.97,11.53c-.43-.5-1.22,0-.96,.6,.7,1.65,1.49,3.57,1.97,4.91,1,2.82,1.58,5.87,.59,7.51-.65,1.08-2.65,1.17-3.94,1.11-.23-.01-.34,.27-.17,.43,1.97,1.78,3.17,4.18,3.17,6.83v3.73s10.15-1.64,10.15-7.8c0-4.81-6.99-12.88-10.8-17.3Z"/><path class="cls-2" d="M29.82,24.9c-5.28,0-9.56,3.59-9.56,8.01v10.31c0,4.01,4.28,7.26,9.56,7.26,4.19,0,7.75-2.05,9.04-4.89l-4.46-2.65c-.6,1.67-2.35,2.73-4.41,2.73-2.56,0-4.64-1.63-4.64-4.05v-1.82h14.02v-6.89c0-4.42-4.28-8.01-9.56-8.01Zm4.81,10.44h-9.27v-.82c0-2.67,2.08-4.27,4.64-4.27s4.64,1.6,4.64,4.27v.82Z"/></g><rect class="cls-1" x="0" y="0" width="60" height="60" rx="30" ry="30"/></svg>