<?xml version="1.0" encoding="UTF-8"?><svg id="Layer_1" xmlns="http://www.w3.org/2000/svg" viewBox="0 0 60 60"><defs><style>.cls-1{fill:none;}.cls-2{fill:#ec3527;}</style></defs><g><rect class="cls-2" x="12.18" y="15.24" width="5.81" height="29.43"/><path class="cls-2" d="M35.62,27.79v5.42h6.68v4.7c-1.7,1.31-3.9,1.98-6.31,1.98-5.4,0-9.77-4.43-9.77-9.89s4.37-9.89,9.77-9.89c2.9,0,5.51,1.29,7.3,3.32l4.16-4.06c-2.82-2.97-6.82-4.83-11.25-4.83-8.56,0-15.49,6.92-15.49,15.45s6.94,15.45,15.49,15.45c4.63,0,8.78-1.53,11.62-4.53v-13.13h-12.2Z"/></g><rect class="cls-1" x="0" y="0" width="60" height="60" rx="30" ry="30"/></svg>