<?xml version="1.0" encoding="utf-8"?>
<!-- Generator: Adobe Illustrator 27.0.1, SVG Export Plug-In . SVG Version: 6.00 Build 0)  -->
<svg version="1.1" id="Layer_1" xmlns="http://www.w3.org/2000/svg" xmlns:xlink="http://www.w3.org/1999/xlink" x="0px" y="0px"
	 viewBox="0 0 210 80" style="enable-background:new 0 0 210 80;" xml:space="preserve">
<style type="text/css">
	.st0{fill:#FFFFFF;}
	.st1{fill:#17434E;}
	.st2{fill:#047F92;}
	.st3{fill:#A99050;}
</style>
<g>
	<g>
		<path class="st0" d="M100,57v0.7l0,0c0.2-0.3,0.4-0.5,0.7-0.6c0.3-0.1,0.6-0.2,0.9-0.2c0.4,0,0.8,0.1,1.1,0.2
			c0.3,0.2,0.6,0.4,0.8,0.6c0.2,0.3,0.4,0.6,0.5,0.9c0.1,0.4,0.1,0.7,0.1,1.1c0,0.4,0,0.7-0.1,1.1c-0.1,0.3-0.2,0.6-0.4,0.9
			c-0.2,0.3-0.4,0.5-0.7,0.6s-0.6,0.2-1,0.2c-0.3,0-0.6-0.1-0.9-0.2c-0.3-0.1-0.5-0.3-0.7-0.6l0,0v2.6h-1.5V57H100z M102,61.3
			c0.2-0.1,0.3-0.2,0.4-0.4s0.2-0.3,0.2-0.6s0.1-0.4,0.1-0.6c0-0.2,0-0.4-0.1-0.6c0-0.2-0.1-0.4-0.2-0.6c-0.1-0.2-0.2-0.3-0.4-0.4
			c-0.2-0.1-0.4-0.2-0.6-0.2s-0.5,0.1-0.6,0.2c-0.2,0.1-0.3,0.2-0.4,0.4s-0.2,0.3-0.2,0.6c0,0.2-0.1,0.4-0.1,0.7
			c0,0.2,0,0.4,0.1,0.6c0,0.2,0.1,0.4,0.2,0.6s0.2,0.3,0.4,0.4c0.2,0.1,0.4,0.1,0.6,0.1C101.6,61.4,101.8,61.4,102,61.3z"/>
		<path class="st0" d="M105.1,58.5c0.1-0.4,0.3-0.7,0.6-0.9c0.2-0.2,0.5-0.4,0.9-0.6c0.3-0.1,0.7-0.2,1.2-0.2c0.4,0,0.8,0.1,1.2,0.2
			c0.3,0.1,0.6,0.3,0.9,0.6c0.2,0.2,0.4,0.6,0.6,0.9c0.1,0.4,0.2,0.8,0.2,1.2s-0.1,0.8-0.2,1.2s-0.3,0.7-0.6,0.9
			c-0.2,0.2-0.5,0.4-0.9,0.6c-0.3,0.1-0.7,0.2-1.2,0.2c-0.4,0-0.8-0.1-1.2-0.2c-0.3-0.1-0.6-0.3-0.9-0.6c-0.2-0.2-0.4-0.5-0.6-0.9
			c-0.1-0.4-0.2-0.7-0.2-1.2C104.9,59.3,104.9,58.9,105.1,58.5z M106.4,60.3c0,0.2,0.1,0.4,0.2,0.6c0.1,0.2,0.2,0.3,0.4,0.4
			c0.2,0.1,0.4,0.1,0.6,0.1c0.3,0,0.5,0,0.6-0.1c0.2-0.1,0.3-0.2,0.4-0.4s0.2-0.4,0.2-0.6c0-0.2,0.1-0.4,0.1-0.6
			c0-0.2,0-0.4-0.1-0.6c0-0.2-0.1-0.4-0.2-0.6c-0.1-0.2-0.2-0.3-0.4-0.4c-0.2-0.1-0.4-0.2-0.6-0.2c-0.3,0-0.5,0.1-0.6,0.2
			c-0.2,0.1-0.3,0.2-0.4,0.4s-0.2,0.3-0.2,0.6c0,0.2-0.1,0.4-0.1,0.6C106.4,59.9,106.4,60.1,106.4,60.3z"/>
		<path class="st0" d="M116.2,62.4l-1-3.7l0,0l-0.9,3.7h-1.6L111,57h1.6l1,3.7l0,0l0.9-3.7h1.5l0.9,3.7l0,0l1-3.7h1.5l-1.7,5.5
			L116.2,62.4L116.2,62.4z"/>
		<path class="st0" d="M121.7,61.1c0.2,0.2,0.5,0.3,1,0.3c0.3,0,0.6-0.1,0.8-0.2c0.2-0.2,0.4-0.3,0.4-0.5h1.3
			c-0.2,0.7-0.5,1.1-1,1.4c-0.4,0.3-1,0.4-1.6,0.4c-0.4,0-0.8-0.1-1.2-0.2c-0.3-0.1-0.6-0.3-0.9-0.6c-0.2-0.3-0.4-0.6-0.6-0.9
			c-0.1-0.4-0.2-0.7-0.2-1.2c0-0.4,0.1-0.8,0.2-1.1c0.1-0.4,0.3-0.7,0.6-0.9c0.2-0.3,0.5-0.5,0.9-0.6c0.3-0.1,0.7-0.2,1.1-0.2
			c0.5,0,0.9,0.1,1.2,0.3c0.3,0.2,0.6,0.4,0.8,0.7c0.2,0.3,0.4,0.6,0.5,1s0.1,0.8,0.1,1.2h-3.9C121.3,60.5,121.4,60.9,121.7,61.1z
			 M123.4,58.2c-0.2-0.2-0.5-0.3-0.8-0.3c-0.2,0-0.4,0-0.6,0.1s-0.3,0.2-0.4,0.3s-0.2,0.2-0.2,0.4c0,0.1-0.1,0.3-0.1,0.4h2.4
			C123.7,58.7,123.5,58.4,123.4,58.2z"/>
		<path class="st0" d="M127.5,57v1l0,0c0.1-0.2,0.2-0.3,0.3-0.5c0.1-0.1,0.3-0.3,0.4-0.4c0.2-0.1,0.3-0.2,0.5-0.2s0.4-0.1,0.5-0.1
			s0.2,0,0.3,0.1v1.4c-0.1,0-0.2,0-0.3,0s-0.2,0-0.3,0c-0.3,0-0.5,0-0.7,0.1s-0.3,0.2-0.5,0.4c-0.1,0.2-0.2,0.3-0.2,0.6
			c0,0.2-0.1,0.4-0.1,0.7v2.5h-1.5V57H127.5z"/>
		<path class="st0" d="M131.6,61.1c0.2,0.2,0.5,0.3,1,0.3c0.3,0,0.6-0.1,0.8-0.2c0.2-0.2,0.4-0.3,0.4-0.5h1.3
			c-0.2,0.7-0.5,1.1-1,1.4c-0.4,0.3-1,0.4-1.6,0.4c-0.4,0-0.8-0.1-1.2-0.2c-0.3-0.1-0.6-0.3-0.9-0.6c-0.2-0.3-0.4-0.6-0.6-0.9
			c-0.1-0.4-0.2-0.7-0.2-1.2c0-0.4,0.1-0.8,0.2-1.1c0.1-0.4,0.3-0.7,0.6-0.9c0.2-0.3,0.5-0.5,0.9-0.6c0.3-0.1,0.7-0.2,1.1-0.2
			c0.5,0,0.9,0.1,1.2,0.3s0.6,0.4,0.8,0.7s0.4,0.6,0.5,1s0.1,0.8,0.1,1.2h-3.9C131.3,60.5,131.4,60.9,131.6,61.1z M133.3,58.2
			c-0.2-0.2-0.5-0.3-0.8-0.3c-0.2,0-0.4,0-0.6,0.1s-0.3,0.2-0.4,0.3c-0.1,0.1-0.2,0.2-0.2,0.4c0,0.1-0.1,0.3-0.1,0.4h2.4
			C133.6,58.7,133.5,58.4,133.3,58.2z"/>
		<path class="st0" d="M140,61.7c-0.2,0.3-0.4,0.5-0.7,0.6s-0.6,0.2-1,0.2s-0.8-0.1-1.1-0.2c-0.3-0.2-0.6-0.4-0.8-0.6
			c-0.2-0.3-0.4-0.6-0.5-0.9c-0.1-0.4-0.2-0.7-0.2-1.1c0-0.4,0.1-0.7,0.2-1.1c0.1-0.3,0.3-0.6,0.5-0.9c0.2-0.3,0.5-0.5,0.8-0.6
			c0.3-0.2,0.7-0.2,1.1-0.2c0.3,0,0.6,0.1,0.9,0.2c0.3,0.1,0.5,0.3,0.7,0.6l0,0V55h1.5v7.5H140V61.7L140,61.7z M139.9,59
			c0-0.2-0.1-0.4-0.2-0.5c-0.1-0.2-0.2-0.3-0.4-0.4c-0.2-0.1-0.4-0.1-0.6-0.1c-0.2,0-0.5,0-0.6,0.1c-0.2,0.1-0.3,0.2-0.4,0.4
			c-0.1,0.2-0.2,0.3-0.2,0.6c0,0.2-0.1,0.4-0.1,0.6c0,0.2,0,0.4,0.1,0.6c0,0.2,0.1,0.4,0.2,0.6c0.1,0.2,0.2,0.3,0.4,0.4
			c0.2,0.1,0.4,0.2,0.6,0.2c0.2,0,0.5,0,0.6-0.1c0.2-0.1,0.3-0.2,0.4-0.4c0.1-0.2,0.2-0.4,0.2-0.6c0-0.2,0.1-0.4,0.1-0.7
			S139.9,59.2,139.9,59z"/>
		<path class="st0" d="M147,54.9v2.7l0,0c0.2-0.3,0.4-0.5,0.7-0.6s0.6-0.2,1-0.2c0.3,0,0.5,0.1,0.8,0.2c0.3,0.1,0.5,0.3,0.7,0.5
			s0.4,0.5,0.5,0.9s0.2,0.8,0.2,1.3s-0.1,0.9-0.2,1.3c-0.1,0.4-0.3,0.7-0.5,0.9s-0.5,0.4-0.7,0.5c-0.3,0.1-0.5,0.2-0.8,0.2
			c-0.4,0-0.8-0.1-1.1-0.2c-0.3-0.1-0.6-0.3-0.7-0.6l0,0v0.7h-1.4V55L147,54.9L147,54.9z M149.4,59c0-0.2-0.1-0.4-0.2-0.6
			c-0.1-0.2-0.2-0.3-0.4-0.4c-0.2-0.1-0.4-0.1-0.6-0.1c-0.2,0-0.4,0-0.6,0.1c-0.2,0.1-0.3,0.2-0.4,0.4c-0.1,0.2-0.2,0.3-0.2,0.6
			c0,0.2-0.1,0.4-0.1,0.7c0,0.2,0,0.4,0.1,0.7c0,0.2,0.1,0.4,0.2,0.6c0.1,0.2,0.2,0.3,0.4,0.4c0.2,0.1,0.4,0.1,0.6,0.1
			c0.2,0,0.4,0,0.6-0.1c0.2-0.1,0.3-0.2,0.4-0.4c0.1-0.2,0.2-0.3,0.2-0.6c0-0.2,0.1-0.4,0.1-0.7C149.5,59.5,149.4,59.2,149.4,59z"/>
		<path class="st0" d="M153.9,64c-0.3,0.2-0.7,0.3-1.2,0.3c-0.2,0-0.3,0-0.5,0s-0.3,0-0.5,0V63c0.1,0,0.3,0,0.4,0c0.1,0,0.3,0,0.4,0
			c0.2,0,0.3-0.1,0.4-0.2s0.1-0.3,0.1-0.4c0-0.1,0-0.2-0.1-0.3L151,57h1.6l1.2,3.7l0,0L155,57h1.6l-2.3,6.1
			C154.4,63.5,154.2,63.8,153.9,64z"/>
		<path class="st0" d="M161.8,54.9v2.8l0,0c0.2-0.3,0.4-0.5,0.7-0.7c0.3-0.1,0.6-0.2,0.9-0.2c0.4,0,0.7,0.1,1,0.2
			c0.3,0.1,0.5,0.3,0.6,0.5s0.3,0.4,0.3,0.7c0.1,0.3,0.1,0.6,0.1,0.9v3.4h-1.5v-3.1c0-0.4-0.1-0.8-0.2-1S163.3,58,163,58
			c-0.4,0-0.7,0.1-0.9,0.4c-0.2,0.2-0.3,0.6-0.3,1.2v2.9h-1.5V55L161.8,54.9L161.8,54.9z"/>
		<path class="st0" d="M166.6,58.5c0.1-0.4,0.3-0.7,0.6-0.9c0.2-0.2,0.5-0.4,0.9-0.6c0.3-0.1,0.7-0.2,1.2-0.2c0.4,0,0.8,0.1,1.2,0.2
			c0.3,0.1,0.6,0.3,0.9,0.6c0.2,0.2,0.4,0.6,0.6,0.9c0.1,0.4,0.2,0.8,0.2,1.2s-0.1,0.8-0.2,1.2c-0.1,0.4-0.3,0.7-0.6,0.9
			c-0.2,0.2-0.5,0.4-0.9,0.6c-0.3,0.1-0.7,0.2-1.2,0.2c-0.4,0-0.8-0.1-1.2-0.2c-0.3-0.1-0.6-0.3-0.9-0.6c-0.2-0.2-0.4-0.5-0.6-0.9
			c-0.1-0.4-0.2-0.7-0.2-1.2C166.4,59.3,166.5,58.9,166.6,58.5z M168,60.3c0,0.2,0.1,0.4,0.2,0.6c0.1,0.2,0.2,0.3,0.4,0.4
			c0.2,0.1,0.4,0.1,0.6,0.1c0.3,0,0.5,0,0.6-0.1c0.2-0.1,0.3-0.2,0.4-0.4c0.1-0.2,0.2-0.4,0.2-0.6c0-0.2,0.1-0.4,0.1-0.6
			c0-0.2,0-0.4-0.1-0.6c0-0.2-0.1-0.4-0.2-0.6c-0.1-0.2-0.2-0.3-0.4-0.4c-0.2-0.1-0.4-0.2-0.6-0.2c-0.3,0-0.5,0.1-0.6,0.2
			c-0.2,0.1-0.3,0.2-0.4,0.4c-0.1,0.2-0.2,0.3-0.2,0.6c0,0.2-0.1,0.4-0.1,0.6C167.9,59.9,167.9,60.1,168,60.3z"/>
		<path class="st0" d="M175.6,57.9c-0.2,0-0.4,0.1-0.6,0.2c-0.2,0.1-0.3,0.2-0.4,0.4c-0.1,0.2-0.2,0.4-0.2,0.6
			c0,0.2-0.1,0.4-0.1,0.6c0,0.2,0,0.4,0.1,0.6c0,0.2,0.1,0.4,0.2,0.6c0.1,0.2,0.2,0.3,0.4,0.4c0.2,0.1,0.4,0.2,0.6,0.2
			c0.4,0,0.6-0.1,0.8-0.3s0.3-0.5,0.4-0.8h1.4c-0.1,0.7-0.4,1.3-0.8,1.7c-0.5,0.4-1.1,0.6-1.8,0.6c-0.4,0-0.8-0.1-1.1-0.2
			c-0.3-0.1-0.6-0.3-0.9-0.6c-0.2-0.2-0.4-0.5-0.6-0.9c-0.1-0.3-0.2-0.7-0.2-1.1c0-0.4,0.1-0.8,0.2-1.2c0.1-0.4,0.3-0.7,0.5-0.9
			c0.2-0.3,0.5-0.5,0.9-0.6c0.3-0.1,0.7-0.2,1.2-0.2c0.3,0,0.6,0,0.9,0.1c0.3,0.1,0.6,0.2,0.8,0.4s0.4,0.4,0.6,0.6
			c0.1,0.3,0.2,0.6,0.3,0.9h-1.5C176.6,58.3,176.3,57.9,175.6,57.9z"/>
		<path class="st0" d="M182.2,58.9v1.3H179v-1.3H182.2z"/>
		<path class="st0" d="M186.3,57v1h-1.1v2.7c0,0.3,0,0.4,0.1,0.5s0.3,0.1,0.5,0.1c0.1,0,0.2,0,0.2,0c0.1,0,0.2,0,0.2,0v1.2
			c-0.1,0-0.3,0-0.4,0s-0.3,0-0.5,0s-0.5,0-0.7,0s-0.4-0.1-0.5-0.2c-0.2-0.1-0.3-0.2-0.4-0.4c-0.1-0.2-0.1-0.4-0.1-0.7V58h-0.9v-1
			h0.9v-1.6h1.5V57H186.3z"/>
		<path class="st0" d="M188.5,57v1l0,0c0.1-0.2,0.2-0.3,0.3-0.5c0.1-0.1,0.3-0.3,0.4-0.4c0.2-0.1,0.3-0.2,0.5-0.2s0.4-0.1,0.5-0.1
			s0.2,0,0.3,0.1v1.4c-0.1,0-0.2,0-0.3,0s-0.2,0-0.3,0c-0.3,0-0.5,0-0.7,0.1s-0.3,0.2-0.5,0.4c-0.1,0.2-0.2,0.3-0.2,0.6
			c0,0.2-0.1,0.4-0.1,0.7v2.5h-1.5V57H188.5z"/>
		<path class="st0" d="M191.1,58.6c0-0.4,0.1-0.6,0.3-0.9c0.2-0.2,0.4-0.4,0.6-0.6c0.2-0.1,0.5-0.2,0.8-0.3s0.6-0.1,0.9-0.1
			c0.3,0,0.6,0,0.8,0.1c0.3,0,0.5,0.1,0.8,0.2c0.2,0.1,0.4,0.3,0.6,0.5c0.1,0.2,0.2,0.5,0.2,0.8v2.8c0,0.2,0,0.5,0,0.7
			s0.1,0.4,0.1,0.5h-1.5c0-0.1-0.1-0.2-0.1-0.3s0-0.2,0-0.3c-0.2,0.2-0.5,0.4-0.8,0.5s-0.7,0.1-1,0.1s-0.5,0-0.7-0.1
			s-0.4-0.2-0.6-0.3c-0.2-0.1-0.3-0.3-0.4-0.5c-0.1-0.2-0.1-0.4-0.1-0.7s0.1-0.6,0.2-0.8c0.1-0.2,0.2-0.4,0.4-0.5s0.4-0.2,0.6-0.3
			c0.2-0.1,0.4-0.1,0.7-0.1c0.2,0,0.4-0.1,0.7-0.1c0.2,0,0.4-0.1,0.6-0.1c0.2,0,0.3-0.1,0.4-0.2c0.1-0.1,0.1-0.2,0.1-0.4
			s0-0.3-0.1-0.4c-0.1-0.1-0.1-0.2-0.2-0.2c-0.1-0.1-0.2-0.1-0.3-0.1s-0.2,0-0.4,0c-0.3,0-0.5,0.1-0.7,0.2c-0.2,0.1-0.3,0.3-0.3,0.6
			h-1.6V58.6z M194.6,59.7c-0.1,0.1-0.1,0.1-0.2,0.1c-0.1,0-0.2,0.1-0.3,0.1s-0.2,0-0.3,0.1s-0.2,0-0.4,0.1c-0.1,0-0.2,0-0.3,0.1
			c-0.1,0-0.2,0.1-0.3,0.1c-0.1,0.1-0.1,0.1-0.2,0.2c0,0.1-0.1,0.2-0.1,0.3s0,0.2,0.1,0.3c0,0.1,0.1,0.2,0.2,0.2
			c0.1,0.1,0.2,0.1,0.3,0.1s0.2,0,0.3,0c0.3,0,0.5,0,0.7-0.1s0.3-0.2,0.4-0.4c0.1-0.1,0.1-0.3,0.1-0.4c0-0.1,0-0.3,0-0.3V59.7z"/>
		<path class="st0" d="M201.1,61.7c-0.2,0.3-0.4,0.5-0.7,0.6s-0.6,0.2-1,0.2s-0.8-0.1-1.1-0.2c-0.3-0.2-0.6-0.4-0.8-0.6
			c-0.2-0.3-0.4-0.6-0.5-0.9c-0.1-0.4-0.2-0.7-0.2-1.1c0-0.4,0.1-0.7,0.2-1.1c0.1-0.3,0.3-0.6,0.5-0.9c0.2-0.3,0.5-0.5,0.8-0.6
			c0.3-0.2,0.7-0.2,1.1-0.2c0.3,0,0.6,0.1,0.9,0.2c0.3,0.1,0.5,0.3,0.7,0.6l0,0V55h1.5v7.5h-1.4V61.7L201.1,61.7z M201,59
			c0-0.2-0.1-0.4-0.2-0.5c-0.1-0.2-0.2-0.3-0.4-0.4c-0.2-0.1-0.4-0.1-0.6-0.1c-0.2,0-0.5,0-0.6,0.1c-0.2,0.1-0.3,0.2-0.4,0.4
			c-0.1,0.2-0.2,0.3-0.2,0.6c0,0.2-0.1,0.4-0.1,0.6c0,0.2,0,0.4,0.1,0.6c0,0.2,0.1,0.4,0.2,0.6c0.1,0.2,0.2,0.3,0.4,0.4
			c0.2,0.1,0.4,0.2,0.6,0.2c0.2,0,0.5,0,0.6-0.1c0.2-0.1,0.3-0.2,0.4-0.4c0.1-0.2,0.2-0.4,0.2-0.6c0-0.2,0.1-0.4,0.1-0.7
			S201.1,59.2,201,59z"/>
		<path class="st0" d="M205.3,61.1c0.2,0.2,0.5,0.3,1,0.3c0.3,0,0.6-0.1,0.8-0.2c0.2-0.2,0.4-0.3,0.4-0.5h1.3
			c-0.2,0.7-0.5,1.1-1,1.4c-0.4,0.3-1,0.4-1.6,0.4c-0.4,0-0.8-0.1-1.2-0.2c-0.3-0.1-0.6-0.3-0.9-0.6c-0.2-0.3-0.4-0.6-0.6-0.9
			c-0.1-0.4-0.2-0.7-0.2-1.2c0-0.4,0.1-0.8,0.2-1.1c0.1-0.4,0.3-0.7,0.6-0.9c0.2-0.3,0.5-0.5,0.9-0.6c0.3-0.1,0.7-0.2,1.1-0.2
			c0.5,0,0.9,0.1,1.2,0.3s0.6,0.4,0.8,0.7s0.4,0.6,0.5,1s0.1,0.8,0.1,1.2h-3.9C204.9,60.5,205,60.9,205.3,61.1z M207,58.2
			c-0.2-0.2-0.5-0.3-0.8-0.3c-0.2,0-0.4,0-0.6,0.1s-0.3,0.2-0.4,0.3c-0.1,0.1-0.2,0.2-0.2,0.4c0,0.1-0.1,0.3-0.1,0.4h2.4
			C207.3,58.7,207.1,58.4,207,58.2z"/>
	</g>
	<g>
		<g>
			<polygon class="st1" points="14.4,37.4 14.4,59 43.3,75.7 43.3,54.1 			"/>
			<polygon class="st2" points="43.3,54.1 43.3,75.7 72.3,59 72.3,37.4 			"/>
		</g>
		<polygon class="st0" points="43.3,4.3 0.2,29.2 43.3,54.1 86.5,29.2 		"/>
		<polygon class="st3" points="86.5,29.2 81.7,31.9 81.7,53.6 86.5,50.8 		"/>
	</g>
	<g>
		<g>
			<path class="st0" d="M114.8,47.3c-0.7,1.2-1.6,2-2.7,2.5s-2.4,0.8-3.8,0.8c-1.6,0-3-0.3-4.2-0.9c-1.2-0.6-2.2-1.5-3-2.5
				c-0.8-1.1-1.4-2.3-1.8-3.6c-0.4-1.4-0.6-2.8-0.6-4.3c0-1.4,0.2-2.8,0.6-4.1s1-2.5,1.8-3.5s1.8-1.8,2.9-2.4
				c1.2-0.6,2.6-0.9,4.1-0.9c1.3,0,2.5,0.3,3.6,0.8s2,1.3,2.7,2.4h0.1V20.7h5.8V50h-5.6L114.8,47.3L114.8,47.3z M114.5,36.8
				c-0.2-0.8-0.4-1.5-0.8-2.1s-0.9-1.1-1.5-1.5s-1.4-0.6-2.4-0.6s-1.8,0.2-2.4,0.6c-0.7,0.4-1.2,0.9-1.6,1.5s-0.7,1.4-0.9,2.2
				c-0.2,0.8-0.3,1.7-0.3,2.5s0.1,1.6,0.3,2.5c0.2,0.8,0.5,1.6,0.9,2.2c0.4,0.6,1,1.2,1.6,1.6c0.6,0.4,1.4,0.6,2.3,0.6
				c1,0,1.8-0.2,2.4-0.6c0.6-0.4,1.2-0.9,1.5-1.5c0.4-0.6,0.7-1.4,0.8-2.2c0.2-0.8,0.2-1.7,0.2-2.6
				C114.8,38.5,114.7,37.6,114.5,36.8z"/>
			<path class="st0" d="M130.4,28.8v3.9h0.1c0.3-0.7,0.6-1.3,1.1-1.8c0.5-0.6,1-1,1.6-1.4s1.2-0.7,1.9-0.9c0.7-0.2,1.4-0.3,2.1-0.3
				c0.4,0,0.8,0.1,1.3,0.2v5.4c-0.3-0.1-0.6-0.1-1-0.1s-0.8-0.1-1.1-0.1c-1.1,0-2,0.2-2.7,0.5c-0.7,0.4-1.3,0.8-1.8,1.5
				c-0.5,0.6-0.8,1.3-1,2.2c-0.2,0.8-0.3,1.7-0.3,2.7V50h-5.8V28.8H130.4z"/>
			<path class="st0" d="M150,32.7v-3.9h3.5v-1.6c0-1.9,0.6-3.4,1.8-4.6s3-1.8,5.3-1.8c0.5,0,1,0,1.6,0.1c0.5,0,1,0.1,1.5,0.1v4.4
				c-0.7-0.1-1.4-0.1-2.1-0.1c-0.8,0-1.4,0.2-1.7,0.6s-0.5,1-0.5,1.9v1.3h4V33h-4v17h-5.8V32.7H150z"/>
			<path class="st0" d="M172.2,44.9c0.9,0.9,2.1,1.3,3.8,1.3c1.2,0,2.2-0.3,3-0.9c0.9-0.6,1.4-1.2,1.6-1.9h5.1
				c-0.8,2.6-2.1,4.4-3.8,5.5s-3.8,1.6-6.2,1.6c-1.7,0-3.2-0.3-4.5-0.8s-2.5-1.3-3.4-2.3s-1.7-2.2-2.2-3.5c-0.5-1.4-0.8-2.9-0.8-4.5
				s0.3-3.1,0.8-4.4c0.5-1.4,1.3-2.6,2.2-3.6c1-1,2.1-1.8,3.4-2.4c1.3-0.6,2.8-0.9,4.4-0.9c1.8,0,3.4,0.3,4.7,1s2.4,1.6,3.3,2.8
				c0.9,1.2,1.5,2.5,1.9,4s0.5,3.1,0.4,4.7h-15.3C170.9,42.7,171.3,44.1,172.2,44.9z M178.8,33.7c-0.7-0.8-1.8-1.2-3.2-1.2
				c-0.9,0-1.7,0.2-2.3,0.5s-1.1,0.7-1.5,1.2s-0.6,1-0.8,1.5s-0.2,1-0.3,1.4h9.5C180,35.6,179.5,34.5,178.8,33.7z"/>
			<path class="st0" d="M195.8,44.9c0.9,0.9,2.1,1.3,3.8,1.3c1.2,0,2.2-0.3,3-0.9c0.9-0.6,1.4-1.2,1.6-1.9h5.1
				c-0.8,2.6-2.1,4.4-3.8,5.5s-3.8,1.6-6.2,1.6c-1.7,0-3.2-0.3-4.5-0.8s-2.5-1.3-3.4-2.3s-1.7-2.2-2.2-3.5c-0.5-1.4-0.8-2.9-0.8-4.5
				s0.3-3.1,0.8-4.4c0.5-1.4,1.3-2.6,2.2-3.6c1-1,2.1-1.8,3.4-2.4c1.3-0.6,2.8-0.9,4.4-0.9c1.8,0,3.4,0.3,4.7,1s2.4,1.6,3.3,2.8
				c0.9,1.2,1.5,2.5,1.9,4s0.5,3.1,0.4,4.7h-15.3C194.5,42.7,194.9,44.1,195.8,44.9z M202.4,33.7c-0.7-0.8-1.8-1.2-3.2-1.2
				c-0.9,0-1.7,0.2-2.3,0.5s-1.1,0.7-1.5,1.2s-0.6,1-0.8,1.5s-0.2,1-0.3,1.4h9.5C203.6,35.6,203.1,34.5,202.4,33.7z"/>
		</g>
		<rect x="140.3" y="37.5" class="st0" width="8.4" height="3.7"/>
	</g>
</g>
</svg>
