<?xml version="1.0" encoding="utf-8"?>
<!-- Generator: Adobe Illustrator 26.2.0, SVG Export Plug-In . SVG Version: 6.00 Build 0)  -->
<svg version="1.1" id="Layer_1" xmlns="http://www.w3.org/2000/svg" xmlns:xlink="http://www.w3.org/1999/xlink" x="0px" y="0px"
	 viewBox="0 0 40 40" style="enable-background:new 0 0 40 40;" xml:space="preserve">
<style type="text/css">
	.st0{fill:none;}
	.st1{fill:#231F20;}
</style>
<g>
	<rect class="st0" width="40" height="40"/>
	<g>
		<path class="st1" d="M12.5,8.7c0.1,0,0.3,0,0.4,0c6.1,0,12.3,0,18.4,0c0.3,0,0.5,0.1,0.6,0.4c1.7,3.5,3.4,7,5.1,10.6
			c0.1,0.3,0.1,0.4-0.1,0.7c-3.1,3.5-6.2,7-9.3,10.5c-0.2,0.3-0.5,0.4-0.8,0.4c-1.4-0.1-2.9-0.1-4.3-0.3c-0.6-0.1-1.2-0.3-1.7-0.6
			c-0.6-0.2-0.7-0.8-0.5-1.4c0.2-0.6,0.6-0.8,1.4-0.7c0.9,0.1,1.8,0.3,2.7,0.3c1.4,0,2.3-0.6,2.8-1.9c0.1-0.2,0.2-0.3,0.4-0.4
			c0.2-0.1,0.4-0.2,0.4-0.3c0.2-0.5,0.3-0.9,0.4-1.4c0.2-0.8-0.1-1.3-0.8-1.7c-0.6-0.3-1.1-0.6-1.7-0.9c-0.3-0.2-0.7-0.5-1-0.7
			c0.5-0.7,0.9-1.5,1-2.4c0.2-1.2,0.1-2.4-0.1-3.6c-0.1-0.7-0.2-1.4-0.3-2.1c0-0.4,0-0.9,0-1.3c0-0.1,0-0.3,0-0.4c0,0-0.1,0-0.1,0
			c-0.1,0.4-0.3,0.7-0.4,1.1c-0.5,1.6-0.7,3.3-0.7,5c0,0.1,0,0.2,0,0.2c0,0.1-0.1,0.2-0.1,0.3C24.2,18,24,18,24,17.9
			c-1.1-1.5-2.5-2.5-4.3-2.9c-1.1-0.2-2.1-0.1-3,0.5c-0.5,0.4-1,0.4-1.5,0.2c-1-0.3-1.9-0.8-2.5-1.6c-0.3-0.3-0.3-0.8-0.4-1.2
			c-0.2-1.3-0.1-2.7,0.2-4C12.4,8.9,12.4,8.8,12.5,8.7z"/>
		<path class="st1" d="M2.3,31.2C2.6,29.6,3,28,3.3,26.4c0.8-3.5,1.6-7.1,2.4-10.6c0.5-2.3,1.1-4.6,1.6-6.9c0-0.1,0.2-0.3,0.3-0.3
			c1.3,0,2.6,0,4,0c-0.2,0.7-0.5,1.3-0.6,2c-0.3,1-0.5,2-0.5,3c0,0.6,0.1,1.2,0.5,1.8c0.1,0.2,0.2,0.5,0.2,0.7
			c0.1,1,0.6,1.8,1.5,2.3c0.4,0.2,0.6,0.5,1,0.7c0.2,0.2,0.3,0.3,0.3,0.6c0,1.7,0.1,3.3-0.2,4.9c-0.1,0.8-0.4,1.6-0.8,2.4
			c-0.6,1.1-1.7,1.6-2.9,1.4c-1.1-0.2-2.1,0-3.1,0.4c-1.1,0.5-2.1,1.1-3,1.9C3.4,31.3,2.9,31.2,2.3,31.2z"/>
	</g>
</g>
</svg>
