<?xml version="1.0" encoding="UTF-8"?><svg id="Layer_1" xmlns="http://www.w3.org/2000/svg" viewBox="0 0 60 60"><defs><style>.cls-1{fill:#2496fc;}</style></defs><path d="M24.25,40.54c.66-5.02,5.89-10.09,8.33-13.7,2.45-3.61,2.37-8.31,.92-13.05-1.45-4.74-4.36-6.85-4.36-6.85,0,0,.38,4.87-1.99,10.22-2.37,5.35-5.81,6.73-9.48,12.15s-2.75,12,0,16.82c2.75,4.82,10.4,6.96,10.4,6.96,0,0-4.59-6.73-3.82-12.54Z"/><path class="cls-1" d="M39.01,25.32s-1.15,4.05-3.52,7.19c-2.37,3.13-5.12,7.72-4.89,12.54s4.28,8.03,4.28,8.03c0,0-.73-.62,4.43-4.05,3.22-2.14,5.44-6.34,5.44-12.54,0-5.73-5.73-11.16-5.73-11.16Z"/></svg>