<?xml version="1.0" encoding="UTF-8"?><svg id="Layer_1" xmlns="http://www.w3.org/2000/svg" viewBox="0 0 60 60"><defs><style>.cls-1{fill:#003d85;}</style></defs><path class="cls-1" d="M30,7.88L10.84,18.94v22.12l19.16,11.06,19.16-11.06V18.94L30,7.88Zm-7.6,9.56h15.21l1.62,7.6H20.77l1.62-7.6Zm6.05,23.07l-3.06,2.99h-2.97l-6.75-11.96,4.87-3.93,4.52,2.82v5.2l3.4,3.21v1.66Zm-2.21-5.09l.44-4.98-1.62-4.06h9.89l-1.62,4.06,.44,4.98h-7.53Zm11.35,8.08h-2.97l-3.06-2.99v-1.66l3.4-3.21v-5.2l4.52-2.82,4.87,3.93-6.75,11.96Z"/></svg>