<?xml version="1.0" encoding="UTF-8"?><svg id="Layer_1" xmlns="http://www.w3.org/2000/svg" viewBox="0 0 60 60"><defs><style>.cls-1{fill:#fcb621;}</style></defs><rect class="cls-1" x="42" y="18.87" width="2.97" height="14.86"/><path d="M36.75,30.44c1.07-.66,1.82-1.8,1.82-3.38,0-2.6-2.21-3.82-4.11-3.82h-6.46v14.87h6.17c2.22,0,4.63-1.49,4.63-4.21,0-1.71-.9-2.84-2.05-3.45Zm-5.79-4.76h2.68c.96,0,2.03,.34,2.03,1.59s-.73,1.9-2.14,1.9h-2.58v-3.49Zm2.7,9.87h-2.7v-3.69h2.81c1,0,2.11,.36,2.11,1.68s-.76,2.01-2.22,2.01Z"/><path d="M10.68,30.44c1.07-.66,1.82-1.8,1.82-3.38,0-2.6-2.21-3.82-4.11-3.82H1.93v14.87h6.17c2.22,0,4.63-1.49,4.63-4.21,0-1.71-.9-2.84-2.05-3.45Zm-5.79-4.76h2.68c.96,0,2.03,.34,2.03,1.59s-.73,1.9-2.14,1.9h-2.58v-3.49Zm2.7,9.87h-2.7v-3.69h2.81c1,0,2.11,.36,2.11,1.68s-.76,2.01-2.22,2.01Z"/><polygon points="54.29 23.24 51.33 23.24 47.55 23.24 47.55 25.69 51.33 25.69 51.33 38.11 54.29 38.11 54.29 25.69 58.07 25.69 58.07 23.24 54.29 23.24"/><polygon points="20.11 29.3 17.4 23.24 14.25 23.24 18.62 31.77 18.62 38.11 21.59 38.11 21.59 31.77 25.96 23.24 22.81 23.24 20.11 29.3"/></svg>