<?xml version="1.0" encoding="utf-8"?>
<!-- Generator: Adobe Illustrator 27.9.0, SVG Export Plug-In . SVG Version: 6.00 Build 0)  -->
<svg version="1.1" id="Layer_1" xmlns="http://www.w3.org/2000/svg" xmlns:xlink="http://www.w3.org/1999/xlink" x="0px" y="0px"
	 viewBox="0 0 1000 1000" style="enable-background:new 0 0 1000 1000;" xml:space="preserve">
<style type="text/css">
	.st0{fill:#46B978;}
	.st1{fill:#264052;}
</style>
<g>
	<g>
		<polygon class="st0" points="433,358.7 377.2,358.7 377.2,472.2 433,425.3 		"/>
		<polygon class="st0" points="508.8,406 508.8,318.8 452.9,318.8 452.9,408.6 487.4,379.6 		"/>
		<polygon class="st1" points="508.5,497.1 508.2,496.6 472,456.8 377.2,513.7 377.2,551.7 584.5,551.7 584.5,431 		"/>
		<polygon class="st0" points="584.5,268.1 528.7,268.1 528.7,400.5 584.5,352.5 		"/>
		<polygon class="st0" points="664.3,323.2 600.9,334.5 611.1,346.5 512.7,431.1 485.6,397.7 335.7,523.8 474.5,440.4 508.8,479.2 
			633.3,372.2 645.1,385.9 		"/>
	</g>
	<g>
		<path class="st1" d="M23.2,614.6H52c5.7,0,10.3,0.8,13.8,2.4c3.5,1.6,6.4,4,8.7,7c2.3,3,3.9,6.6,5,10.6c1,4,1.5,8.3,1.5,12.9
			c0,7.1-0.8,12.6-2.3,16.5c-1.5,3.9-3.7,7.2-6.4,9.8c-2.7,2.6-5.6,4.4-8.8,5.3c-4.3,1.2-8.1,1.8-11.6,1.8H23.2V614.6z M42.6,629.6
			v36.2h4.8c4.1,0,7-0.5,8.7-1.4c1.7-1,3.1-2.6,4-5s1.5-6.2,1.5-11.5c0-7-1.1-11.8-3.3-14.4c-2.2-2.6-5.8-3.9-10.8-3.9H42.6z"/>
		<path class="st1" d="M89.9,647.8c0-23,7.6-34.3,30.8-34.3s31,14.6,31,33.8s-2.9,34.8-30.3,34.8S89.9,670.8,89.9,647.8z
			 M107.4,647.9c0,7.2,1.2,12.4,3.6,15.6s5.7,4.7,9.8,4.7c4.2,0,7.5-1.5,9.9-4.6c2.3-3.1,3.5-8.7,3.5-16.7c0-6.7-1.2-11.7-3.6-14.8
			c-2.4-3.1-5.7-4.7-9.9-4.7c-4,0-7.2,1.6-9.6,4.7C108.6,635.4,107.4,640.6,107.4,647.9z"/>
		<path class="st1" d="M387.2,647.8c0-23,7.6-34.3,30.8-34.3c23.2,0,31,14.6,31,33.8s-2.9,34.8-30.3,34.8S387.2,670.8,387.2,647.8z
			 M404.7,647.9c0,7.2,1.2,12.4,3.6,15.6s5.7,4.7,9.8,4.7c4.2,0,7.5-1.5,9.9-4.6c2.3-3.1,3.5-8.7,3.5-16.7c0-6.7-1.2-11.7-3.6-14.8
			c-2.4-3.1-5.7-4.7-9.9-4.7c-4,0-7.2,1.6-9.6,4.7C405.9,635.4,404.7,640.6,404.7,647.9z"/>
		<path class="st1" d="M164.3,614.6h20.3l15.1,33.2l15-33.2h20.3V681h-15.9v-50.6L205.4,669H194l-13.7-38.6V681h-15.9V614.6z"/>
		<path class="st1" d="M249.1,614.6h19.5V681h-19.5V614.6z"/>
		<path class="st1" d="M281.8,614.6H300l23.7,36.7v-36.7H342V681h-18.3l-23.6-36.4V681h-18.3V614.6z"/>
		<path class="st1" d="M355.7,614.6h19.5V681h-19.5V614.6z"/>
		<path class="st1" d="M460,614.6h18.1l23.7,36.7v-36.7h18.3V681h-18.3l-23.6-36.4V681H460V614.6z"/>
		<path class="st1" d="M557.1,681v-66.3H570l15.4,47c1.4,4.4,2.5,7.6,3.1,9.8c0.7-2.4,1.9-6,3.5-10.6l15.5-46.1H619V681h-8.3v-55.5
			L591.9,681h-7.8l-18.8-56.5V681H557.1z"/>
		<path class="st1" d="M629,681l24.3-66.3h9l25.9,66.3h-9.5l-7.4-20.1h-26.5l-7,20.1H629z M647.3,653.7h21.5l-6.6-18.4
			c-2-5.6-3.5-10.2-4.5-13.8c-0.8,4.3-1.9,8.5-3.4,12.7L647.3,653.7z"/>
		<path class="st1" d="M701.1,681v-66.3h23.3c4.7,0,8.2,0.6,10.7,1.8c2.4,1.2,4.4,3.3,5.8,6.3c1.5,3,2.2,6.4,2.2,10
			c0,4.7-1.2,8.7-3.6,11.9c-2.4,3.2-6.1,5.3-11.2,6.2c1.8,1.1,3.3,3.6,5.3,7c4,9.6,10.2,23.2,10.2,23.2H735c0,0-6.2-18.4-9.3-23.8
			c-0.7-1.2-4.7-5-5.8-5.3c-0.8-0.2-2.1-0.3-3.9-0.3H708V681H701.1z M708,643.9h14.9c3.2,0,5.7-0.4,7.5-1.2c1.8-0.8,3.2-2.2,4.1-4
			c0.9-1.8,1.4-3.8,1.4-6c0-3.1-0.9-5.7-2.7-7.7c-1.8-2-4.7-3-8.6-3H708V643.9z"/>
		<path class="st1" d="M760.1,681v-66.3h7.7v32.9l28.8-32.9H807l-24.3,26.9l25.4,39.5H798l-20.6-33.6l-9.5,10.6v23H760.1z"/>
		<path class="st1" d="M820.5,681v-66.3H861v7.8h-32.2v20.3h29.8v7.8h-29.8v22.6h33.7v7.8H820.5z"/>
		<path class="st1" d="M890.8,681v-58.5h-20.9v-7.8h50.2v7.8h-20.9V681H890.8z"/>
		<path class="st1" d="M182.3,731.5v-8.6l-7.8-11.7h3.3l4,6.1c0.7,1.1,1.4,2.3,2.1,3.4c0.6-1.1,1.3-2.3,2.2-3.6l3.9-6h3.1l-8.1,11.7
			v8.6H182.3z"/>
		<path class="st1" d="M207.4,721.6c0-3.4,0.8-6,2.5-7.9c1.7-1.9,3.8-2.9,6.5-2.9c1.7,0,3.3,0.4,4.7,1.3c1.4,0.9,2.5,2.1,3.2,3.7
			c0.7,1.6,1.1,3.4,1.1,5.4c0,2.1-0.4,3.9-1.2,5.5s-1.9,2.9-3.3,3.7c-1.4,0.8-2.9,1.2-4.6,1.2c-1.8,0-3.3-0.5-4.7-1.4
			c-1.4-0.9-2.4-2.2-3.2-3.8C207.8,725.1,207.4,723.4,207.4,721.6z M210.2,721.7c0,2.4,0.6,4.4,1.8,5.8s2.6,2.1,4.4,2.1
			c1.8,0,3.3-0.7,4.5-2.1c1.2-1.4,1.7-3.4,1.7-6c0-1.7-0.2-3.1-0.7-4.3c-0.5-1.2-1.2-2.2-2.2-2.9c-1-0.7-2-1-3.2-1
			c-1.7,0-3.2,0.7-4.4,2C210.9,716.5,210.2,718.6,210.2,721.7z"/>
		<path class="st1" d="M253.5,711.2h2.7V723c0,2-0.2,3.7-0.7,4.9c-0.5,1.2-1.3,2.2-2.5,2.9c-1.2,0.8-2.8,1.1-4.7,1.1
			c-1.9,0-3.5-0.3-4.7-1c-1.2-0.7-2.1-1.6-2.6-2.8c-0.5-1.2-0.8-2.9-0.8-5.1v-11.7h2.7v11.7c0,1.8,0.2,3.1,0.5,3.9
			c0.3,0.8,0.9,1.5,1.7,1.9c0.8,0.5,1.8,0.7,2.9,0.7c2,0,3.4-0.4,4.2-1.3c0.8-0.9,1.3-2.6,1.3-5.2V711.2z"/>
		<path class="st1" d="M272,731.5v-20.3h9c1.8,0,3.2,0.2,4.1,0.5c0.9,0.4,1.7,1,2.3,1.9c0.6,0.9,0.8,1.9,0.8,3.1
			c0,1.4-0.5,2.7-1.4,3.6c-0.9,1-2.4,1.6-4.3,1.9c0.7,0.3,1.2,0.7,1.6,1c0.8,0.7,1.5,1.6,2.2,2.7l3.5,5.5h-3.4l-2.7-4.2
			c-0.8-1.2-1.4-2.1-1.9-2.8c-0.5-0.6-1-1.1-1.4-1.4c-0.4-0.3-0.8-0.4-1.2-0.5c-0.3-0.1-0.8-0.1-1.5-0.1h-3.1v9H272z M274.7,720.2
			h5.8c1.2,0,2.2-0.1,2.9-0.4s1.2-0.7,1.6-1.2c0.4-0.6,0.5-1.2,0.5-1.8c0-1-0.3-1.7-1-2.4c-0.7-0.6-1.8-0.9-3.3-0.9h-6.4V720.2z"/>
		<path class="st1" d="M327.6,731.5v-17.9h-6.7v-2.4H337v2.4h-6.7v17.9H327.6z"/>
		<path class="st1" d="M351.1,731.5v-20.3h9c1.8,0,3.2,0.2,4.1,0.5c0.9,0.4,1.7,1,2.3,1.9c0.6,0.9,0.8,1.9,0.8,3.1
			c0,1.4-0.5,2.7-1.4,3.6c-0.9,1-2.4,1.6-4.3,1.9c0.7,0.3,1.2,0.7,1.6,1c0.8,0.7,1.5,1.6,2.2,2.7l3.5,5.5h-3.4l-2.7-4.2
			c-0.8-1.2-1.4-2.1-1.9-2.8c-0.5-0.6-1-1.1-1.4-1.4c-0.4-0.3-0.8-0.4-1.2-0.5c-0.3-0.1-0.8-0.1-1.5-0.1h-3.1v9H351.1z M353.8,720.2
			h5.8c1.2,0,2.2-0.1,2.9-0.4c0.7-0.3,1.2-0.7,1.6-1.2c0.4-0.6,0.5-1.2,0.5-1.8c0-1-0.3-1.7-1-2.4c-0.7-0.6-1.8-0.9-3.3-0.9h-6.4
			V720.2z"/>
		<path class="st1" d="M380.6,731.5l7.8-20.3h2.9l8.3,20.3h-3.1l-2.4-6.1h-8.5l-2.2,6.1H380.6z M386.4,723.2h6.9l-2.1-5.6
			c-0.6-1.7-1.1-3.1-1.4-4.2c-0.3,1.3-0.6,2.6-1.1,3.9L386.4,723.2z"/>
		<path class="st1" d="M413,731.5v-20.3h7c1.6,0,2.8,0.1,3.6,0.3c1.2,0.3,2.2,0.8,3,1.5c1.1,0.9,1.9,2.1,2.4,3.5
			c0.5,1.4,0.8,3,0.8,4.8c0,1.5-0.2,2.9-0.5,4.1c-0.4,1.2-0.8,2.2-1.4,3c-0.6,0.8-1.2,1.4-1.8,1.8c-0.7,0.4-1.5,0.8-2.4,1
			c-0.9,0.2-2,0.3-3.3,0.3H413z M415.7,729.1h4.3c1.3,0,2.4-0.1,3.1-0.4c0.8-0.2,1.4-0.6,1.8-1.1c0.6-0.6,1.1-1.5,1.5-2.6
			c0.4-1.1,0.5-2.4,0.5-3.9c0-2.1-0.3-3.8-1-4.9s-1.5-1.9-2.5-2.3c-0.7-0.3-1.9-0.4-3.5-0.4h-4.3V729.1z"/>
		<path class="st1" d="M445.3,731.5v-20.3h2.7v20.3H445.3z"/>
		<path class="st1" d="M464,731.5v-20.3h2.8l10.6,15.9v-15.9h2.6v20.3h-2.8l-10.6-15.9v15.9H464z"/>
		<path class="st1" d="M505.3,723.6v-2.4l8.6,0v7.5c-1.3,1-2.7,1.8-4.1,2.4c-1.4,0.5-2.8,0.8-4.3,0.8c-2,0-3.8-0.4-5.4-1.3
			c-1.6-0.9-2.9-2.1-3.7-3.7c-0.8-1.6-1.2-3.4-1.2-5.4c0-2,0.4-3.8,1.2-5.5c0.8-1.7,2-3,3.6-3.8c1.5-0.8,3.3-1.2,5.4-1.2
			c1.5,0,2.8,0.2,4,0.7c1.2,0.5,2.1,1.1,2.8,2c0.7,0.8,1.2,2,1.5,3.3l-2.4,0.7c-0.3-1-0.7-1.8-1.1-2.4c-0.5-0.6-1.1-1.1-1.9-1.4
			c-0.8-0.4-1.8-0.5-2.8-0.5c-1.2,0-2.3,0.2-3.2,0.6c-0.9,0.4-1.6,0.9-2.2,1.5c-0.5,0.6-1,1.3-1.3,2c-0.5,1.3-0.8,2.6-0.8,4.1
			c0,1.8,0.3,3.3,0.9,4.5c0.6,1.2,1.5,2.1,2.7,2.7c1.2,0.6,2.5,0.9,3.8,0.9c1.2,0,2.3-0.2,3.4-0.7c1.1-0.4,1.9-0.9,2.5-1.4v-3.8
			H505.3z"/>
		<path class="st1" d="M547.4,725l2.5-0.2c0.1,1,0.4,1.8,0.8,2.5c0.4,0.6,1.1,1.2,2,1.6c0.9,0.4,2,0.6,3.1,0.6c1,0,1.9-0.2,2.7-0.5
			c0.8-0.3,1.4-0.7,1.8-1.3c0.4-0.5,0.6-1.1,0.6-1.7c0-0.6-0.2-1.2-0.6-1.7c-0.4-0.5-1-0.9-1.8-1.2c-0.5-0.2-1.7-0.5-3.6-1
			s-3.2-0.9-3.9-1.3c-1-0.5-1.7-1.1-2.2-1.9c-0.5-0.8-0.7-1.6-0.7-2.5c0-1,0.3-2,0.9-2.9c0.6-0.9,1.4-1.6,2.5-2s2.4-0.7,3.7-0.7
			c1.5,0,2.8,0.2,4,0.7c1.1,0.5,2,1.2,2.6,2.1c0.6,0.9,0.9,2,1,3.2l-2.6,0.2c-0.1-1.3-0.6-2.2-1.4-2.9c-0.8-0.7-2-1-3.5-1
			c-1.6,0-2.8,0.3-3.5,0.9c-0.7,0.6-1.1,1.3-1.1,2.2c0,0.7,0.3,1.3,0.8,1.8c0.5,0.5,1.9,1,4,1.4c2.2,0.5,3.7,0.9,4.5,1.3
			c1.2,0.5,2,1.2,2.6,2.1c0.6,0.8,0.8,1.8,0.8,2.9c0,1.1-0.3,2.1-0.9,3s-1.5,1.7-2.7,2.2c-1.2,0.5-2.5,0.8-3.9,0.8
			c-1.8,0-3.4-0.3-4.6-0.8c-1.2-0.5-2.2-1.3-2.9-2.4C547.8,727.6,547.4,726.4,547.4,725z"/>
		<path class="st1" d="M576.3,731.5l7.8-20.3h2.9l8.3,20.3h-3.1l-2.4-6.1h-8.5l-2.2,6.1H576.3z M582.2,723.2h6.9l-2.1-5.6
			c-0.6-1.7-1.1-3.1-1.4-4.2c-0.3,1.3-0.6,2.6-1.1,3.9L582.2,723.2z"/>
		<path class="st1" d="M608.7,731.5v-20.3h2.8l10.6,15.9v-15.9h2.6v20.3h-2.8l-10.6-15.9v15.9H608.7z"/>
		<path class="st1" d="M655,724.4l2.7,0.7c-0.6,2.2-1.6,3.9-3,5s-3.2,1.7-5.4,1.7c-2.2,0-4-0.4-5.3-1.3c-1.4-0.9-2.4-2.2-3.1-3.9
			c-0.7-1.7-1.1-3.5-1.1-5.4c0-2.1,0.4-4,1.2-5.5c0.8-1.6,2-2.8,3.4-3.6c1.5-0.8,3.1-1.2,4.9-1.2c2,0,3.7,0.5,5.1,1.5
			c1.4,1,2.3,2.5,2.9,4.4l-2.6,0.6c-0.5-1.5-1.2-2.6-2-3.2c-0.9-0.7-2-1-3.4-1c-1.6,0-2.9,0.4-3.9,1.1c-1,0.7-1.8,1.7-2.2,3
			c-0.4,1.3-0.6,2.6-0.6,3.9c0,1.7,0.3,3.2,0.8,4.5c0.5,1.3,1.3,2.2,2.3,2.9c1.1,0.6,2.2,1,3.4,1c1.5,0,2.8-0.4,3.8-1.3
			C653.9,727.4,654.6,726.1,655,724.4z"/>
		<path class="st1" d="M677.5,731.5v-17.9h-6.7v-2.4h16.1v2.4h-6.7v17.9H677.5z"/>
		<path class="st1" d="M714.2,711.2h2.7V723c0,2-0.2,3.7-0.7,4.9s-1.3,2.2-2.5,2.9c-1.2,0.8-2.8,1.1-4.7,1.1c-1.9,0-3.5-0.3-4.7-1
			c-1.2-0.7-2.1-1.6-2.6-2.8c-0.5-1.2-0.8-2.9-0.8-5.1v-11.7h2.7v11.7c0,1.8,0.2,3.1,0.5,3.9c0.3,0.8,0.9,1.5,1.7,1.9
			s1.8,0.7,2.9,0.7c2,0,3.4-0.4,4.2-1.3c0.8-0.9,1.3-2.6,1.3-5.2V711.2z"/>
		<path class="st1" d="M730.5,731.5l7.8-20.3h2.9l8.3,20.3h-3.1l-2.4-6.1h-8.5l-2.2,6.1H730.5z M736.3,723.2h6.9l-2.1-5.6
			c-0.6-1.7-1.1-3.1-1.4-4.2c-0.3,1.3-0.6,2.6-1.1,3.9L736.3,723.2z"/>
		<path class="st1" d="M762.9,731.5v-20.3h9c1.8,0,3.2,0.2,4.1,0.5c0.9,0.4,1.7,1,2.3,1.9c0.6,0.9,0.8,1.9,0.8,3.1
			c0,1.4-0.5,2.7-1.4,3.6c-0.9,1-2.4,1.6-4.3,1.9c0.7,0.3,1.2,0.7,1.6,1c0.8,0.7,1.5,1.6,2.2,2.7l3.5,5.5h-3.4l-2.7-4.2
			c-0.8-1.2-1.4-2.1-1.9-2.8c-0.5-0.6-1-1.1-1.4-1.4c-0.4-0.3-0.8-0.4-1.2-0.5c-0.3-0.1-0.8-0.1-1.5-0.1h-3.1v9H762.9z M765.6,720.2
			h5.8c1.2,0,2.2-0.1,2.9-0.4c0.7-0.3,1.2-0.7,1.6-1.2c0.4-0.6,0.5-1.2,0.5-1.8c0-1-0.3-1.7-1-2.4c-0.7-0.6-1.8-0.9-3.3-0.9h-6.4
			V720.2z"/>
		<path class="st1" d="M799.9,731.5v-8.6l-7.8-11.7h3.3l4,6.1c0.7,1.1,1.4,2.3,2.1,3.4c0.6-1.1,1.3-2.3,2.2-3.6l3.9-6h3.1l-8.1,11.7
			v8.6H799.9z"/>
		<g>
			<path class="st1" d="M966.1,646c-2.5-1.2-7.2-2.6-14-4.2c-6.8-1.6-11-3.2-12.6-4.7c-1.6-1.5-2.5-3.5-2.5-5.9c0-2.7,1.2-5.1,3.5-7
				c2.3-1.9,6-2.9,11.1-2.9c4.9,0,8.5,1.1,11,3.2c1.5,1.3,2.6,3,3.4,5.1h8.6c-0.5-2.4-1.3-4.6-2.6-6.7c-1.9-3.1-4.7-5.4-8.3-7
				c-3.6-1.6-7.7-2.4-12.4-2.4c-4.3,0-8.1,0.8-11.6,2.3c-3.5,1.5-6.1,3.7-7.9,6.6c-1.8,2.9-2.7,6-2.7,9.4c0,3,0.7,5.8,2.2,8.3
				c1.5,2.5,3.7,4.5,6.8,6.2c2.3,1.3,6.4,2.7,12.2,4.1c5.8,1.5,9.6,2.5,11.3,3.2c2.7,1.1,4.6,2.4,5.7,3.9c1.2,1.6,1.7,3.4,1.7,5.5
				c0,2.1-0.6,3.9-1.8,5.7c-1.2,1.7-3,3.1-5.5,4.1c-2.4,1-5.3,1.5-8.5,1.5c-3.6,0-6.8-0.7-9.7-2c-2.9-1.3-5-3-6.4-5.2
				c-0.3-0.4-0.4-0.9-0.6-1.4h-9c0.6,2.1,1.4,4,2.6,5.9c2.2,3.5,5.2,6.1,9.1,7.9c3.9,1.7,8.7,2.6,14.4,2.6c4.5,0,8.6-0.9,12.2-2.6
				c3.6-1.7,6.4-4.2,8.3-7.3c1.9-3.1,2.9-6.4,2.9-10c0-3.6-0.9-6.7-2.6-9.4C972.5,650.1,969.7,647.8,966.1,646z"/>
		</g>
	</g>
</g>
</svg>
