<?xml version="1.0" encoding="UTF-8"?><svg id="Layer_1" xmlns="http://www.w3.org/2000/svg" viewBox="0 0 60 60"><defs><style>.cls-1{fill:none;}.cls-2{fill:#f4393a;}</style></defs><path class="cls-2" d="M42.79,20.49c-7.01-9.43-18.42-12.82-25.48-7.56-7.06,5.25-7.11,17.15-.1,26.58,7.01,9.43,18.42,12.82,25.48,7.56,7.06-5.25,7.11-17.15,.1-26.58Zm-25.87,2.01h5.44l5.51,9.54-2.72,4.71-8.22-14.24Zm12.06,20.93l-2.72-4.71,5.51-9.54h5.44s-8.22,14.24-8.22,14.24Zm9.35-16.22h-11.01s-2.72-4.71-2.72-4.71h16.45s-2.72,4.71-2.72,4.71Z"/><rect class="cls-1" x="0" y="0" width="60" height="60" rx="30" ry="30"/></svg>