<?xml version="1.0" encoding="UTF-8"?><svg id="Layer_1" xmlns="http://www.w3.org/2000/svg" viewBox="0 0 60 60"><defs><style>.cls-1{fill:none;}.cls-2{fill:#091f8a;}</style></defs><g><polygon class="cls-2" points="42.14 36.61 37.34 29.64 41.54 23.54 38.5 23.54 35.82 27.44 33.13 23.54 30.09 23.54 34.3 29.64 29.49 36.61 32.53 36.61 35.82 31.84 39.1 36.61 42.14 36.61"/><path class="cls-2" d="M50.51,23.3c-3.72,0-6.74,3-6.74,6.7s3.02,6.7,6.74,6.7,6.74-3,6.74-6.7-3.02-6.7-6.74-6.7Zm0,10.95c-2.17,0-3.92-1.9-3.92-4.25s1.76-4.25,3.92-4.25,3.92,1.9,3.92,4.25-1.76,4.25-3.92,4.25Z"/><path class="cls-2" d="M26.15,36.31l1.76-2.55-4.45-10.21h-2.37l-5.69,13.06h2.87l1.27-2.93h5.45l1.14,2.63Zm-5.63-4.84l1.76-4.04,1.76,4.04h-3.52Z"/><path class="cls-2" d="M10.53,29.15c-.78-.21-3.25-.81-3.66-.91-.82-.2-1.1-1.72,.2-2.39,.76-.4,2-.42,2.67,.03,.62,.41,1.13,1.3,1.13,1.3l2.51-.96s-1.1-2.9-4.84-2.87c-3.38,.03-5.04,1.89-5.04,4.05,0,1.69,1.26,2.69,2.7,3.15,.96,.31,3.03,.9,3.69,1.1,.93,.28,1.22,1.74-.17,2.45-.81,.41-2.26,.41-2.98-.06-.66-.43-1.36-1.6-1.36-1.6l-2.62,.62s1.26,3.66,5.27,3.63c3.62-.03,5.4-1.97,5.4-4.24,0-1.77-1.33-2.89-2.9-3.3Z"/></g><rect class="cls-1" x="0" y="0" width="60" height="60" rx="30" ry="30"/></svg>