<?xml version="1.0" encoding="utf-8"?>
<!-- Generator: Adobe Illustrator 26.3.1, SVG Export Plug-In . SVG Version: 6.00 Build 0)  -->
<svg version="1.1" id="a" xmlns="http://www.w3.org/2000/svg" xmlns:xlink="http://www.w3.org/1999/xlink" x="0px" y="0px"
	 viewBox="0 0 40 40" style="enable-background:new 0 0 40 40;" xml:space="preserve">
<style type="text/css">
	.st0{fill:#06AFC9;}
</style>
<path class="st0" d="M37.4,13c0,0-0.3-2.4-1.4-3.5C34.6,8.1,33.1,8,32.4,8C27.4,7.6,20,7.6,20,7.6l0,0c0,0-7.4,0-12.4,0.4
	C6.9,8,5.4,8.1,4,9.5C3,10.5,2.6,13,2.6,13s-0.4,2.8-0.4,5.7v2.7c0,2.8,0.4,5.7,0.4,5.7S3,29.5,4,30.5c1.4,1.4,3.1,1.4,3.9,1.5
	c2.8,0.3,12.1,0.4,12.1,0.4s7.4,0,12.4-0.4c0.7-0.1,2.2-0.1,3.6-1.5c1.1-1.1,1.4-3.5,1.4-3.5s0.4-2.9,0.4-5.7v-2.7
	C37.7,15.8,37.4,13,37.4,13z M15.6,25.1V14.9l8.8,5.1L15.6,25.1z"/>
</svg>
