<?xml version="1.0" encoding="UTF-8"?><svg id="Layer_1" xmlns="http://www.w3.org/2000/svg" viewBox="0 0 60 60"><defs><style>.cls-1{fill:none;}.cls-2{fill:#00e2fe;}</style></defs><g><path class="cls-2" d="M22.77,22.5h-.58v16.81h3.04c.58,0,1.05-.47,1.05-1.05v-13.13c0-1.14-1.57-2.64-3.5-2.64Z"/><path class="cls-2" d="M28.77,22.5h-.58v16.81h3.04c.58,0,1.05-.47,1.05-1.05v-13.13c0-1.14-1.57-2.64-3.5-2.64Z"/><path class="cls-2" d="M38.38,20.64h-.58c-1.93,0-3.5,1.65-3.5,2.64v16.04h3.04c.58,0,1.05-.47,1.05-1.05V20.64Z"/><path class="cls-2" d="M12.98,36.03c-2.03,.15-4.17-1.07-4.24-6.32,.07-4.66,2.2-5.88,4.24-5.73,1.98,.15,6.34,.99,6.34,.99l.03-3.37s-3.57-1.11-6.31-1.11-8.04,1.2-8.32,8.9h-.01c0,.11,0,.22,0,.33,0,.1,0,.19,0,.29h.01c.24,8.87,5.64,9.52,8.32,9.52s6.31-1.11,6.31-1.11l-.03-3.37s-4.36,.85-6.34,.99Z"/><path class="cls-2" d="M48.93,36.03c-2.03,.15-4.17-1.07-4.24-6.32,.07-4.66,2.2-5.88,4.24-5.73,1.98,.15,6.34,.99,6.34,.99l.03-3.37s-3.57-1.11-6.31-1.11-8.04,1.2-8.32,8.9h-.01c0,.11,0,.22,0,.33,0,.1,0,.19,0,.29h.01c.24,8.87,5.64,9.52,8.32,9.52s6.31-1.11,6.31-1.11l-.03-3.37s-4.36,.85-6.34,.99Z"/></g><rect class="cls-1" x="0" y="0" width="60" height="60" rx="30" ry="30"/></svg>