<?xml version="1.0" encoding="UTF-8"?><svg id="Layer_1" xmlns="http://www.w3.org/2000/svg" viewBox="0 0 120 120"><defs><style>.cls-1{fill:#9e8337;}</style></defs><path class="cls-1" d="M84.36,20.15c-6.25-6.72-14.9-10.42-24.36-10.42-12.03,0-22.05,5.9-28.11,15.46-.18,.24-.36,.49-.54,.75l.05,.03c-3.66,6.12-5.74,13.66-5.74,22.09,0,18.49,15.38,46.81,34.34,46.81s34.34-28.33,34.34-46.81c0-11.23-3.45-20.88-9.98-27.9Zm-8.86,.2c-5.08,.69-10.57,3.64-15.5,7.96-4.9-4.29-10.35-7.23-15.4-7.95,4.45-3.03,9.75-4.66,15.4-4.66s11.15,1.66,15.5,4.64ZM31.64,48.06c0-7.23,1.64-13.66,4.78-18.93,1.62-2.31,3.94-3.25,7.1-2.87,3.64,.44,8.06,2.71,12.24,6.27-3.96,4.43-7.28,9.7-9.3,15.22-3.68,10.03-5.13,19.51-4.18,27.42,.12,.98,.28,1.93,.47,2.85-6.67-8.76-11.11-21.04-11.11-29.94Zm25.64,40.56c-12.32-5.48-10.52-24.3-5.2-38.82,1.81-4.95,4.65-9.42,7.92-13.11,3.26,3.69,6.1,8.16,7.92,13.11,5.31,14.49,7.11,33.26-5.13,38.78-.93,.2-1.87,.31-2.79,.31s-1.82-.09-2.72-.27Zm22.36-14.12c-.77,1.21-1.57,2.35-2.38,3.42,.18-.9,.34-1.81,.45-2.77,.94-7.9-.5-17.38-4.18-27.42-2.02-5.51-5.34-10.78-9.3-15.22,4.18-3.56,8.6-5.83,12.24-6.27,3.21-.38,5.56,.59,7.18,2.99,3.01,5.17,4.7,11.57,4.7,18.81,0,7.75-3.42,18.13-8.71,26.44Z"/><path class="cls-1" d="M69.7,102.84c-6.44,1.92-12.96,1.92-19.4,0-1.58-.47-3.25,.43-3.72,2.01-.47,1.58,.43,3.25,2.01,3.72,3.77,1.12,7.61,1.7,11.41,1.7s7.64-.57,11.41-1.7c1.58-.47,2.48-2.14,2.01-3.72-.47-1.58-2.14-2.48-3.72-2.01Z"/></svg>