<?xml version="1.0" encoding="UTF-8"?><svg id="Layer_1" xmlns="http://www.w3.org/2000/svg" viewBox="0 0 120 120"><defs><style>.cls-1{fill:#9e8337;}</style></defs><path class="cls-1" d="M60,20.25c-21.86,0-39.58,17.72-39.58,39.58s17.23,39.07,38.66,39.55c-1.54-2.38-3.32-6.09-2.52-9.74l5.69-22.07c.25-.99-.55-1.92-1.56-1.82l-6.65,.67c-1.68,.17-3.08,1.35-3.54,2.97l-5.08,17.97c-.27,.99-1.27,2.28-2.95,2.28-2.44,0-9.06-5.09-7.14-12.18l9.83-36.99c.54-2.03,2.38-3.44,4.47-3.44h6.33c1.73,0,2.99,1.65,2.53,3.32l-3.87,14.1c-.27,.97,.52,1.9,1.52,1.8l6.12-.62c1.9-.19,3.48-1.55,3.96-3.4l7.61-29.49c-4.3-1.6-8.96-2.48-13.82-2.48Z"/><path class="cls-1" d="M84.74,28.94l-15.77,60.69c-.45,1.75-.81,3.13-.59,6.94,.03,.59,.13,1.22,.28,1.87,17.69-3.95,30.93-19.73,30.93-38.62,0-12.5-5.8-23.63-14.84-30.88Z"/><path class="cls-1" d="M79.2,21.45s.39,1.38,1.45,1.72c1.06,.34,2.18-.55,2.18-.55,0,0,.52,.21,1,.66,.48,.45,1.75,2.45,1.75,2.45,0,0,.85-1.19,1.11-2.65,.26-1.46-1.33-3.11-1.33-3.11,0,0,1.49-2.02,1.7-5.88s-1.04-7.48-1.04-7.48c0,0-3.14,2.2-5.23,5.45-2.1,3.25-2.08,5.76-2.08,5.76,0,0-2.26,.39-2.9,1.73-.64,1.34-.66,2.8-.66,2.8,0,0,2.2-.87,2.86-.95,.65-.08,1.19,.05,1.19,.05Zm2.32-7.14c.33-1,1.4-1.55,2.4-1.23,1,.32,1.55,1.4,1.23,2.4-.33,1-1.4,1.55-2.4,1.23-1-.33-1.55-1.4-1.23-2.4Z"/><path class="cls-1" d="M77.69,29.82c.04,.51,.34,1.4,.34,1.4,0,0,.76-.55,1.1-.94,.34-.39,.92-1.41,.92-1.41l.32,1.32s1.37-1.14,2.08-2.54c.71-1.4,.56-3.2,.56-3.2,0,0-.41,1.33-1.03,2.34-.62,1.01-1.05,1.18-1.05,1.18l-.06-1.88s-.31,.57-.89,1.57c-.58,1-1.28,1.49-1.28,1.49,0,0-.28-.8-.16-1.95,.12-1.15,.21-1.79,.21-1.79l-1.15,1.49s-.25-.39-.16-1.58c.09-1.18,.54-2.5,.54-2.5,0,0-1.18,1.37-1.43,2.92-.25,1.55,.19,3.28,.19,3.28l1.04-.88s-.13,1.17-.09,1.68Z"/></svg>