<?xml version="1.0" encoding="UTF-8"?><svg id="Layer_1" xmlns="http://www.w3.org/2000/svg" viewBox="0 0 120 120"><defs><style>.cls-1{fill:#047f92;}</style></defs><path class="cls-1" d="M100.64,76.5c.4-3.09,.81-10.93-3.67-18.46-1.96-3.3-4.84-5.99-8.54-8,.24-4.87-.74-9.27-2.92-13-4.96-8.44-13.14-11.85-15.81-12.78-1.82-4.54-5.58-7.61-9.92-7.49-4.7,.12-8.73,3.94-10.34,9.2-2.8,1.26-9.63,4.99-13.86,12.89-1.66,3.11-2.55,6.61-2.66,10.43-4.97,2.39-8.74,5.82-11.08,10.15-4.76,8.79-3.74,17.82-3.25,20.69-.82,1.1-1.49,2.29-1.98,3.53-1.27,3.27-1.13,6.54,.39,9.2,1.52,2.66,4.22,4.35,7.59,4.76,.63,.08,1.26,.1,1.9,.09,1.07-.03,2.15-.19,3.23-.46,2.37,1.8,8.61,5.8,17.08,5.59,.14,0,.29,0,.44-.02,3.93-.17,7.82-1.51,11.55-3.98,4.26,3.01,8.81,4.52,13.44,4.4,.08,0,.15,0,.23,0,9.72-.36,16.87-5.99,19.05-7.92,.67,.08,1.34,.11,2,.09,4.02-.1,7.65-1.96,9.51-5.32,2.35-4.23,1.23-9.63-2.38-13.58ZM59.77,20.42c4.15-.11,7.52,4.44,7.52,10.13s-3.37,10.41-7.52,10.52c-4.15,.11-7.52-4.44-7.52-10.13,0-5.69,3.37-10.41,7.52-10.52ZM25.1,93.98c-2.27-.27-4.04-1.35-5.01-3.03s-1.02-3.82-.17-6.02c.91-2.35,2.74-4.47,5.14-5.95,4.81-2.97,10.42-2.44,12.49,1.19,.96,1.68,1.02,3.82,.17,6.02-.91,2.35-2.74,4.47-5.14,5.95-2.4,1.48-5.06,2.14-7.49,1.85Zm47.31,5.59c-.06,0-.13,0-.19,0-12.05,.31-20.15-12.62-22.56-17.04l3.16-1.97c1.33,2.08,3.94,5.64,7.16,7.42,4.26,2.35,7.88,3.32,8.03,3.36l.95,.25,.73-.7c.07-.07,1.74-1.68,3.43-4.8,1.32-2.42,1.93-4.33,1.96-4.41l.48-1.5-9.36-4.66-.86,1.48s-.92,1.57-2.64,4.06c-.8,1.15-1.67,2.09-2.36,2.75-3.03-2.43-5.29-6.6-5.32-6.65l-.88-1.64-9.15,5.7,.68,1.49c.1,.21,2.46,5.31,6.87,10.4,1.06,1.23,2.16,2.34,3.27,3.35-2.83,1.67-5.73,2.58-8.64,2.7-5.83,.25-10.57-1.9-13.36-3.59,.18-.1,.36-.2,.54-.31,3.09-1.91,5.46-4.67,6.67-7.79,1.27-3.27,1.13-6.54-.39-9.2-3.06-5.35-10.85-6.42-17.37-2.4-.51,.31-.99,.65-1.46,1.01-.26-3.64-.07-9.81,3.13-15.73,5.96-11.01,21.25-12.03,26.27-12.05l.02,3.75c-2.45,.19-6.83,.8-10.01,2.81-4.21,2.66-6.92,5.41-7.03,5.53l-.71,.73,.21,.98c.02,.09,.51,2.34,2.27,5.34,1.36,2.33,2.65,3.79,2.71,3.85l1.02,1.14,8.83-6.08-.8-1.47s-.85-1.56-2.05-4.29c-.56-1.26-.89-2.48-1.09-3.41,3.64-1.52,8.34-1.54,8.4-1.54h1.84l-.05-10.84-1.62-.11c-.23-.02-5.78-.36-12.37,1.13-1.47,.33-2.86,.73-4.19,1.19,.25-2.64,.95-5.06,2.12-7.24,2.84-5.3,7.12-8.48,10-10.14,0,.21-.01,.42-.01,.63,0,7.71,4.98,13.86,11.09,13.7,6.12-.16,11.09-6.56,11.09-14.27,0-.61-.03-1.2-.09-1.79,3.2,1.49,8.32,4.61,11.66,10.31,6.2,10.55-.93,24.62-3.52,29.08l-3.18-1.78c1.12-2.26,2.89-6.44,2.85-10.23-.05-5.01-.96-8.73-1-8.88l-.24-.98-.94-.28c-.09-.03-2.25-.66-5.7-.54-2.68,.1-4.59,.55-4.67,.57l-1.5,.36,.53,10.75h1.66s1.76,0,4.7,.22c1.35,.11,2.56,.4,3.45,.67-.61,3.96-3.05,8.14-3.08,8.19l-.97,1.63,9.19,5.15,.93-1.39c.13-.2,3.32-4.96,5.5-11.52,.68-2.04,1.18-4.02,1.51-5.95,2.53,1.6,4.53,3.59,5.93,5.95,3,5.05,3.45,10.37,3.36,13.73-.17-.11-.35-.21-.53-.31-6.52-3.69-14.31-2.21-17.37,3.3-3.06,5.51-.24,12.98,6.28,16.67,.52,.29,1.04,.54,1.57,.77-2.93,2.13-8.24,5.18-14.81,5.43Zm-8.9-13.9c.67-.7,1.4-1.56,2.08-2.55,.81-1.17,1.44-2.13,1.9-2.85l3.64,1.81c-.27,.63-.64,1.43-1.11,2.29-.78,1.43-1.54,2.47-2.05,3.11-.98-.33-2.6-.92-4.46-1.82Zm-19.68-19.67l-3.43,2.36c-.39-.54-.87-1.25-1.36-2.08-.8-1.38-1.29-2.55-1.56-3.31,.79-.72,2.13-1.87,3.86-3.09,.24,.93,.59,1.99,1.07,3.07,.56,1.27,1.05,2.3,1.42,3.05Zm31.12-11.87c-.91-.23-1.99-.43-3.15-.52-1.37-.11-2.49-.17-3.32-.2l-.21-4.18c.66-.09,1.5-.18,2.47-.21,1.58-.06,2.82,.07,3.61,.2,.2,1.04,.47,2.78,.6,4.91Zm24.98,34.19c-2.07,3.73-7.68,4.56-12.49,1.83-4.81-2.72-7.04-7.98-4.97-11.71,2.07-3.73,7.68-4.55,12.49-1.83,4.81,2.72,7.04,7.98,4.97,11.71Z"/></svg>