<?xml version="1.0" encoding="UTF-8"?><svg id="Layer_1" xmlns="http://www.w3.org/2000/svg" viewBox="0 0 120 120"><defs><style>.cls-1{fill:#9e8337;}</style></defs><path class="cls-1" d="M60,19.38c-22.43,0-40.62,18.18-40.62,40.62s18.18,40.62,40.62,40.62,40.62-18.18,40.62-40.62S82.43,19.38,60,19.38Zm0,69.78c-16.1,0-29.16-13.06-29.16-29.16s13.06-29.16,29.16-29.16,27.97,11.91,29.07,27h-14.76c-1.04-6.97-7.04-12.33-14.31-12.33-8,0-14.49,6.49-14.49,14.49s6.49,14.49,14.49,14.49c7.27,0,13.26-5.35,14.31-12.33h14.76c-1.11,15.1-13.69,27-29.07,27Z"/></svg>